<svg xmlns="http://www.w3.org/2000/svg" width="18" height="18"><path data-name="" d="M18.012 5.621v9.738a2.926 2.926 0 0 1-2.637 2.637H2.649a2.958 2.958 0 0 1-1.793-.422 2.489 2.489 0 0 1-.844-2.215V3.375a2.475 2.475 0 0 1 .826-2.18A2.955 2.955 0 0 1 2.649.774h1.09V.457a.448.448 0 0 1 .123-.334.4.4 0 0 1 .3-.123.41.41 0 0 1 .422.457v.318h8.825V.458a.421.421 0 0 1 .14-.334.469.469 0 0 1 .317-.123.405.405 0 0 1 .3.123.452.452 0 0 1 .123.334v.281h1.09a2.907 2.907 0 0 1 1.793.827 2.824 2.824 0 0 1 .844 1.81v2.25zM.856 5.234h16.312V3.441a2.056 2.056 0 0 0-.562-1.283 1.912 1.912 0 0 0-1.231-.58h-1.019v.317a.4.4 0 0 1-.457.457.42.42 0 0 1-.334-.141.461.461 0 0 1-.123-.316v-.32H4.619v.317a.4.4 0 0 1-.457.457.369.369 0 0 1-.316-.141.513.513 0 0 1-.105-.316v-.317h-1.09a2.194 2.194 0 0 0-1.3.281 1.729 1.729 0 0 0-.492 1.512v1.863zm15.732 11.341a2.012 2.012 0 0 0 .58-1.283V6.075H.856v9.281a1.79 1.79 0 0 0 .527 1.53 2.215 2.215 0 0 0 1.266.263h12.656a2.012 2.012 0 0 0 1.283-.574zM4.969 8.542v.809a.576.576 0 0 1-.176.422.617.617 0 0 1-.457.175h-.773a.617.617 0 0 1-.457-.175.573.573 0 0 1-.176-.422v-.809a.574.574 0 0 1 .176-.422.618.618 0 0 1 .457-.176h.844a.534.534 0 0 1 .562.6zm4.887-.439a.56.56 0 0 1 .175.439v.809a.575.575 0 0 1-.175.422.62.62 0 0 1-.457.175h-.774a.617.617 0 0 1-.457-.175.576.576 0 0 1-.176-.422v-.809a.578.578 0 0 1 .176-.422.618.618 0 0 1 .457-.176h.774a.657.657 0 0 1 .457.156zm5.062 0a.561.561 0 0 1 .176.439v.809a.576.576 0 0 1-.176.422.617.617 0 0 1-.457.175h-.773a.617.617 0 0 1-.457-.175.573.573 0 0 1-.176-.422v-.809a.574.574 0 0 1 .176-.422.618.618 0 0 1 .457-.176h.773a.654.654 0 0 1 .458.156zm-5.062 3.99a.619.619 0 0 1 .175.457v.773a.6.6 0 0 1-.632.633h-.774a.6.6 0 0 1-.633-.633v-.773a.6.6 0 0 1 .633-.633h.774a.621.621 0 0 1 .457.173zm-5.045 0a.66.66 0 0 1 .158.457v.773a.6.6 0 0 1-.633.633h-.773a.6.6 0 0 1-.633-.633v-.773a.6.6 0 0 1 .633-.633h.844a.522.522 0 0 1 .404.173z" fill="#999" fill-rule="evenodd"/></svg>