<svg xmlns="http://www.w3.org/2000/svg" width="17.938" height="15.468"><path data-name="" d="M17.274 3.98a2.127 2.127 0 0 1 .668 1.547v7.875a1.9 1.9 0 0 1-.774 1.512 2.566 2.566 0 0 1-1.582.562H1.91a1.85 1.85 0 0 1-1.371-.633 2.013 2.013 0 0 1-.527-1.371V5.527a2.351 2.351 0 0 1 .562-1.529 1.922 1.922 0 0 1 1.477-.721h2.918V1.238a1.15 1.15 0 0 1 .352-.844 1.321 1.321 0 0 1 .878-.386h5.7a1.33 1.33 0 0 1 1.23 1.23v2.039h2.567a2.3 2.3 0 0 1 1.578.703zm-11.532-.7h6.539V1.241a.335.335 0 0 0-.14-.281.513.513 0 0 0-.317-.106H6.129a.392.392 0 0 0-.387.387V3.28zM3.281 14.706V4.121h-1.23a1.348 1.348 0 0 0-.844.474 1.3 1.3 0 0 0-.351.862v8.015a1.156 1.156 0 0 0 .316.827 1.336 1.336 0 0 0 .809.4h1.3zm9.774-10.582h-8.93v10.582h8.93V4.121zm4.113 1.406a1.376 1.376 0 0 0-.51-.949 1.662 1.662 0 0 0-1-.457h-1.759v10.582h1.863a1.622 1.622 0 0 0 .932-.4 1.249 1.249 0 0 0 .474-.9V5.531z" fill="#999" fill-rule="evenodd"/></svg>