<svg xmlns="http://www.w3.org/2000/svg" width="18" height="18"><path data-name="" d="M17.326 5.551a8.993 8.993 0 0 1 0 6.89 9.32 9.32 0 0 1-4.869 4.87 9.005 9.005 0 0 1-6.89 0 9.32 9.32 0 0 1-4.869-4.87 8.993 8.993 0 0 1 0-6.89A9.314 9.314 0 0 1 5.567.682a8.993 8.993 0 0 1 6.89 0 9.01 9.01 0 0 1 4.869 4.869zm-.773 6.574a8.054 8.054 0 0 0 .615-3.129 8.185 8.185 0 0 0-.615-3.146 7.881 7.881 0 0 0-1.775-2.637 8.272 8.272 0 0 0-2.637-1.758A8.057 8.057 0 0 0 9.012.84a8.4 8.4 0 0 0-3.147.6 7.544 7.544 0 0 0-2.636 1.776A8.45 8.45 0 0 0 1.471 5.87a8.146 8.146 0 0 0 7.541 11.285 8.185 8.185 0 0 0 3.146-.615 8.348 8.348 0 0 0 2.655-1.74 8.83 8.83 0 0 0 1.74-2.675zm-3.252-1.512a.451.451 0 0 1-.422.282h-.105L8.731 9.453a.387.387 0 0 1-.282-.387V2.633a.425.425 0 0 1 .458-.457.592.592 0 0 1 .333.158.408.408 0 0 1 .124.3v6.082l3.761 1.336a.359.359 0 0 1 .176.562z" fill="#999" fill-rule="evenodd"/></svg>