<svg xmlns="http://www.w3.org/2000/svg" width="170" height="20"><path d="M74.6 13.85c-.07-.1-.565-1.44-.565-1.44a.511.511 0 0 0-.041.18 6.586 6.586 0 0 0 .352.91l.317.59.06-.05zm-2.034.27a8.843 8.843 0 0 0-1.488.61.276.276 0 0 0 .232.06c.092-.04 1.348-.55 1.348-.55zm2.043-3.78a.153.153 0 0 0-.089-.14 2.283 2.283 0 0 0-.371-.03c-.12 0-.162-.07-.139-.11l-.032-.02s-.06-.06-.041.02c0-.02.986.42.161.23a1.267 1.267 0 0 1-.317-.05.265.265 0 0 0-.364.08s0 .01-.007.01c-.041.07-.092.14.019.22s0 .07-.06.12 0 .05.079.04a.637.637 0 0 1 .222-.07c.01.04-.317.21-.26.22a.4.4 0 0 0 .27 0 .351.351 0 0 0 .26-.16q.513-.195.222 0c-.281.16-.251.19.092.1a1.69 1.69 0 0 1 .317-.06c.1 0 0-.1.019-.14a1.037 1.037 0 0 0 .022-.26zm.793 1.36a1.268 1.268 0 0 0 .273-.06v-.07l-.463.04h-1.586l.041.11a9.142 9.142 0 0 0 1.738-.02zm-2.956 1.96s-1.136.4-1.317.47-.393.14-.393.14a1.422 1.422 0 0 0 1.76-.41zM61.437 6.11a.869.869 0 0 0-.429-.18 3.522 3.522 0 0 1-.453-.1l.051-.49a1.769 1.769 0 0 1 .228-.07 1.04 1.04 0 0 0 .238-.09l-.064-.15a.9.9 0 0 0-.276.08 2.486 2.486 0 0 1-.39.09l-.038.84.581.06a2.791 2.791 0 0 1 .492.14zM74.79 12.1c-.535-.29-.787-.28-.755.04a.4.4 0 0 0 .032.13c.031.1.793 1.64.793 1.64l.079-.08-.733-1.62h.153l.663 1.49.028-.14-.533-1.32h.191l.453 1.08.051-.16-.317-.95.162-.02.26.75.089-.25-.172-.57.162-.04.1.37.111-.25-.061-.24h.121s.028.15.041.06a1.139 1.139 0 0 1 .079-.25.218.218 0 0 0-.152.06 6.227 6.227 0 0 1-.842.27zm.251 4.75s-.524.24-.663.32-.635.3-.635.3l.162.13 1.288-.68zm.342-6.39c.149-.02-.019-.14-.069-.26a.74.74 0 0 1-.019-.39c.019-.07.079.09.161.28a.476.476 0 0 0 .343.26c.092.03 0 .11-.079.16-.258-.06-.4 0-.413.19a.52.52 0 0 1-.231.06c-.032.03.069.03.272.05a.685.685 0 0 0 .5-.1.83.83 0 0 0 .06-.63q-.09-.18-.162-.36a9.324 9.324 0 0 1 .213-1.48c-.04-.21-.1-.21-.181 0a.315.315 0 0 0 .028.27 8.7 8.7 0 0 1 .02.91 1.374 1.374 0 0 1-.1-.43 1.789 1.789 0 0 1 .051-.95.4.4 0 0 0 .079-.47.522.522 0 0 0-.092.08.176.176 0 0 0-.051.11h-.225l-.041-.13-.07.05a.22.22 0 0 0-.051.18.24.24 0 0 0 .149.28c.042.02-.041.11-.079.17s-.051-.01-.092-.07a.406.406 0 0 1-.152-.09c-.041-.07.031-.07.051-.12a.269.269 0 0 0-.02-.19.225.225 0 0 0-.139.04c-.029.04 0 .05.032.13.054.22-.257 1.4.161 1.44.092 0 .1-.08.08-.16a1.1 1.1 0 0 0-.13-.14c-.01-.05.031-.08.088-.06.337.34.357.49.061.44a.253.253 0 0 0-.251.04c.25.39.226.68-.07.86a.473.473 0 0 0 .371.03zm-.161-1.66a.222.222 0 0 1-.019-.36.519.519 0 0 1 .022.36zm.222.08a.2.2 0 0 1 .008-.28.109.109 0 0 1 .011-.01.437.437 0 0 1-.019.3v-.01zm.26 8.75c-.08.04-.13-.09-.07-.15a1.392 1.392 0 0 1 .273-.15l-.181-.09s-.171.09-.251.14-.263-.05-.161-.11.231-.17.231-.17l-.139-.06s-.473.24-.613.32-.672.32-.672.32l.139.11c.117-.05.232-.11.343-.17.089-.06.162.1.089.15a2.521 2.521 0 0 1-.26.13l.12.06s.19-.09.292-.13.2.02.152.07a1.211 1.211 0 0 1-.241.15l.317.11 1.238-.64-.162-.07s-.359.14-.441.18zm-.317.23c-.061.05-.1.1-.191 0s.1-.15-.041-.25a3.018 3.018 0 0 1-.371-.02c-.029-.06-.051-.1.1-.17a.464.464 0 0 1 .441.06.337.337 0 0 1 .076.39zm-.94-1.49l-.491.23-.825.39.13.11 1.307-.63zm.432.34l-.152-.12-.765.4c-.152.07-.584.24-.584.24l.149.11.524-.22c.2-.08.831-.41.831-.41zm-1.2-7.33a.154.154 0 0 0-.034.22.106.106 0 0 0 .034.04.271.271 0 0 0-.1.18c.038.05.092-.02.13-.05a.141.141 0 0 1 .162-.03c.07.03-.162.12-.181.16a.582.582 0 0 0 .318-.06 2.39 2.39 0 0 1 .222-.1c.092-.04.212-.05.171 0s-.317.09-.317.12a.783.783 0 0 0 .2-.03.843.843 0 0 0 .317 0 .6.6 0 0 1 .07-.47c.041-.07-.061-.07-.232-.08a2.486 2.486 0 0 1-.282-.08s-.13-.03-.019.05c0 0 .726.6-.061.1a.626.626 0 0 0-.26-.12.221.221 0 0 0-.131.15zm.273-.53a.311.311 0 0 0 .212-.02.307.307 0 0 0 .181-.06 1.09 1.09 0 0 1 .181-.02c.028 0-.051.08 0 .1.178.07.241.04.19-.1a.074.074 0 0 1 .014-.1.014.014 0 0 0 .015-.01.206.206 0 0 0 0-.19c-.029-.08-.092-.05-.14-.16s.13-.08.213-.12c0 0 0-.08-.051-.07-.313.07-.347.19-.1.37a.118.118 0 0 1 .05.1.358.358 0 0 1-.25 0 1.764 1.764 0 0 0-.153-.13.15.15 0 0 0-.161.08l.031.11a.276.276 0 0 1-.05.11.164.164 0 0 1-.162.06c-.064.01-.067.03-.013.05zM77 12.5c-.158.04-.188.14-.088.31a.939.939 0 0 1 0 .29.3.3 0 0 0 .317-.42.9.9 0 0 1 .079-.4 1.951 1.951 0 0 0 .2-.15.657.657 0 0 1 .06-.51c-.051-.03-.13.1-.139.14a1.605 1.605 0 0 0 0 .31c-.2.19-.255.18-.162-.04.07-.2.193-.42-.1-.46a.491.491 0 0 0-.292.04.934.934 0 0 0-.028.59c.024.13.167.24.153.3zm2.186.32c.019-.11.219-.18.273-.34a2.211 2.211 0 0 1 .127-.5c.262-.38.287-.49.073-.31-.054.09-.165.22-.219.31a2.494 2.494 0 0 0-.108.42.248.248 0 0 1-.127.13 1.043 1.043 0 0 1 .2-.74c.108-.11.181-.15.127-.22a.25.25 0 0 1-.054-.13l-.127-.13-.073.13h-.491a.223.223 0 0 0 .126.22c.073.05-.034.09-.126.04-.151-.13-.256-.12-.318.03a.261.261 0 0 1 .181.07.389.389 0 0 0-.4.15.559.559 0 0 0 .381.05 3.244 3.244 0 0 1 .317 1.17.214.214 0 0 1 .073-.22c.115-.07.15-.02.169-.13zM62.797 7.78a1.2 1.2 0 0 0 .127-1.12c-.276-.39-.806-1-.806-1l-.051.05.317.43a1.672 1.672 0 0 1 .429.95 1.307 1.307 0 0 1-.289.81c-.075.08.239-.04.276-.12zm-.882-2.86a5.172 5.172 0 0 1-.517.32c-.114.04-.7.29-.7.29l.025.19a1.853 1.853 0 0 0 .933.1.564.564 0 0 1 .19-.35 2.9 2.9 0 0 0 .264-.28zM82 12.66a.267.267 0 0 0-.121.03v.08l.261.06.1-.9h-.051c-.247.32-.6.31-1.053-.02a.3.3 0 0 1-.079-.19h-.051a2.29 2.29 0 0 1-.162.78l.352.13v-.08a1.581 1.581 0 0 1-.209-.16.977.977 0 0 1 .07-.29l.5.08a1.543 1.543 0 0 0-.041.18.111.111 0 0 1-.111.07v.08l.317.05v-.07a.18.18 0 0 1-.041-.29l.422.06a.624.624 0 0 1-.103.4zM61.721 6.24c.14 0 .19-.25 0-.24a.121.121 0 1 0-.002.24zm-.228.29c-.041.19-.049.19-.026 0 .033-.27.125.02.024 0zm.152-.03c-.022.12.19.1.228 0s-.205-.16-.23 0zm-.111.29c-.08.15.038.31.216.16s-.158-.26-.218-.16zm35.612 9.14l-.092-.13-.143.1.089.12zm.238-.16l-.073-.15-.127.08.089.14zM88.317 5.35a.764.764 0 0 0 .46.38 1.639 1.639 0 0 0 .618-.11.621.621 0 0 1 .244.13 1.751 1.751 0 0 0 .851 0c.095-.04.222-.19-.038-.14a1.534 1.534 0 0 1-.835-.21.671.671 0 0 1-.269-.54 4.348 4.348 0 0 1-.635 0 2.455 2.455 0 0 1-.381-.09c-.031.03-.065.05-.1.08a.372.372 0 0 0-.137.09.266.266 0 0 0-.364.26.164.164 0 0 0 .149.05c.24-.2.386-.16.435.1zm.453-.07a.11.11 0 0 0 .184-.06.962.962 0 0 0 0-.18.548.548 0 0 1 .168.12.217.217 0 0 1-.158.32.323.323 0 0 1-.365-.36.817.817 0 0 1 .168.16zM61.255 6.86a.135.135 0 0 0-.051.24c.096.09.122-.24.049-.24zm.161.34c-.088.05-.126.32.077.18s-.015-.21-.079-.18zm27.836-.72a.791.791 0 0 0 .349-.44.205.205 0 0 0-.206-.1.958.958 0 0 1-1.151.34.927.927 0 0 1-.334-.26.417.417 0 0 0 .254.52 1.373 1.373 0 0 0 1.086-.06zm-8.645 2.17c.032-.04.882-.88.882-.88l-.019-.06-1.183.2a.429.429 0 0 1-.159-.04l-.079.07.209.29.061-.02a1.387 1.387 0 0 1-.042-.14c-.009-.05 0-.06.061-.08a.167.167 0 0 1 .2.04s.1.23.111.27a.254.254 0 0 1 0 .11.3.3 0 0 1-.1.09c-.041.02-.092-.12-.092-.12l-.06.03.152.4.07-.04a.12.12 0 0 1-.014-.12zm.635-.79l-.451.41-.13-.29zm-2.056-1.68a.1.1 0 0 0 0 .14.1.1 0 0 0 .148.01.039.039 0 0 1 .017-.02c.122-.12-.078-.24-.167-.13zm.91 1.45c.051-.05.673-.64.7-.64a.384.384 0 0 1 .111.09l.06-.04-.171-.28-1.054.25.279-.97-.352-.3-.054.07s.07.1.089.13a.153.153 0 0 1-.028.14c-.029.05-.372.64-.41.69a.1.1 0 0 1-.119.02.268.268 0 0 0-.079-.04l-.032.05.26.27.06-.05a.268.268 0 0 1 .019-.13c.029-.08.381-.71.4-.75a.124.124 0 0 1 .079-.05l-.361 1.21 1.142-.31s-.562.46-.635.5-.1.05-.13.02-.043-.06-.06-.08l-.06.05.209.31.092-.07a.092.092 0 0 1 .043-.09zm-7.452-.55H72.4l.086.23.269.01zm.7-.47a1.654 1.654 0 0 1-.733-.05.382.382 0 0 1 .635-.17l.038-.05-.3-.35-.029.06v.08a2.357 2.357 0 0 0-.269.07.439.439 0 0 0-.248.35 1.327 1.327 0 0 0 .993.3c.076.06 0 .25-.165.27a.508.508 0 0 1-.336-.1l-.022.06.358.38v-.14a.627.627 0 0 1 .26-.09.344.344 0 0 0 .1-.44.315.315 0 0 0-.283-.18zm12.789-1.52a.566.566 0 0 1-.254-.07.7.7 0 0 0-.2.1.281.281 0 0 0-.057.26.539.539 0 0 0 .4 0 .513.513 0 0 0 .238-.11.2.2 0 0 0-.128-.18zM72.865 7.72a.193.193 0 0 1-.149 0c-.044-.03-.561-.38-.59-.41a.133.133 0 0 1-.038-.13.365.365 0 0 1 .054-.06l-.111-.06-.254.45.054.02a.165.165 0 0 1 .149-.04c.044.04.673.44.723.46a.1.1 0 0 1 .051.08l-.028.08.06.02.26-.45-.067-.07a.658.658 0 0 1-.115.11zm4.315-1.73a1.737 1.737 0 0 0 .13-.25.746.746 0 0 0-.313-1.01l-.058-.03a.416.416 0 0 0-.441.29 5.906 5.906 0 0 0-.051.75.434.434 0 0 0 .349.35l.232-.02.028.03a.454.454 0 0 0 .6.17 1.944 1.944 0 0 1-.241-.08 1.454 1.454 0 0 1-.236-.2zm-.1-.18s-.044-.11-.12-.07c-.14.06 0 .2 0 .2s-.317.15-.317-.18a3.246 3.246 0 0 1 .031-.63.254.254 0 0 1 .27-.21.72.72 0 0 1 .133.89zm1.793-.34l.051-.09a.328.328 0 0 1-.181-.09 1.216 1.216 0 0 0-.26-.13l-.029.06a.539.539 0 0 0 .111.08c.032 0 .041.07.032.12s-.251.53-.26.57a.518.518 0 0 1-.2.15c-.482-.16-.516-.48-.1-.98.019-.07.07-.04.07-.04l.032-.07-.371-.14-.019.09s.139.05.111.1-.111.43-.191.71a.428.428 0 0 0 .682.45c.051-.09.349-.71.372-.78s.147-.01.147-.01zm-7.084 2.22l.019-.06-.07-.02s-.13.17-.172.24-.12.25-.12.25h.07a.424.424 0 0 1 .26-.11c.089.03.691.26.691.26a2.818 2.818 0 0 0-.5.05c-.13.04-.634.12-.634.12a.948.948 0 0 0-.149.24l.031.02a.118.118 0 0 1 .121-.06c.079.02.78.27.841.3a.166.166 0 0 1 .05.14l.042.02.149-.42-.061-.03c-.167.28-.417.24-.752-.13-.5-.54.635-.09.752-.12a1.354 1.354 0 0 1 .283-.03l.07-.15s-.863-.37-.911-.38-.033-.07-.013-.13zm4.251-2.04c0 .09.222.08.209-.04s-.225-.16-.212.04zm-1.015.5c-.039-.06-.353-.81-.381-.89a.108.108 0 0 1 .054-.12l-.029-.08-.3.13.038.09a.217.217 0 0 1 .121.03c.022.04.342.83.358.88a.188.188 0 0 1-.06.12l.038.07.317-.15v-.05a.168.168 0 0 1-.159-.03zm-1.358-.68a.7.7 0 0 0 .688 1.19.709.709 0 0 0 .06-.98.519.519 0 0 0-.7-.24zm.612 1.03c-.1.08-.317.07-.546-.22a.445.445 0 0 1 .035-.63v-.01c.134-.1.318 0 .486.3s.127.49.022.56zm4.584.04a.183.183 0 0 1 .029-.12c.009-.04.317-.68.352-.72a.131.131 0 0 1 .13-.05l.089.02.032-.07-.441-.21-.029.06.079.06a.177.177 0 0 1 0 .13c0 .05-.349.71-.371.78a.067.067 0 0 1-.1.05.462.462 0 0 1-.111-.04l-.042.06s.172.08.232.12a1.2 1.2 0 0 0 .181.11l.041-.08a.273.273 0 0 0-.074-.1zM76.129 5.1l-.061-.32a5.179 5.179 0 0 0-.6.1c-.162.05-.612.15-.612.15l.12.32.067-.03a.361.361 0 0 1 .06-.23.574.574 0 0 1 .27-.04c.016.04.165.73.193.82a.118.118 0 0 1-.028.15.243.243 0 0 0-.105.06v.06a1.044 1.044 0 0 0 .247-.04 1.845 1.845 0 0 1 .232-.04V6a.151.151 0 0 1-.133-.09q-.508-.66-.038-.96a.362.362 0 0 1 .231 0 .991.991 0 0 1 .089.17zm5.3 5.45c-.121 0-.121.2.051.19s.058-.2-.053-.19zm.209-.61a.2.2 0 0 1-.111.13.372.372 0 0 1-.58-.06h-.051a2.271 2.271 0 0 1 .07.48h.05a.178.178 0 0 1 .08-.2c.051 0 .46-.03.46-.03s.431.32.492.36a.211.211 0 0 1 .05.16h.07s.019-.16.029-.23a1.47 1.47 0 0 0 0-.23h-.08c.034.1 0 .13-.1.1-.07-.04-.381-.25-.381-.25s.27-.41.317-.46.14.07.14.07h.063l-.079-.39-.028-.02-.051.02a.42.42 0 0 1-.06.16 3.708 3.708 0 0 0-.302.39zm-.349-.22c-.152.02-.139.2 0 .19s.157-.21-.002-.19zm-9.562-.73a.65.65 0 0 0-.71.25.4.4 0 0 0 .3.58c.412.11.822.13.952-.26s-.341-.54-.544-.57zm.371.46q-.111.555-.751.21a.266.266 0 0 1-.172-.39.68.68 0 0 1 .7-.02c.2.07.245.07.222.19v.01zm9.95 1.63c-.474.25-.805.21-.993-.11H81l-.029.43h.08a.238.238 0 0 1 .371-.12.533.533 0 0 0 .19.53 1.217 1.217 0 0 0 .381 0 .713.713 0 0 0 .25-.87h-.092a.2.2 0 0 1-.105.14zm-.019.53a.268.268 0 0 1-.4-.31h.482a.742.742 0 0 0 .019.17.143.143 0 0 1-.103.14zm-10.089-1.5c-.07 0-.771-.04-.85-.05s-.07-.17-.07-.17l-.1-.02a2.019 2.019 0 0 0-.041.53h.07c.025-.17.131-.22.317-.14l.019.61c-.211.09-.342.04-.39-.17h-.07v.55h.075s.051-.17.14-.15a.6.6 0 0 1 .9.14h.051a.869.869 0 0 0 .019-.26.943.943 0 0 1 0-.26h-.08a.2.2 0 0 1-.13.16 3.83 3.83 0 0 1-.339-.02l.019-.59c.263-.05.435.03.45.24l.1-.04a1.173 1.173 0 0 1 .051-.41H72a.068.068 0 0 1-.062.05zm29.965 8.13a29.962 29.962 0 0 1-7.329.16 41.476 41.476 0 0 1-8.3-1.96c-2.012-.7-2.817-.43-3.753.11a4.4 4.4 0 0 0-1.517 1.64 2.429 2.429 0 0 1 .048-.44 4.41 4.41 0 0 1 .212-.5c.089-.18.432-.6.559-.85a16.05 16.05 0 0 0 .609-1.52 1.646 1.646 0 0 1 .5-.85 8.107 8.107 0 0 1 2.538.06c.438.09 3.988 1.18 5.876 1.65a22.924 22.924 0 0 0 4.124.58.16.16 0 0 1 .162.23.186.186 0 0 1-.2.07v.09s.359.13.432.14a6.072 6.072 0 0 1 .377.96c.073.18-.215.16-.215.16v.11l1.148-.02-.035-.09a.458.458 0 0 1-.289-.13l-.088-.4s.253.2.45.32a.682.682 0 0 0 .485.06l.02.1-.235.17 1.221-.04-.317-.14-.143-.49.235-.31.289.03.18.29.235-.04-.342-.72-.521-.05c-.059-.27.091-.33.451-.16a1.034 1.034 0 0 1 .377.16c.073.05.486.5.486.5l-.318.36.613.5.466-.5-.4-.38.126-.14-.288-.47c.634.37.952.3.952-.19a.213.213 0 0 0 .3 0c.007-.01.014-.01.021-.02l.2.07a.324.324 0 0 0 .162-.11 2.437 2.437 0 0 0-.142-.45l.843.24-1.706 1.04.916.29 2.174-1.19.317-1.13s-.933.5-1.079.54a.633.633 0 0 1-.377-.2s.485-.56.612-.72a1.716 1.716 0 0 0 .216-.49s-.667.27-.771.29-.521.15-.521.15.02-.29.035-.38l.127-.64a3.27 3.27 0 0 1-.431.17c-.251.07-1.006.41-1.006.41l-.019-.74a3.985 3.985 0 0 1 .5-.14 4.1 4.1 0 0 1 1.741.11.325.325 0 0 0-.089-.27 1.176 1.176 0 0 0-.574-.27 3.19 3.19 0 0 0-.612-.13 3.176 3.176 0 0 1 .485-.32 6.761 6.761 0 0 1 .755-.23c.181-.04.486-.22.235-.29a4.125 4.125 0 0 0-1.526.07s.5-.23.736-.36.7-.23.863-.31.4-.11.162-.2a2.992 2.992 0 0 0-.987-.11c-.25.02-.682.11-.682.11s.073-.47.108-.57l.251-.72-.318-.13-.7.67-.127-.58-.288.2-.27.77s-.235-.14-.317-.2a.947.947 0 0 1-.162-.32l-.216.09s.143.44.162.56a2.164 2.164 0 0 1 0 .36l-.235-.02-.073-.05a1.012 1.012 0 0 1-.177-.16 2.478 2.478 0 0 1-.467-.11 3.8 3.8 0 0 1 .289-.45c.127-.16.343-.51.343-.51l-.289-.1a2.531 2.531 0 0 0-.359.21q-.412.315-.79.66c-.136.21-.349-.92-.4-1.13a1.521 1.521 0 0 0-.143.38 1.139 1.139 0 0 1-.181 1.08c-.054-.06-.177-.13-.358-.32s-.413-.4-.413-.4l-.342.13a2.1 2.1 0 0 0 .127.29 3.7 3.7 0 0 1 .063 1.46.128.128 0 0 1-.216 0c-.073-.12-.2-.41-.244-.48s-.127-.23-.152-.27a.426.426 0 0 0-.1-.22.157.157 0 0 0-.159-.05l-.032-.04a1.784 1.784 0 0 0-.91-.37 4.773 4.773 0 0 0-.911.27 2.871 2.871 0 0 1-.58.18c-.058 0-.238-.12-.318-.14a1.955 1.955 0 0 0-.58.16c-.1.04-.127-.02-.111-.09s.2-.41.2-.41a.54.54 0 0 0-.118-.07.124.124 0 0 1-.063-.11 7.963 7.963 0 0 0 .4-1.24 5.485 5.485 0 0 0-.317-2.96 10.191 10.191 0 0 0-.91-1.41.249.249 0 0 1 .063-.12 1.148 1.148 0 0 1 .187-.25c.076-.03.635-.38.863-.47a2.417 2.417 0 0 1 .952.12c.235.03.279-.16.285-.38a.39.39 0 0 1 .146-.37 5.713 5.713 0 0 1 .578-.2v-.07s-.635.13-.809.2a.567.567 0 0 1-.517.54 1.171 1.171 0 0 0-1.418.25c-.067.04-.134 0-.156-.18a1.193 1.193 0 0 0-.27-.59 1.472 1.472 0 0 1-.2-1.01l-.358-.14s-.225.34-.292.41a4.024 4.024 0 0 0-.406.45 1.947 1.947 0 0 0-.07.56 1.118 1.118 0 0 1-.222-.27c-.108-.27.054-1.03-.022-1.39l-.317-.11a.819.819 0 0 1-.089.2 5 5 0 0 1-.292.43 1.2 1.2 0 0 0-.159.27 4.885 4.885 0 0 0-.5-.36 1.251 1.251 0 0 0-.269-.09 1.143 1.143 0 0 0-.226-.32 1.058 1.058 0 0 0-.384-.14 2.747 2.747 0 0 1-.339-.36.429.429 0 0 0-.378-.06.609.609 0 0 0-.184-.27.5.5 0 0 0-.269-.05s-.048-.09-.114-.19a.3.3 0 0 0-.334-.08s-.092-.14-.158-.22a.354.354 0 0 0-.292-.09.838.838 0 0 0-.159-.25c-.066-.04-.18-.09-.2.09a1.115 1.115 0 0 0 .067.49.585.585 0 0 1 .5.43.475.475 0 0 0 .374.22.4.4 0 0 1 .165.28.486.486 0 0 0 .381.18.842.842 0 0 1 .158.34.6.6 0 0 1 .562.45 1.008 1.008 0 0 1 .539.43.687.687 0 0 0 .359.18l-.111.11a2.05 2.05 0 0 1-.5-.02.416.416 0 0 0-.27 0 1.534 1.534 0 0 0 .137.22l.292.38-.2-.02a1.771 1.771 0 0 1-.539-.22s-.181.02-.133.16a4.168 4.168 0 0 0 .336.53c.045.07-.1.15-.3.13a1.723 1.723 0 0 1-.489-.17.756.756 0 0 0-.9.38 3.46 3.46 0 0 1-.428.21 1.581 1.581 0 0 0-.606.13c-.317.16.067.7.022.81s-.269.25-.136.36a3.493 3.493 0 0 1 .384.57.727.727 0 0 1-.473.42.832.832 0 0 0-.473.75 3.279 3.279 0 0 0 .08.84l.317-.09a2.478 2.478 0 0 0 .111-.36c.022-.14.111-.25.676-.2a.553.553 0 0 0 .72-.41 3.14 3.14 0 0 1 .362-.83.464.464 0 0 1 .428-.04.591.591 0 0 0 .606-.14.382.382 0 0 1 .428-.18 1.254 1.254 0 0 1 .362.32.936.936 0 0 0 .089.38.75.75 0 0 0 .406.27l.022.45-.27.04a.856.856 0 0 0-.247.25 1.933 1.933 0 0 1-.473.36 2.663 2.663 0 0 1-.181-.4 2.369 2.369 0 0 0-.292-.48l-.5.03a5.931 5.931 0 0 0-.031.71 8.493 8.493 0 0 1-.092.99l.247.32a4.507 4.507 0 0 1-1.551-.14 18.963 18.963 0 0 1-1.8-.69s-.136-.48-.181-.59-.247-.74-.247-.74l.539-.54c.089-.09.5-.56.5-.56-.3.01-.6 0-.9-.02 0 0 .225-.34.336-.52s.473-.9.473-.9a2.788 2.788 0 0 0-.562.18 4.048 4.048 0 0 1-.472.22s.066-.51.089-.63l.114-.58s-.473.54-.562.67-.2.23-.225.14-.136-1.27-.136-1.27l-.952 1.27-.72-.54a.385.385 0 0 0 .022-.29 1.086 1.086 0 0 0-.159-.18l.406-.3a.321.321 0 0 0 .381-.06c.111-.18-.136-.27-.136-.27l.114-.12a.318.318 0 0 0 .472-.15.335.335 0 0 0-.225-.34l.067-.11q.84-.51-.022-.57l-.089-.13a.331.331 0 0 0 .022-.52.514.514 0 0 0-.539.07l-.045-.07a.28.28 0 0 0-.123-.38.06.06 0 0 0-.035-.02.362.362 0 0 0-.429.25.259.259 0 0 0-.269-.32.339.339 0 0 0-.318.34h-.088a.222.222 0 0 0-.248-.23c-.27-.02-.27.14-.27.14l-.066-.09-.133-.34s-.137.11-.229.18-.517.47-.517.47V.36l-.317.05.066-.32L75.36 0l.045.4-.317-.08-.023 1.19-.587-.45-.345.51-.127-.02a.342.342 0 0 0-.378-.3.033.033 0 0 1-.028.01c-.248 0-.248.34-.248.34h-.082a.354.354 0 0 0-.377-.38.249.249 0 0 0-.184.4h-.089a.368.368 0 0 0-.428-.11c-.248.11-.067.4-.067.4l-.067.02s-.111-.24-.406 0 .067.46.067.46l-.067.08a.274.274 0 0 0-.336.23.32.32 0 0 0 .257.37.374.374 0 0 0 .149-.01l.022.11s-.358.02-.269.32.526.1.526.1a.416.416 0 0 0-.022.32.479.479 0 0 0 .384.12l.317.35q-.061.1-.111.21a.171.171 0 0 0 0 .2.439.439 0 0 0-.27.36c.067.18-.111.16-.317.02a3.355 3.355 0 0 1-.561-.65c-.089-.12-.318-.36-.318-.36a3.43 3.43 0 0 0-.066 1.35c-.233-.15-.459-.3-.676-.47a.762.762 0 0 0-.317-.16 3.479 3.479 0 0 0 .181.58c.088.18.317.77.317.77a3.917 3.917 0 0 0-.451-.21l-.675-.15a1.151 1.151 0 0 0 .225.47c.158.16.606.81.606.81l-.7.11.787.85a2.516 2.516 0 0 1-.115.45c-.044.07-.18.54-.225.66a2.408 2.408 0 0 1-.879.45c-.18.02-.18-.07-.247-.23a2.3 2.3 0 0 0-.317-.61c-.137-.13-.54-.33-.635-.45a2.049 2.049 0 0 1-.114-.49 3.752 3.752 0 0 0-.317-.47.161.161 0 0 1 .2-.25 1.489 1.489 0 0 1 .384.56.912.912 0 0 0 .517.34s-.089-.16-.181-.34a4.47 4.47 0 0 1-.022-.56 4.05 4.05 0 0 0-.429-.43l.181-.38s-.269-.11-.428-.16a1.542 1.542 0 0 1-.451-.29c-.232-.27-.105-.32.381-.14a1.545 1.545 0 0 0 .473-.11 2.932 2.932 0 0 0-.292-.16 1.292 1.292 0 0 1-.359-.38.5.5 0 0 0 .181-.21 1.49 1.49 0 0 1 .137-.24l-.27-.09a2.808 2.808 0 0 1-.561-.21c-.137-.08-.023-.13-.023-.13a2.476 2.476 0 0 0 .384-.05.68.68 0 0 0 .27-.54l-.133-.06a3.354 3.354 0 0 1-.429.18.886.886 0 0 1-.428.02 2.939 2.939 0 0 1-.159-.85 2.32 2.32 0 0 1-.358.22 2.616 2.616 0 0 1-1.079-.02c-.517-.02-.269.02-.384.11a1.029 1.029 0 0 1-.269.16.3.3 0 0 1-.067-.22.565.565 0 0 0-.358-.83.711.711 0 0 0 .044-.39c-.044-.18-.451-.11-.451-.11l-.022-.11a.437.437 0 0 0 .067-.5.422.422 0 0 0-.473.03.413.413 0 0 0-.247-.39.31.31 0 0 0-.27.29l-.247.09a.249.249 0 0 0-.337-.06c-.247.09 0 .45 0 .45l-.114.08a.287.287 0 0 0-.292.14.351.351 0 0 0 .067.38l-.181-.02s-.067-.24-.089-.36-.066-.27-.066-.27l-.067.09c-.067.09-.292.32-.292.32l-.225-.07.317-.67-1.4.7.606.24-.111.3a.982.982 0 0 0-.517-.03.669.669 0 0 0 .225.36h-.27s-.022-.22-.291-.13-.137.24-.137.24l-.181.09q-.228-.225-.5.09c-.247.32.226.36.226.36l-.023.23s-.358.2-.247.36a.288.288 0 0 0 .336.04l.181.11s-.066.23.111.27a.149.149 0 0 0 .192-.07.458.458 0 0 0 .011-.04l.137.06s-.067.18.066.21a.855.855 0 0 0 .226 0s-.248.45-.407.72-.38.9-.45 1.01 0 .2.111.33a1.155 1.155 0 0 0 .358.32c.111.05-.044.12-.066.25a.225.225 0 0 0 .044.2.671.671 0 0 0 .429 1.04 1.616 1.616 0 0 1 .406.22.958.958 0 0 0 .358.36 1.136 1.136 0 0 0 0-.61 1.6 1.6 0 0 0 .359-.27c.044-.06.133-.02.088.14a1.134 1.134 0 0 0-.044.54q.8.285.114.63a2.511 2.511 0 0 0-.7.19 1.512 1.512 0 0 1-.7.47c-.292.04-.317.04-.317.04a.369.369 0 0 0 .181.16.88.88 0 0 0 .742-.07.59.59 0 0 1 .924-.06c-.089.04-.384.16-.451.18a5.005 5.005 0 0 1-.99.4.486.486 0 0 0-.317.25 5.545 5.545 0 0 0 .764.38.665.665 0 0 1-.247.27 2.446 2.446 0 0 0-.584.16 1.18 1.18 0 0 0 .137.27.955.955 0 0 1-.337-.02.577.577 0 0 1-.269-.36s.393-.27.181-1.42a1.865 1.865 0 0 0-1.33-1.69 7.984 7.984 0 0 0-2.633.16c-.225.03.133-.56-.358-.92a1 1 0 0 0-.654 0l-.292-.23a.693.693 0 0 0-.7-.26 3.992 3.992 0 0 0-.742.29 2.772 2.772 0 0 1-1.034-.07.392.392 0 0 0-.318.02 2.008 2.008 0 0 0 .2.52 2.809 2.809 0 0 0 .517.41c.089.02.635-.07.832-.05a.7.7 0 0 1 .131.97.038.038 0 0 0-.02.02 1.273 1.273 0 0 0 .336.65c.114.12.044.19-.225.21a.274.274 0 0 0-.226.33 1.572 1.572 0 0 0-.291-.18.288.288 0 0 0-.292.07l.022-.2a.8.8 0 0 0-.292-.54 1.272 1.272 0 0 1-.45-.48c-.045-.18-.089-.26-.181-.2a.467.467 0 0 0-.067.32l-.089.16-.114-.05.044.3-.114-.03.045.29h-.115a1.567 1.567 0 0 0 .067.27 1.746 1.746 0 0 0 .159.41.526.526 0 0 1 0 .72c-.159.02-.111-.16-.137-.34a1.1 1.1 0 0 0-.653-.72s-.045.16-.111.09a2.024 2.024 0 0 0-.248-.16s-.044.16-.158.03a.3.3 0 0 0-.248-.12l.022.18a.368.368 0 0 1-.2-.06l-.5-.32s.023.2-.088.11a1.525 1.525 0 0 0-.359-.16 1.211 1.211 0 0 0 .137.43 2.724 2.724 0 0 0 .111.34.54.54 0 0 0 .269.21l-.022.08.181.21a.143.143 0 0 0 .019.2l.2.16a.249.249 0 0 0 .137.29.235.235 0 0 0 .225 0q.051.315.406.09v.14a1.4 1.4 0 0 1 .2-.05 1.345 1.345 0 0 0 .428-.18c.3-.15.4-.07.317.23a.265.265 0 0 1-.158.09 1.193 1.193 0 0 0-.562.08c-.136.03-.158.05-.269.07s-.248.05-.318.07a.611.611 0 0 1-.269 0c-.137-.02-.111.09-.111.09a2.467 2.467 0 0 1-.27-.05c-.067-.02 0 .14.067.16a.542.542 0 0 1 .158.2.6.6 0 0 0 .159.21c.254-.06.359.01.317.2-.063.28.2.02.292.04q-.177.33.292.27l.067.14a.292.292 0 0 0 .383.16l.54-.12-.114.16q-.344.675.336.54c.679-.13.158 0 .152.08a.67.67 0 0 1-.742.05l-.111.11a.349.349 0 0 0-.248-.07.308.308 0 0 1-.329.3.2.2 0 0 1-.077-.01 1 1 0 0 0-.136.23.239.239 0 0 0 .044.13l.089.14c-.239.14-.133.22.317.25-.059.21.031.28.27.22.116.14.236.12.358-.04.07.14.167.15.292.04.187-.16.089.21.226.07a.586.586 0 0 1 .247-.25.674.674 0 0 1 .809.34.31.31 0 0 0 .292.09c.089.58.428.57.99.38.136-.05.225.16.089.18s-.787.25-.787.25l.225.69.952-.45-.137-.38a1.861 1.861 0 0 0 .517-.14 1.319 1.319 0 0 0 .27-.6 17.76 17.76 0 0 0 7.088-.72c.5-.14 4.343-1.44 4.59-1.47s.54.25.023.41-1.3.43-1.3.43l-.111.72s.539-.61.675-.72q.486.39-.136 1.08a.288.288 0 0 1-.292.18v.14s.428-.12.654-.2.72-.23.72-.23v-.11s-.359.11-.337.02.159-.81.181-.93a.263.263 0 0 1 .2-.2.5.5 0 0 1 .2.56l.337-.06v-.1l.158-.02.067.16a.468.468 0 0 0 .317.12.865.865 0 0 0 .517-.25.246.246 0 0 1 .248-.11.325.325 0 0 0 .317.13.269.269 0 0 0 .2-.11.446.446 0 0 1 .225-.06c.115-.03.159.27.159.27a.548.548 0 0 1 .72.15c.111.09.27.25.428.41s1.1 1.27 1.1 1.27l.137.58a12.106 12.106 0 0 0-1.552-1.39c-.923-.7-2.788-.12-3.353.04s-5.961 2.07-7.931 2.21-5.556-.14-6.006-.16-2.364-.16-2.811-.21q-.641-.09-1.269-.24l.346.85a76.424 76.424 0 0 0 7.753.49c2.377-.09 2.919.16 7.7-1.41 4.413-1.45 4.375-1.22 5.168-.98a4.666 4.666 0 0 1 1.32.98.256.256 0 1 1-.378.34 2.621 2.621 0 0 0-2.3-.89 8.354 8.354 0 0 0-1.941.7l.263.42a5.22 5.22 0 0 1 2.151-.59 2.4 2.4 0 0 1 1.548.89.751.751 0 0 0 1.152.4 1.5 1.5 0 0 0 .508-1.1 6.3 6.3 0 0 0-.115-.89 3.211 3.211 0 0 0 .736.85l-.114.1a.4.4 0 0 0-.225.19 3 3 0 0 1 .187 1.3l.206.35s.454.02.679.06a1.5 1.5 0 0 0 1.019.06c.358-.19.282-.4.282-.4l.181-.38a14.215 14.215 0 0 0 1.434.41 13.77 13.77 0 0 0 1.7.14.536.536 0 0 0 .454-.42.414.414 0 0 0-.057-.34l.885-.54a1.252 1.252 0 0 0 .507.05 2.041 2.041 0 0 0 .435-.49 1.322 1.322 0 0 0-.057-.52l.317-.25A2 2 0 0 0 81 18.75a1.267 1.267 0 0 0 1.224.15c.321-.28 1.19-1.24 2.151-1a7.531 7.531 0 0 1 1.586.57l.34-.57a5.832 5.832 0 0 0-2.189-.7 3.548 3.548 0 0 0-2.018.96c-.162.22-.812.01-.416-.32s1.637-1.35 2.586-1.17c1.1.2 5.251 1.61 5.711 1.73a43.549 43.549 0 0 0 6.345.95 36.182 36.182 0 0 0 6.979-.49l.8-1.01s-1.53.32-2.199.39zm-16.479-6.32l-.1-.19a.439.439 0 0 1 .317.2.527.527 0 0 1-.1.64 2.029 2.029 0 0 1-.993.25c-.3 0-.317-.77-.254-.79a.588.588 0 0 1 .175.31c.063.11.2.15.659.02s.324-.38.292-.44zm1.269-.9a.366.366 0 0 1 .286.24c.155.32 0 .41-.447.69s-.435.23-.587.15a.9.9 0 0 1-.286-.5 1.476 1.476 0 0 0 .27.16.993.993 0 0 0 .526-.2.476.476 0 0 0 .3-.36 1.148 1.148 0 0 1-.051-.18h-.013zm.257-.16l.111-.1.27.14a6.6 6.6 0 0 0 .508-.6c.079-.14.3-.11.285.13a1.8 1.8 0 0 1-.19.6.476.476 0 0 1-.651.11 1.523 1.523 0 0 1-.32-.29zm5.765 4.32a2.58 2.58 0 0 1-.5.34.634.634 0 0 1-.781-.06.248.248 0 0 1-.127-.16.816.816 0 0 0 .337-.1c.073-.06.111-.13.044-.17a.52.52 0 0 0-.688-.08 1.661 1.661 0 0 1-.584.08c-.209-.02-3.68-1.09-3.753-1.11s.146-.18.146-.18l-.064-.12-.346.18-.171-.13.355-.21-.063-.12-.546.29-.253-.08.634-.32-.108-.08-.891.35-.229-.05.971-.45-.19-.08-1.219.51-.317-.04.317-.18a9.564 9.564 0 0 0 1.041-.47.749.749 0 0 0 .206-.37l.34.11s.53-.3.634-.38.352-.22.352-.22v-.45l.635.08a1.693 1.693 0 0 1 .273-.18.678.678 0 0 1 .2-.03l.035-.43h.222l-.057.46.072.09a.7.7 0 0 1 .061-.2 3.41 3.41 0 0 0 .133-.34l.178.05-.083.32a2.078 2.078 0 0 0-.035.27l.086.04s.105-.28.124-.35a1.359 1.359 0 0 1 .073-.18l.174.07-.073.42a.805.805 0 0 0 0 .17l.089.05.2-.38.133.13-.133.36.044.06s.086-.11.111-.15a.6.6 0 0 1 .1-.11l.124.1-.153.28c-.038.08-.273.5-.336.64l-.174.31-.146-.1a2.686 2.686 0 0 0 .133-.32 1.494 1.494 0 0 0 .051-.18l-.213-.16a.252.252 0 0 0-.111-.05s-.06.42-.073.49a.676.676 0 0 0 0 .09h-.19a1.535 1.535 0 0 0-.029-.81c-.053-.03-.109-.07-.168-.1l-.175.13s.058.25.083.31a.706.706 0 0 1 .029.34c-.029.08-.061.2-.061.2l-.111.02a1.589 1.589 0 0 0-.035-.46c-.05-.1-.066-.17-.089-.2a.331.331 0 0 1-.034-.09l-.264.14a.758.758 0 0 1 0 .48 1.262 1.262 0 0 1-.044.2h-.14a1.95 1.95 0 0 1 0-.61l-.229.13a.454.454 0 0 1-.174.59 1.528 1.528 0 0 1-.286.15 1.218 1.218 0 0 0 .14.17.982.982 0 0 0 .213.12 1.739 1.739 0 0 1 .951-.34 1.271 1.271 0 0 1 .7.41 1.123 1.123 0 0 0 .5.29 11.907 11.907 0 0 0 1.183.39 1.847 1.847 0 0 0 .663 0 2.231 2.231 0 0 1 .5-.18.676.676 0 0 1 .457.24 1.233 1.233 0 0 1 .413.9zm-2.062-1.95c-.038.05-.181.37-.181.37l-.317-.16a4.634 4.634 0 0 0 .317-.54c.054-.13.263-.59.263-.59l.181.2s-.213.66-.251.71zm.39.07c.044-.09.19-.48.19-.48l.146.07-.127.46c-.028.1-.19.45-.19.45l-.2-.05s.149-.37.194-.45h-.013zm-.958-.6c-.079.15-.283.5-.283.5l-.209-.14s.244-.5.317-.66l.245-.54.228.17s-.208.47-.3.67zm3.09 1.85a1.216 1.216 0 0 1-.117-.77.99.99 0 0 1 .3-.26l.254-.09a.1.1 0 0 1 .032.13.042.042 0 0 1 0 .01c-.425.12-.3.38-.035.84a.408.408 0 0 0 .219.17l.191.03s.117.11.028.15-.39.13-.526.18-.261-.01-.353-.39h.01zm.682-.94c0-.04-.4-.8-.419-.85s-.082-.03-.108-.02l-.317.11s-.092.02-.108-.04a.123.123 0 0 1 .019-.1s.346-.12.438-.15a.31.31 0 0 1 .428.12 4.12 4.12 0 0 1 .318.78.344.344 0 0 1-.127.38 1.616 1.616 0 0 0-.21.07l-.073-.1s.146-.08.172-.09a.163.163 0 0 0-.023-.11h.01zm.39 2.17a.187.187 0 0 1-.127.17.2.2 0 0 1-.282-.1.5.5 0 0 1-.025-.57c.126-.16.272-.29.371-.4s.238.08.238.08a.434.434 0 0 1-.137.18.4.4 0 0 0-.136.33 1.455 1.455 0 0 0 .089.31h.009zm.238-.31c-.108.05-.244-.09-.108-.15a.35.35 0 0 0 .146-.41 6.1 6.1 0 0 0-.317-.56.366.366 0 0 1-.273 0l-.035-.13s.165-.08.317-.15a.247.247 0 0 1 .273.02 3.481 3.481 0 0 1 .346.69.4.4 0 0 1 0 .47c-.089.04-.254.16-.362.22h.013zm.444.5a.8.8 0 0 1-.092-.25.106.106 0 0 1 .073-.13.112.112 0 0 1 .118.05 1.71 1.71 0 0 1 .127.29c.034.14-.175.13-.238.04h.012zm2.837-.46a4.583 4.583 0 0 1-.162-.77 3.224 3.224 0 0 0-.127-.64 1.783 1.783 0 0 1 .317.25 1.782 1.782 0 0 0 .162.22 3.749 3.749 0 0 0 .431-.59l.378-.83.054-.05.035.09a3.879 3.879 0 0 1-.089 1.22 2.523 2.523 0 0 1 .987.02 3.577 3.577 0 0 1-.863.72 5.024 5.024 0 0 1-1.136.36h.013zm2.22.7a7.276 7.276 0 0 1-.79-.23 3.232 3.232 0 0 1 .432.48c.108.18.289.52.289.52l-.089.06a8.051 8.051 0 0 0-.682-.64l-.755-.56a11.571 11.571 0 0 0 1.2-.7l.089.07-.251.26.771.57a1.166 1.166 0 0 1 .216.2s-.276-.01-.438-.03h.006zm2.929-1.74a1.536 1.536 0 0 1-.413.52c-.143.09-.52.4-.52.4s.79.52.9.57-.089.25-.181.2-1.269-.61-1.364-.64-.2-.07.089-.25 1.484-.8 1.484-.8h.007zm-2.193.05a10.509 10.509 0 0 1 1.079-.48 1.7 1.7 0 0 1-.4.63c-.286.29-.933.81-.933.81l.485.29.089.32s-.466-.22-.682-.34a1.74 1.74 0 0 0-.539-.18s.054-.18.126-.56.235-1.38.235-1.38l.235 1.11a3.228 3.228 0 0 0 .295-.22h.006zm1.3-2.46l.755-.05s-.574.21-.755.25a5.185 5.185 0 0 0-.663.38c-.124.03-.127-.42-.127-.42a6.919 6.919 0 0 1 .783-.16h.007zm-1.149-.82s.467-.7.559-.9a2.465 2.465 0 0 1 .358-.49s-.127.6-.162.83a2.854 2.854 0 0 1-.25.63c1.121-.19 1.258-.11.412.22q-.7.945-1.348.21a2.785 2.785 0 0 1-.432-.73c-.019-.13-.034-.32-.034-.32zm-2.972.6a2.751 2.751 0 0 0 .054-.57.4.4 0 0 1 .2-.4c.318-.13.54.38.54.38.334-.23.532-.15.593.23a1.043 1.043 0 0 1 .431 0 1.536 1.536 0 0 1 .108.35.588.588 0 0 1 .413.02.531.531 0 0 0 .431.55c.019.13-.162.24-.035.29s.054.27-.162.34a1.279 1.279 0 0 0-.447.38l-.251-.07a1.551 1.551 0 0 1 .216-.27c.073-.06.317-.22.317-.22l-.126-.29a3.208 3.208 0 0 1-.27.29c-.108.09-.451.32-.451.32l-.142-.09s.377-.36.45-.45l.2-.25-.235-.13a.943.943 0 0 1-.143.27l-.4.4-.108-.02a1.44 1.44 0 0 1 .2-.45 1.294 1.294 0 0 0 .177-.46l-.142-.06a2.379 2.379 0 0 1-.2.36 4.359 4.359 0 0 1-.432.47l-.123-.07a4.477 4.477 0 0 1 .215-.44c.073-.1.254-.43.254-.43l-.162-.05s-.18.29-.25.41a2.306 2.306 0 0 1-.283.3l-.161-.04s.142-.29.2-.38.2-.41.2-.41l-.143-.07a2.3 2.3 0 0 1-.108.28 6.176 6.176 0 0 1-.342.58l-.343-.07s.199-.4.257-.53zm-.451.95a1.743 1.743 0 0 1 1.025.52c.07.15-.108.09-.108.09l-.2-.09-.2.25a.323.323 0 0 0-.073.17l-.451.02-.317.25.2-.45-.216-.11-.216.38-.089-.17.054-.41h-.412a1.268 1.268 0 0 1 1-.45zm-.952-2.25a.243.243 0 0 1 .146.11.694.694 0 0 0 .181.15 3.427 3.427 0 0 1 .355.82.891.891 0 0 1 .064.55c-.688.91-.784-1.27-.746-1.19a1.036 1.036 0 0 1-.012-.46zm-3.1 1.16a.64.64 0 0 0 .146-.19 3.075 3.075 0 0 1 .863-.47 1.57 1.57 0 0 1 1.145.32 6.121 6.121 0 0 1 .5 1.73 17.011 17.011 0 0 0 .828 1.87 2.489 2.489 0 0 0 .473.42 1.64 1.64 0 0 0 .127.42c.082.16.59.99.682 1.21s0 .24-.127.17a5.626 5.626 0 0 1-.634-.79c-.038-.07-.181-.09-.137.03s.162.44.219.55.244.54.244.54l-.219-.02a2.282 2.282 0 0 1-.9-.63c-.282-.28-.228-.46-.146-.51s.4-.22.4-.22l-.063-.14a2.567 2.567 0 0 1-.781.09.177.177 0 0 1-.073-.34c.256.03.326-.05.21-.25-.275.06-.423-.03-.444-.28a1.251 1.251 0 0 0 .244-.16l-.083-.23a5.78 5.78 0 0 0-.418-.1c-.156-.02-.156-.16-.083-.21l.317-.17-.063-.35a2.926 2.926 0 0 0-.317.02.151.151 0 0 1-.2-.06.148.148 0 0 1 .059-.2c.073-.06.365-.23.365-.23l-.073-.24a2.587 2.587 0 0 0-.482.02c-.156.04-.165-.09-.118-.17a3.514 3.514 0 0 1 .473-.4l-.035-.18s-.4.18-.574.24-.083-.2 0-.29a3.138 3.138 0 0 1 .561-.33l-.019-.18a7.9 7.9 0 0 1-.971.11.566.566 0 0 1-.4-.41 2.979 2.979 0 0 1-.5.26c-.171.04-.145-.02-.164-.09a.439.439 0 0 1 .158-.17zm-.244.77a.171.171 0 0 0-.21-.11.313.313 0 0 0-.346.38.529.529 0 0 0 .483.42s0 .26-.527.14c-2.2-.56 1.469-1.23.587-.85zm-3.2-7.96c.048-.07.216-.36.286-.46a2.734 2.734 0 0 0 .152-.81.726.726 0 0 1 .146-.36 2.186 2.186 0 0 1 .209-.36.224.224 0 0 1 .042.25 1.038 1.038 0 0 0 .269 1.25.863.863 0 0 1-.035.47 1.273 1.273 0 0 1-.317.45.537.537 0 0 1-.584-.11c-.222-.14-.228-.26-.18-.34zm-.717-2.15a.3.3 0 0 1 .035-.19.4.4 0 0 1 .152-.04 1.326 1.326 0 0 1 .124.32 1.162 1.162 0 0 1-.022.67.414.414 0 0 1-.317-.18.568.568 0 0 1-.14-.28c.013-.09.14-.25.156-.33zm-1.364.31a.319.319 0 0 0-.146-.14c.165.27.119.4-.14.39-.057-.08-.2-.5-.256-.57-.138-.11-.165-.04-.083.18.124.35-.263-.02-.317-.14a2.587 2.587 0 0 1-.13-.4.245.245 0 0 0-.14-.22.494.494 0 0 0 .029.16.16.16 0 0 1-.222.03 1.234 1.234 0 0 1-.222-.42.193.193 0 0 0-.1-.14q.054.255-.244.03a.335.335 0 0 1-.076-.28l-.124.1a.212.212 0 0 1-.181-.15q-.108-.465-.228-.18a.1.1 0 0 1-.133.02.087.087 0 0 1-.035-.05 1.868 1.868 0 0 1-.07-.34c.022-.07 0-.18.089-.06a1.577 1.577 0 0 1 .127.22.2.2 0 0 1 .2 0 2.432 2.432 0 0 1 .2.32.285.285 0 0 1 .291 0 .766.766 0 0 1 .169.25.567.567 0 0 1 .3.04c.047.07.168.34.168.34a.406.406 0 0 1 .349-.03 2.334 2.334 0 0 1 .238.48 1.034 1.034 0 0 1 .419.02 4.781 4.781 0 0 0 .355.41 1.609 1.609 0 0 1 .374.11c.07.06.318.3.343.32a.876.876 0 0 1 .057.07.815.815 0 0 1 .216.07.49.49 0 0 1 .174.25.693.693 0 0 1 .343.1c.057.08.082.4-.1.29a1.024 1.024 0 0 0-.181-.27.648.648 0 0 1-.118.13 1.808 1.808 0 0 1-.317-.09.445.445 0 0 0-.063-.32q-.318-.315-.175.21c0 .04-.168.04-.257-.08s-.333-.58-.39-.69v.03zm-.872 1.52a1.214 1.214 0 0 0 .533.09c.136-.03.555-.37.691-.43a1.259 1.259 0 0 1 .768 0 2.468 2.468 0 0 1 .365.17 1.71 1.71 0 0 0 .2.14.465.465 0 0 1 .117.14 8.915 8.915 0 0 0-1.786.15 1.7 1.7 0 0 1-.635 0 1.1 1.1 0 0 1-.266-.29zM85.584 7.4a2.394 2.394 0 0 1-.161.47 2.813 2.813 0 0 1-1.269.34c-.127.07-.216.11-.181-.04a.6.6 0 0 1 .2-.31 3.712 3.712 0 0 1 .635-.29.758.758 0 0 0 .317-.45l.594-.05s-.092.19-.146.33zm.143-.74a.721.721 0 0 0-.609.15c-.178.19-.251.07-.317-.02a3.943 3.943 0 0 1-.251-.4.19.19 0 0 1 .035-.21.746.746 0 0 1 .251.29.857.857 0 0 0 .466-.13.412.412 0 0 1 .359-.02c.5.22.523.33.066.35v-.01zm1.948-.26a3.222 3.222 0 0 1 .032-.82l-.19-.06a.661.661 0 0 1-.08.31.878.878 0 0 1-.238.34s0-.34-.016-.46a1.154 1.154 0 0 0-.126-.32l-.238.06s.063.7.047.86a.49.49 0 0 1-.206.44c-.3 0-.307-.09-.032-.28a1.226 1.226 0 0 0 0-.41.906.906 0 0 1-.269.34c-.111.04-.2-.72-.318-.57a.776.776 0 0 1-.269.19c-.1.05-.238-.04-.429 0a.782.782 0 0 1-.523 0 .529.529 0 0 1-.317-.42.647.647 0 0 1 .855-.35 1.115 1.115 0 0 0 .254-.42 1.982 1.982 0 0 1 .936.07 1.625 1.625 0 0 0 .539 0 .629.629 0 0 0 .27-.3c.063-.11.174.03.143.09s-.032.16.111.11a.4.4 0 0 0 .174-.17.156.156 0 0 1 .143.06.926.926 0 0 0 .127-.11 1.261 1.261 0 0 1 1.745.32 1.418 1.418 0 0 0 1.158.28.785.785 0 0 1 .317.7 3.489 3.489 0 0 1-.381.87l.159.35a5.3 5.3 0 0 1 .365-.63c.127-.16.285.2.238.35s-.413.87-.413.87l.1.38s.381-.71.445-.79.253.11.206.27-.508 1.27-.508 1.27l.1.41s.413-.84.476-1.02a.138.138 0 0 1 .254.11c-.063.18-.809 1.69-.857 1.78s-.19 0-.206-.05-.079-.58-.079-.58l-.524-.18-.713.32v-.62l.269-.05-.031-.25s-.571 0-.73-.03-.524-.07-.524-.07l-.015-.19a3.952 3.952 0 0 0 .761-.14c.19-.08.761-.43.761-.43v-.28a5.18 5.18 0 0 1-.84.47 3.142 3.142 0 0 1-.968 0v-.24a2.239 2.239 0 0 0 1.713-.65l.238-.71a9.766 9.766 0 0 1-.9.87c-.827.49-1.187.47-1.079-.04a3.89 3.89 0 0 0 1.206-.34 2.526 2.526 0 0 0 .539-.76l-.238-.09a2.124 2.124 0 0 1-.285.5 1.3 1.3 0 0 1-1.126.38 1.249 1.249 0 0 1-1-.53V6.4zm-1.063 2.35v-.57s.587.79.6.86a.589.589 0 0 0 .46-.18 4.432 4.432 0 0 1 .476-.5l.27.17q.008.165 0 .33c0 .11-.048.42-.048.42l.159.11a4.214 4.214 0 0 0 .444-.26c.079-.06.317-.23.317-.23l.222.06.127.98.222.07.778-.46.317.22-.191.73.159.14.793-.21.27.13-.238.71.206.19.841-.23.206.12c-.143.15-.412.34-.539.48a3.152 3.152 0 0 0-.206.25h-.1l-.158.26-.254-.16.254-.35-.159-.06-.206.2-.175-.06a2.82 2.82 0 0 0 .207-.32c.031-.08-.127 0-.191.03-.088.06-.173.13-.254.19l-.1-.08.349-.28-.1-.14-.412.31s-.635-.42-.825-.58a5.8 5.8 0 0 0-.952-.5.594.594 0 0 0-.555-.57.465.465 0 0 1-.228.61l-.089.03c-.127 0-.016-.14-.016-.14s.285-.49-.175-.56a.451.451 0 0 0-.545.33.433.433 0 0 0-.01.16.262.262 0 0 1-.174-.32.823.823 0 0 1 .586-.47l-.079-.21a2.418 2.418 0 0 0-.365.16c-.047.05 0-.19 0-.19l-.206.06a.475.475 0 0 1-.032.19.823.823 0 0 1-.127.13l.048-.28-.19-.11a.928.928 0 0 0-.08.2.822.822 0 0 1-.047.21l.032-.51-.143-.19-.175.51zm0 1.45a.443.443 0 0 1 .6.18.557.557 0 0 1 .035.09v.04l-.064.07a.394.394 0 0 0-.285-.13.916.916 0 0 0-.444.27.445.445 0 0 0-.032.52l-.143.05a1.649 1.649 0 0 1-.174-.46.573.573 0 0 1 .5-.63H86.6zm-.84-.04l.3-.03-.174.38h-.328zm.142.83l.254.35-.222.06a.686.686 0 0 1-.127-.17c0-.07-.079-.05-.19 0a3.608 3.608 0 0 0-.444.2.259.259 0 0 0-.1.19l.1.15-.159.08s-.4-.48-.127-.7a1.379 1.379 0 0 1 .635-.32.46.46 0 0 1 .361.17zm-1.015-.92a.388.388 0 0 1 .524.11c-.032.06-.238.51-.238.51l-.508.24zm-.92.84c.032-.1.032-1 .032-1.08l.349.05q.685.315-.032 1.11l-.381.01zm.539.57a2.589 2.589 0 0 1 .286.54l-.143.03a.477.477 0 0 0-.254-.36 3.006 3.006 0 0 0-.824.27.236.236 0 0 0-.032.31l.063.19-.142.05a.632.632 0 0 1 .126-1.06.959.959 0 0 1 .9.04zm-.951-1.79l.016 1.38-.27.06s-.079-1.41-.1-1.65zm-.381 3.11c.166-.03.33-.07.492-.11a.6.6 0 0 0 .365-.46s.095 0 .126.36a.668.668 0 0 1-.494.66c-.223.1-.476.26-.552.1a.744.744 0 0 1 .044-.56zM49.9 11.99a1.4 1.4 0 0 1-.289 0l.174-.18-.393-.02a.25.25 0 0 1-.219-.06l.244-.18-.254-.06-.152-.03.07-.14c-.2-.03-.244-.09-.149-.2a1.019 1.019 0 0 1-.336-.33.282.282 0 0 1-.07-.27 2.089 2.089 0 0 1 .406.36.647.647 0 0 0 .371.26.461.461 0 0 1 .476.18 1.347 1.347 0 0 1 .7.47 3.19 3.19 0 0 1-.6.21zM69.569 9.7a.336.336 0 0 1 .165.08c.134.06.151.15.051.25-.339.5-.311.07-.238-.32zm-.127 1.32a.7.7 0 0 1 .165-.25c.089.04.064.06 0 .34s-.076.36-.076.36-.152.03-.177-.06a1.265 1.265 0 0 1 .066-.37zM68.107 8.9a.79.79 0 0 1 .517.5c.14.17.39.68.517.8a.582.582 0 0 1 .2.32.8.8 0 0 1-.352-.03.671.671 0 0 1-.39-.23 1.818 1.818 0 0 1-.429-.6.86.86 0 0 1-.088-.74zm1.034 2.25a3.446 3.446 0 0 1-.165.43c-.076.12-.2 0-.165-.11s.14-.41.165-.49a.2.2 0 0 1 .165-.07.256.256 0 0 1-.022.25zm-.7.7a1.245 1.245 0 0 1-.238-.55.646.646 0 0 1 .077-.5 1.984 1.984 0 0 1 .19.36c.025.1.051.34.089.48s-.064.27-.14.23zm-.415.03l.317.22-.14.31-.2-.07zm-.064-1.35a5.593 5.593 0 0 1-.215 1.25c-.013.06-.153 0-.153 0a2.665 2.665 0 0 0-.25-1.18 1.622 1.622 0 0 1-.089-.41.362.362 0 0 1 .228.04 2.5 2.5 0 0 0 .457.31zm-.428-.82a4.376 4.376 0 0 1-.581-.8c-.076-.14-.428-.43-.491-.58a2.406 2.406 0 0 1 .742.22 1.99 1.99 0 0 1 .543.97c.1.42-.023.42-.235.2zm-3.173.5a1.037 1.037 0 0 1-.831-.46 1.207 1.207 0 0 1 .263-1.05.823.823 0 0 0-.253-.56l.127-.34a.85.85 0 0 1 .78.58 1.134 1.134 0 0 1-.038.73 1.18 1.18 0 0 0 .276.73 2.762 2.762 0 0 0 .352.32 1.525 1.525 0 0 1-.7.05h.028zm.216 1.53a8.317 8.317 0 0 1-.606 1.27c-.051.03 0-.74-.051-.87a1.263 1.263 0 0 1-.127-.9 2.558 2.558 0 0 0 .264-.56c.025-.15.051-.26.051-.26h.2a4.136 4.136 0 0 0 .127.62 2.151 2.151 0 0 1 .111.71zm1.11-2.71a1.584 1.584 0 0 1-.555-.19.518.518 0 0 1-.276-.42 2.611 2.611 0 0 0-.618-.79 3.419 3.419 0 0 0-.619-.24v-.25a2.713 2.713 0 0 1 .4-.18 1.2 1.2 0 0 1 1.047 1.13.875.875 0 0 0 .39.49c.127.12.311.48.2.46zm.039.77a4.754 4.754 0 0 0 .253.77q.077.72-.215.12a3.916 3.916 0 0 0-.568-.66 1.67 1.67 0 0 1-.4-.72 1.1 1.1 0 0 1 .025-.35 2.985 2.985 0 0 0 .492.29 1.586 1.586 0 0 1 .352.17 3.424 3.424 0 0 0 .035.39zm-.318.91a1.334 1.334 0 0 1 .568.62 1.1 1.1 0 0 1 .038.72.38.38 0 0 1-.339-.26c-.124-.2-.441-.64-.517-.8a2.951 2.951 0 0 1-.264-.57 3.564 3.564 0 0 0 .5.3zm.594-1.78a1.361 1.361 0 0 0-.289-.46c-.137-.23-.378-.58-.378-.58a2.746 2.746 0 0 1 .87.5.454.454 0 0 1 .165.34 1.609 1.609 0 0 1 .352.32 5.526 5.526 0 0 1-.038.97 3.9 3.9 0 0 1-.318-.34 2.4 2.4 0 0 1-.387-.74zm.707 1.53q.888.36 0 1.35c-.038.1-.2.05-.216 0a4.794 4.794 0 0 0-.076-.78 2.882 2.882 0 0 0-.216-.67.74.74 0 0 1-.088-.27 2.619 2.619 0 0 0 .577.38zm.92-2.45c.064.17.064.6-.025.44a1.529 1.529 0 0 0-.416-.46c-.152-.1-.53-.23-.72-.35a.87.87 0 0 1-.165-.78 1.926 1.926 0 0 1 .635.35.4.4 0 0 1 .288.18 4.055 4.055 0 0 1 .387.65zm-.428-1.82a.734.734 0 0 0 .568.27c.238.03 0 .19-.229.23a2.014 2.014 0 0 1-1-.19 3.027 3.027 0 0 1-.882-.72 5.936 5.936 0 0 1-.428-.48 2.53 2.53 0 0 1 1.948.9zm-2.256-2.11c.026-.09 0-.27.026-.38a1.265 1.265 0 0 1 1.322.13c.178.09.165.19-.025.25q-.306.06-.619.09a3.718 3.718 0 0 1-.732.19c-.207-.02-.016-.18.009-.27zm0 .53a6.254 6.254 0 0 1 1.047-.24 1.407 1.407 0 0 1 .869.22 3.541 3.541 0 0 0 .721.15c.063 0 0 .08-.264.22a2.137 2.137 0 0 1-1.716-.08 6.613 6.613 0 0 1-.844-.13c-.016-.1.016-.03.155-.13zm-.733-1.56a.412.412 0 0 1-.377.21c-.127-.04 0-.26-.026-.38s-.228-.06-.276.1a.8.8 0 0 1-.352.4 1.136 1.136 0 0 1-.276.11 2.054 2.054 0 0 0-.038-.32.432.432 0 0 1 .038-.21 1.348 1.348 0 0 0 .378-.23c.336-.42.636-.31.9.32h.028zm-1.4-.42a1.144 1.144 0 0 1-.225.22.275.275 0 0 0-.165-.2.523.523 0 0 0-.229.22s-.1-.08.076-.38a.843.843 0 0 1 .53-.5c.183.06.065.52.001.64zm-1.034-.7a.142.142 0 0 1 .192-.01c0 .01.007.01.011.01l.2-.24s-.19-.29-.063-.35.228.18.228.18l.378-.11s-.026-.31.19-.31.026.31.026.31l.253.09s.14-.19.264-.03-.14.26-.14.26l.076.18a.981.981 0 0 1 .026.15c.45.13.437.19-.038.19l-.318.19a1.22 1.22 0 0 0 .1-.24.439.439 0 0 0-.229-.49.758.758 0 0 0-.606.28 2.323 2.323 0 0 0-.491.73.255.255 0 0 1-.1-.24.479.479 0 0 1 .14-.29.337.337 0 0 1-.108-.26h.013zm-1.212.25a.408.408 0 0 1 .491.21.34.34 0 0 1-.076.48.011.011 0 0 1-.012.01.363.363 0 0 1-.556-.1.46.46 0 0 1 .143-.61zM58.84 3.56a.746.746 0 0 1 .818-.55 1.554 1.554 0 0 1 .67.16v.23a2.378 2.378 0 0 0-.92-.05.472.472 0 0 0-.23.63 5.352 5.352 0 0 0 .635.45s-1.3-.28-.984-.87h.01zm1.161.26c.076.14-.051.28-.228.34a.411.411 0 0 1-.433-.37.406.406 0 0 1 .017-.15c.076-.37.707-.06.806 0-.01-.02-.251.03-.175.17zm.317 4.52c-.076.14-.289.13-.657-.12a.387.387 0 0 1-.165-.58.538.538 0 0 1 .378.05.917.917 0 0 1 .352.15.417.417 0 0 1 .089.51zm.984.55c-.216-.09-.127-.46 0-.42a1.331 1.331 0 0 0 .72-.34 1.241 1.241 0 0 0 .7-.92 2.414 2.414 0 0 0-.365-.89c-.064-.09-.416-.07-.317.15a.828.828 0 0 1 0 .6 3.488 3.488 0 0 1-.895.82.493.493 0 0 1-.67-.19.88.88 0 0 1 .178-.63.573.573 0 0 1 .378-.22.409.409 0 0 0 .228-.39 1.355 1.355 0 0 0-.606-.19 1.93 1.93 0 0 0-.415.05v.13c.932.06.78-.02-.229.32a1.633 1.633 0 0 0-.517.42s.076-.46.1-.55a1.161 1.161 0 0 1 .191-.39c.089-.09.1-.25-.026-.18s-.634.27-.634.27.377-.77.5-.95a2.152 2.152 0 0 1 .4-.39.316.316 0 0 0-.025-.12c-.025-.05.216-.25.276-.44a1.186 1.186 0 0 0-.152-.63.741.741 0 0 1 .466.21.384.384 0 0 1 .114.32l.127-.03a.923.923 0 0 1 .038-.17 1.482 1.482 0 0 0 0-.47 4.069 4.069 0 0 1-.25-.49c.012-.09.228-.05.415.06a.625.625 0 0 1 .289.46 1.548 1.548 0 0 1-.089.5l.2-.03a1.872 1.872 0 0 1 .051-.35 2.565 2.565 0 0 0 .114-.43q-.47-.87.228-.39a1.176 1.176 0 0 1 .089.81 1.2 1.2 0 0 1-.2.42l.1.03.466-.68a1.759 1.759 0 0 0 0-.58c.026-.09.114-.21.216-.08a2.081 2.081 0 0 1 .076.87 2.648 2.648 0 0 1-.4.58h.178a1 1 0 0 1 .127-.24 1.163 1.163 0 0 1 .4-.31c.19-.11.542-.13.634-.19a.69.69 0 0 1 .216-.23c.1-.01.076.17 0 .43a.7.7 0 0 1-.428.36c-.175.14-.635.43-.635.43l.2.19s.428-.37.635-.51a3.3 3.3 0 0 1 .618-.24 1.263 1.263 0 0 0 .318-.51c.063-.11.19.07.225.17a.75.75 0 0 1 0 .42 1.549 1.549 0 0 1-.581.63c-.165.11-.818.45-.818.45l.114.23a2.017 2.017 0 0 1 .806-.39 1.2 1.2 0 0 1 1.1.86 2.145 2.145 0 0 0 .73.74.086.086 0 0 1 0 .17.517.517 0 0 1-.454-.12 7.973 7.973 0 0 0-1.085-.72c-.165-.02-.742-.02-.742-.02l.1.22a.837.837 0 0 1 .415-.04 1.4 1.4 0 0 1 .7.6 5.814 5.814 0 0 0 .635.68.4.4 0 0 1 .2.15.485.485 0 0 1-.416-.04c-.187-.07-.634-.5-.951-.69a.773.773 0 0 0-.7 0l-.165.05a1.5 1.5 0 0 1-.089-.28 3.235 3.235 0 0 0-.73-.95c-.165-.1-.441-.09-.279.03a3.3 3.3 0 0 1 .781 1.42 3.216 3.216 0 0 1-.882 1.49 1.368 1.368 0 0 1-1.069.27zm.415-1.21l.264-.22v.58zm1.234 2.53a.632.632 0 0 1 .026.5 1.579 1.579 0 0 1-.479.37.854.854 0 0 0 .038-.54 1.3 1.3 0 0 1 .038-1.27 2.219 2.219 0 0 1 .806-.55c-.051.1-.226.62-.318.82a1.339 1.339 0 0 0-.111.67zm-1.526 2.66a2.44 2.44 0 0 1-.593.17 1.012 1.012 0 0 1 .317-.49 2.331 2.331 0 0 1 .416-.42 4.648 4.648 0 0 0 .416-.48.826.826 0 0 1 .263-.24.187.187 0 0 1 .178 0 1.657 1.657 0 0 1-.318.73 2.5 2.5 0 0 1-.679.74v-.01zm.089 1.02a1.036 1.036 0 0 1 .241-.63 1.058 1.058 0 0 1-.241.64v-.01zm-1.462-.23c.025-.09.263-.46.317-.56a.334.334 0 0 1 .165-.15.115.115 0 0 1 .042.16.228.228 0 0 1-.017.03 5.968 5.968 0 0 1-.352.62c-.105.1-.181-.01-.155-.1zm-.1-.47a.138.138 0 0 1-.167-.1.154.154 0 0 1 .04-.14 1.2 1.2 0 0 1 .318-.36.788.788 0 0 1 .4-.04.322.322 0 0 1-.19.23 5.448 5.448 0 0 1-.4.41h-.007zm.635.34q.431-.27.215.15a.613.613 0 0 0-.19.28c-.264-.05-.271-.19-.019-.43h-.006zm.555.2c.063-.11.127-.24.2-.2a.155.155 0 0 1 .028.22.384.384 0 0 1-.028.03 1.181 1.181 0 0 0-.276.42c0 .11-.229.21-.2.03a1.717 1.717 0 0 1 .285-.48zm0-3.83c.051-.03.428-.17.53-.23a1.048 1.048 0 0 0 .139-.32l.467.07-.051.26a.774.774 0 0 1-.793.35c-.225-.05-.333-.09-.283-.13h-.009zm-1.174 1.15l.035-.02a3.073 3.073 0 0 0 1.088-.44 1.048 1.048 0 0 1 .517-.19.67.67 0 0 1 .238.08 1.878 1.878 0 0 1-.618.62 1.478 1.478 0 0 1-1.25-.05h-.01zm-.076.92a1.1 1.1 0 0 0 .415-.22 7.913 7.913 0 0 1 .952-.29 3.843 3.843 0 0 0 .708-.39.6.6 0 0 1 0 .26 1.827 1.827 0 0 1-.933.9 2.478 2.478 0 0 1-1.4-.13c-.251-.13.117-.11.266-.13h-.009zm-.229.44c.105.05-.126.34-.19.31s.1-.36.2-.31h-.023zm-7.35-4.44a3.088 3.088 0 0 1 1-.2 1.162 1.162 0 0 1 .9.74c.127.52.231.87.231.87l.219-.05a2.776 2.776 0 0 1-.092-.36 5.366 5.366 0 0 1-.117-.53 1.216 1.216 0 0 0-.2-.39.608.608 0 0 1 .441.38 5.513 5.513 0 0 1 .149.76c0 .06.127.05.318-.1a3.048 3.048 0 0 1 1.307-.28 2.556 2.556 0 0 1 1.713.28 2.249 2.249 0 0 1 .634 1.64c-.047.2-.406.56-.317.28a2.231 2.231 0 0 0-.139-1.11 1.214 1.214 0 0 0-1.019-.74 8.217 8.217 0 0 0-2.037.22 5.372 5.372 0 0 1-1.088.7c-.52.15-.869-.55-.787-.96a1.123 1.123 0 0 0-.127-.92 1.565 1.565 0 0 0-1.018-.2zm4.549 3.77a2.862 2.862 0 0 0-1.269-.18 1.836 1.836 0 0 0-.752.75l-.035-.57a1.435 1.435 0 0 1 .613-.43 1.648 1.648 0 0 1 .983 0 2.236 2.236 0 0 1 .52.37zm.022.34s-.97.78-1.215.99a.422.422 0 0 1-.577-.57c.257-.44.476-.8.971-.64a6.152 6.152 0 0 0 .834.23zm-.8-1.06a2.809 2.809 0 0 0-.952.17l-.317.19-.289-.13a.166.166 0 0 0 .083-.18c-.045-.09-.245-.37-.245-.37a.642.642 0 0 0 .578-.14c.209-.22.371-.68.45-.71a5.6 5.6 0 0 1 1.954-.34 1.19 1.19 0 0 1 .914 1.16.638.638 0 0 1-.66.72c-.428-.05-1.272-.34-1.5-.37h-.013zm-1.342 3.42v.52h-.057a.417.417 0 0 1-.07-.15c-.129 0-.167.07-.114.2H54.4q-.27-1.98.951-.66a.909.909 0 0 1-.279.36c.051-.03-.355-.48-.326-.26zm-.8-1.05a.47.47 0 0 1-.3-.1 5.982 5.982 0 0 1-.577-.35l.149-.25h.634c.2-.31.035-.38-.485-.24l.035-.17s.577-.13.634-.12.162-.26.057-.24a3.354 3.354 0 0 0-.5.12 1.685 1.685 0 0 1-.219.08l.118-.15a2.231 2.231 0 0 0 .5-.18.852.852 0 0 1 .52-.31.7.7 0 0 1 .092.73 2.245 2.245 0 0 1-.644 1.19zm-.33 1.05a1.356 1.356 0 0 1-.082.39.128.128 0 0 1-.127.05c.393-1.25-.194 0-.317-.33a.335.335 0 0 1 .406-.42.829.829 0 0 1 .66.57.511.511 0 0 1 0 .33 1.445 1.445 0 0 1-.359.03.417.417 0 0 0-.193-.62zm-.45-2.2c.184.05.07.41-.14.34s.01-.37.137-.34zm-.232-.44c.14-.16.416.08.245.23s-.34-.12-.248-.23zm0-2.22a2.329 2.329 0 0 1 .092-.8.336.336 0 0 0-.346-.41 2.023 2.023 0 0 1-.913-.09c-.394-.12-.317-.19-.346-.31v-.04a2.143 2.143 0 0 0 .428.14 2.4 2.4 0 0 0 .8.07.391.391 0 0 1 .406.14 1.14 1.14 0 0 1 .057.88 1.327 1.327 0 0 0 .209.76l-.149.09s-.19-.33-.231-.43h-.007zm.14.89a1 1 0 0 1 .739.07 1.935 1.935 0 0 1 .485.39c.07.12.14.24-.114.39s-.6.42-.672.46a.082.082 0 0 1-.1-.03v-.01a2.77 2.77 0 0 0 .317-.39c.048-.1.07-.15.07-.15l-.209-.09a5.538 5.538 0 0 1-.267.52c-.057.07-.139.07-.105-.02s.245-.59.245-.59l-.254.02a2.209 2.209 0 0 1-.048.32 1.739 1.739 0 0 0-.057.24h-.092l.035-.5-.149.14-.035.38a.209.209 0 0 1-.139.05.95.95 0 0 1 .361-1.2h-.006zm-.162 1.74c0 .22-.3.14-.279-.06.032-.1.285-.26.285.06H52.9zm-.254.34c.162-.09.289.23.14.29s-.26-.21-.133-.29h-.007zm-.035.48c.023.15-.358.29-.345 0s.33-.15.352 0h-.007zm-.891.21c.162-.03.279.39-.022.36s-.121-.32.028-.35zm-.2-.54c-.127 0-.162-.29 0-.3s.133.29.007.3h-.007zm.463-.1c-.127.15-.3.03-.219-.13.051-.09.353-.02.226.13h-.007zm.032-.44c.035-.11.346.02.184.15s-.237-.03-.193-.15zm-.219.11c-.139.09-.212-.1-.057-.19.089-.06.194.11.054.19zm-.057.57c.117-.12.381 0 .219.18a.143.143 0 1 1-.222-.18zm.394.27c.139-.02.149.29-.048.26s-.165-.23.044-.26zm.092-.32c-.15-.02-.185-.24 0-.25s.145.28 0 .25zm.317-.38c-.083.15-.283 0-.232-.12s.317-.03.235.12zm-.254-.3c-.184-.07.07-.32.2-.27s-.01.34-.194.27zm-.52-1.02a.442.442 0 0 1 .38-.32.362.362 0 0 1 .318.44c-.054.28-.08.5-.184.43s-.3-.17-.3-.17a.288.288 0 0 0-.057.14 2.417 2.417 0 0 1 .244.17c.048.05-.079.21-.174.19s-.2-.2-.3-.25a.279.279 0 0 0-.245.07.317.317 0 0 1 .149.11.36.36 0 0 1-.428.15.445.445 0 0 1 .032-.63v-.01a4.6 4.6 0 0 0 .568-.32zm-.927-.69a4.028 4.028 0 0 1 .245-.91c0 .16.209.87.253 1.12s0 .47-.127.48a.7.7 0 0 1-.368-.69zm-.821 3.1a.315.315 0 0 1 0-.23.7.7 0 0 1-.289 0c-.114-.05.047-.12.047-.12a1.658 1.658 0 0 1-.542-.16.075.075 0 0 1 .07-.08l-.162-.13a1.134 1.134 0 0 1 1.377.28 2.814 2.814 0 0 1-.5.44zm.441.28c-.162-.02-.092-.16-.07-.28a2.051 2.051 0 0 1 .406-.51.51.51 0 0 0 0-.37.234.234 0 0 1 .114-.25h.463a1.1 1.1 0 0 0-.022.28.392.392 0 0 0 .209.24.275.275 0 0 0-.047.12.2.2 0 0 0 .07.15l-.118.15a.2.2 0 0 0-.022.15s-.209.12-.3.16a1.8 1.8 0 0 1-.682.16zm1.608 1.2a.873.873 0 0 1 0 .36c-.048.13-.149 0-.149 0a.483.483 0 0 1-.07.22c-.07.11-.184 0-.184 0a1.348 1.348 0 0 1-.346.33c-.1.02-.047-.15-.047-.15a.538.538 0 0 1-.2.13c-.092.02-.105-.13-.105-.13a1.614 1.614 0 0 1-.371.11c-.174.02-.139-.12-.139-.2l.729-.39c.149-.08.809-.52.892-.57s.219.05.184.09a2.068 2.068 0 0 1-.2.2zm-.149-.66a.735.735 0 0 1-.879-.05 4.822 4.822 0 0 1 .451-.53h.279l-.184.35.317-.1s.035-.22.048-.26c.211-.08.281-.01.209.22h.232l-.057-.45c-.009-.07.184-.17.2-.1s.057.36.057.36l.232-.13-.162-.4.127-.19a.288.288 0 0 1 .184.05 1.423 1.423 0 0 0 .244.16.51.51 0 0 1 .105.2.435.435 0 0 1 .092.21.2.2 0 0 1 .083.19 1.359 1.359 0 0 1-.591.3 1.292 1.292 0 0 1-.317.13 2.972 2.972 0 0 1-.666.04zm.542.82a.993.993 0 0 1 .533-.39.9.9 0 0 0 .407.37 3.138 3.138 0 0 0 .6.15s-.672.37-.9.46a.683.683 0 0 1-.638-.59zm1.425 1.07a2.28 2.28 0 0 1-.546.38.285.285 0 0 1-.288-.42.915.915 0 0 1 .694-.45.683.683 0 0 0 .318-.09l.092-.08a1.31 1.31 0 0 1-.27.66zm.634.38c-.184.15-.485.35-.567.03a1.042 1.042 0 0 1 .253-.63l.083-.41.139-.07a.631.631 0 0 0 .175.43.456.456 0 0 1-.048.64.055.055 0 0 0-.031.02zm.752-.57c.372.06-1.684-.88.318-.15.126.05.066.21-.314.15zm.28-.68a.873.873 0 0 1-.708 0 .778.778 0 0 0-.3-.05 3.521 3.521 0 0 0 .834-.69c.083-.21.416-.09.485.07a.531.531 0 0 1-.31.66v.01zm4.441.33c-.244.07-1.04.19-1.04.19l.567-.51-.057-.15q-.616.33-1.269.6c-.336.11-.358-.02-.254-.13s1.181-.87 1.181-.87l-.048-.17a9.043 9.043 0 0 0-1.237.48c-.267.17-.984.55-1.076.63a3.283 3.283 0 0 1 .66-.82 10.7 10.7 0 0 1 1.364-.83l-.1-.19a7.119 7.119 0 0 0-1.238.58 9.83 9.83 0 0 0-1.3.95 2.666 2.666 0 0 1 .7-1.08c.368-.27 1.526-.95 1.526-.95l-.149-.15s-1.269.58-1.494.75a1.825 1.825 0 0 1-.765.38 4.051 4.051 0 0 1 .869-.87c.245-.14.952-.61.952-.61l-.047-.16a8.569 8.569 0 0 0-1.269.64 1.385 1.385 0 0 1-1.7.19.764.764 0 0 1 .022-1.06s-.149.99.406 1.05 3.094-2.85 3.6-1.31a4.133 4.133 0 0 0 2.744 2.99zm1.834-1.47c-.026.07-.127.31-.165.39s-.064.14-.152.1 0-.14 0-.21a3.437 3.437 0 0 1 .152-.39c.025-.07.089-.2.187-.15s0 .18-.032.26h.01zm.139-.92a1.31 1.31 0 0 1 .039-.5c.063-.1.634-1.19.682-1.31a1.742 1.742 0 0 1 .39-.53.609.609 0 0 0 .216-.34.9.9 0 0 1 .228-.27c.165.02.152.25.089.44a3.457 3.457 0 0 1-.378 1.58 5.044 5.044 0 0 0-.758.55c-.063.08-.263.46-.317.51a.145.145 0 0 1-.2-.13h.009zm.264 1.23c0 .08-.038.22-.14.19s-.063-.12-.051-.19a.2.2 0 0 1 .115-.11c.092-.02.069.04.069.11h.007zm7.414-.32a.723.723 0 0 1-.216.29c-.1.14-.139-.06-.076-.15a.554.554 0 0 0 .152-.24c.013-.1-.088-.22-.139-.13a.279.279 0 0 1-.178.13.464.464 0 0 1 .114-.23c.051-.07.089-.31 0-.23a.413.413 0 0 1-.19.14.65.65 0 0 1 0-.23 1.979 1.979 0 0 0-.216-.09 1.341 1.341 0 0 0-.317-.22c-.114-.05-.254.08-.165.12a1.772 1.772 0 0 1 .428.44 1.025 1.025 0 0 1 .165.65.685.685 0 0 1-.215.32.1.1 0 0 1-.064-.14 1.857 1.857 0 0 0 .1-.35c0-.09-.089.04-.127.11a.143.143 0 0 1-.127.08 1.223 1.223 0 0 0 .139-.32c.026-.12-.063-.18-.1-.11a.393.393 0 0 1-.165.15c-.063.03.025-.15.051-.22a.445.445 0 0 0 .025-.15s-.292-.11-.428-.15c-.349-.26-.455-.24-.317.05a1.034 1.034 0 0 1 .288 1.25.193.193 0 0 1-.2.06 2.849 2.849 0 0 0 .089-.43c.025-.21-.038-.2-.063-.16a.546.546 0 0 1-.216.22l-.089.03a.322.322 0 0 0 .032-.45l-.032-.03a.266.266 0 0 1-.19.16l-.089.06a.324.324 0 0 0 .056-.45c-.006-.01-.012-.01-.018-.02a.13.13 0 0 1-.152-.1.1.1 0 0 1 0-.05c.025-.09-.2-.03-.127-.21a.687.687 0 0 1 .215-.26 2.553 2.553 0 0 0-.672.1 3.739 3.739 0 0 1-.72.29c-.216.04-.165-.13-.038-.22l.517-.36a.459.459 0 0 0-.229-.05 3.9 3.9 0 0 0-.793.36c-.216.14-.634.44-.856.57a1.429 1.429 0 0 1-.492.16c-.152.04.127-.22.251-.32a7.185 7.185 0 0 0 .634-.58c.105-.11-.127-.02-.216.05s-1.009.78-1.148.87a2.4 2.4 0 0 1-.555.32.386.386 0 0 1-.429-.08 1.375 1.375 0 0 1 .28-.36 10.619 10.619 0 0 1 .843-.69c.038-.03-.025-.09-.126-.05s-.743.54-.87.58a.615.615 0 0 1-.415-.12c-.115-.07-.127-.21.038-.31s.831-.61.971-.72a2.169 2.169 0 0 1 .317-.34.632.632 0 0 1 .152.39c.038.24.051.41.051.41h.263a2.949 2.949 0 0 1 .4-.73.84.84 0 0 0 .365-.48c.108-.65.31-.61.606.13.152.08 2.144.38 2.509.45a3.069 3.069 0 0 1 1.4.72 2.268 2.268 0 0 1 .315.88zm.063-.67a1.663 1.663 0 0 1-.215-.37.9.9 0 0 1-.635-1.33.434.434 0 0 1 .178.25c.076.15.178 0 .263-.14a.343.343 0 0 1 .165-.22c.076-.01.076 0 .165.08a1.2 1.2 0 0 1 .178.17 8.491 8.491 0 0 0 .165 1.59c.006.07-.191.06-.273-.02zM82.787 7.4l-.466.04-.108-.2h.79zm-.555-1.27l1.133-.63-.2.36-.933.41zm.019.29l.755-.32-.234.32-.575.13zm1.079.49l-.2.21-1.094-.13-.127-.16zm-1.564-2.54l.143 1.99-.181.27-.143-1.99zm-.343.57l-.035.9-.161-.14-.02-.58zm-.1-2.35a.169.169 0 0 1-.333 0c-.01-.15.324-.23.324-.01zm-.634-.76c.111-.08.368.1.222.24s-.359-.16-.222-.25v.01zm-.568-.4c.088-.08.355.04.19.2s-.327-.09-.19-.21v.01zm-.413.06a.151.151 0 0 1-.3 0c-.01-.17.292-.21.3-.02zm-.657.13a.147.147 0 0 1-.122.17.154.154 0 0 1-.166-.12c-.045-.2.279-.22.292-.07zm1.371.41a1.1 1.1 0 0 1 .079 1.51 6.691 6.691 0 0 1-.923.71l-.155-.1a3.246 3.246 0 0 0 .834-.92.736.736 0 0 0-.857-.88 5.422 5.422 0 0 0-1.246.38l-.045-.08s.225-.28.378-.44a1.661 1.661 0 0 1 1.935-.2v.02zm-4.029 1.75a6.225 6.225 0 0 1 3.239.78.217.217 0 0 1 .091.29.21.21 0 0 1-.215.11 5.1 5.1 0 0 0-3.128-.8 5.641 5.641 0 0 0-2.938.83c-.5.27-.612-.21-.444-.29a6.54 6.54 0 0 1 3.395-.93v.01zm-3.15-.2a.656.656 0 0 1 .612-.85c.657-.12 1.136.96 1.136.96s-.413.17-.847.31a.782.782 0 0 1-.9-.43v.01zm3.172-2.01a.5.5 0 0 1 .6.5h-1.18a.6.6 0 0 1 .567-.52zm-.044-.53c.333 0 .422.43.044.43s-.377-.43-.057-.44zm.479 1.75l-.245-.02c-.076-.23-.18-.21-.288 0l-.257.03a1.248 1.248 0 0 1-.089-.24c-.032-.13-.111-.27 0-.27.5-.24.826-.15.98.26a.851.851 0 0 1-.114.23zm.066.76c-.3.02-.9 0-.9 0 .239-.77.535-.78.889-.02zm1.035.07s.434-.64.6-.81a.678.678 0 0 1 1 .43.572.572 0 0 1-.781.67 6.185 6.185 0 0 1-.831-.32zm-.422-1.37a3.522 3.522 0 0 1 .913-.94l.134.56s0 .08-.067.03q-.056-.06-.1-.12a2.487 2.487 0 0 0-.713.76c-.086.19-.435 1.03-.435 1.03h-.124a2.928 2.928 0 0 1 .381-1.34zm-.146-.73l-.581-.23.022-.11.581-.46zM77.104.33l-.48.56a.459.459 0 0 0-.222-.1.592.592 0 0 0-.288.08l-.413-.64zm-1.66.35l.533.43v.13l-.59.21zm-1.123 1.07q.094-.225.213-.45a2.928 2.928 0 0 1 .856.84 4.29 4.29 0 0 1 .435 1.44h-.146s-.46-1.09-.59-1.31a.717.717 0 0 0-.555-.47.277.277 0 0 0-.124.07c-.054.05-.133-.03-.1-.14zm-.7-.32c.044-.11.346-.08.257.13s-.358.07-.266-.15zm-.466.03c.066.22-.289.32-.318.02a.171.171 0 0 1 .2-.12.167.167 0 0 1 .107.08zm-.578.25a.177.177 0 1 1-.316.16.2.2 0 0 1-.017-.05c-.136-.26.254-.29.321-.13zm-.951 1.15a.126.126 0 0 1 .022-.25c.19.03.168.26-.032.23zm.111-.65c-.156-.17.2-.39.333-.17s-.127.37-.34.15zm.288.95a1.351 1.351 0 0 1 1.269-1.34 1.585 1.585 0 0 1 1.2.32l.488.58-.044.07a2.535 2.535 0 0 0-1.77-.36.738.738 0 0 0-.578 1.04 2.613 2.613 0 0 0 .79.82l-.155.09a2.433 2.433 0 0 1-1.222-1.24zm-.317 2l.155.25-.066.53-.178.2zm-.5-.61l.317.44-.146 1.34-.222-.07zm-1.491 1.57l1.557.48-.111.17-1.3-.43zm.444.67l-.133-.19.98.29-.111.17zm.035.81l-.178-.19.825-.16-.089.2zm-.061 5.64a.372.372 0 0 1-.069-.17 1.36 1.36 0 0 1 .069-.53 3.333 3.333 0 0 1 .6-.31.207.207 0 0 1 .273.02.888.888 0 0 1 .13.31.931.931 0 0 1-.584.37 1.528 1.528 0 0 0-.425.32zm.514 1.62a1.559 1.559 0 0 1-.2-1.31.633.633 0 0 1 .149.34c.028.11.05.17.05.17l1.809-.63a5.974 5.974 0 0 1 .041-.79c.041-.12.1-.11.111-.06s.051.71.111.93a5.463 5.463 0 0 0 .441.77.368.368 0 0 1 .092.24 5.5 5.5 0 0 1-.412-.1l-1.469.59a.358.358 0 0 1 .079.25 1.538 1.538 0 0 1-.806-.39zm.654-1.76c.028 0 0 .37.362.2.492-.6.533-.54.12.2-.431.14-.584-.05-.593-.17a.3.3 0 0 1 .108-.22zm0-1.08a.641.641 0 0 1 .232.32c.11.2.211.4.3.61.032.1-.292.28-.352.16a1.821 1.821 0 0 1-.153-.47 1 1 0 0 1-.031-.61zm.542 3.97a.524.524 0 0 1-.713-.25c-.08-.13.069-.24.26-.34s1.586-.64 1.678-.66a3.9 3.9 0 0 0 .514-.13.913.913 0 0 0-.1-.53 3.8 3.8 0 0 0-.26-.42.261.261 0 0 1-.273-.08c-.072-.13.112-.19.112-.19a2.016 2.016 0 0 1-.07-.81c-.159-.43-.476-.46-.952-.12-.1.02-.213.03-.232-.04s-.1-.16-.111-.23a.245.245 0 0 1 .019-.19 2.824 2.824 0 0 1 .635-.2.753.753 0 0 1 .806.17 1.573 1.573 0 0 0 .634 1.87 1.679 1.679 0 0 1 .222 1.01c-.038.42-1.665 1.01-2.17 1.15zm6.7-2.1c-.032 0-.019.02-.051.07a.382.382 0 0 0-.092.12 1.63 1.63 0 0 0-.441.02l.028-.08a.668.668 0 0 1 .318-.05c.1-.01.028-.09-.061-.11a.972.972 0 0 0-.241 0 1.165 1.165 0 0 0-.2.12c-.1.03-.25 0-.317.03-.091.09-.177.18-.26.27-.07 0-.07-.04-.041-.12a1.447 1.447 0 0 0 .139-.25.424.424 0 0 0-.38 0 .093.093 0 0 1-.121-.02c-.019-.04.051-.08.14-.12a4.9 4.9 0 0 1 .542-.02c.092-.02.092-.06.092-.06a.324.324 0 0 1-.139-.14.105.105 0 0 1 .041-.14c.012 0 .025-.01.038-.01a.151.151 0 0 1 .079.07c.01.04.092 0 .1-.03s0-.06.1 0 .019.25.1.28a1.043 1.043 0 0 0 .431 0c.061-.03.149-.1.089-.12-.119-.02-.24-.04-.362-.05q0-.39.553.03a.121.121 0 0 1-.131.15.05.05 0 0 0 0 .1.62.62 0 0 0 .191-.04c.051 0 .1 0 .089.03-.061.23-.13.35-.111.11zm-.191-3.32a.434.434 0 0 0-.317 0 .112.112 0 0 1-.079-.02.353.353 0 0 1 .2-.31.45.45 0 0 1 .6.17.586.586 0 0 1-.06.54c-.357.21-.472.08-.352-.38zm-.05 2.45a.7.7 0 0 1-.318.25.506.506 0 0 1-.209-.11.612.612 0 0 1-.1-.55c.257-.11.92-.08.616.4zM77.72 11v.12h-.16v-.13h-.14v.13h-.1v-.2h.635v.19h-.1V11h-.139zm.13-1.61V9.2h-.13v.18h-.17v-.16h-.121v.16H77.3v-.27h.7v.27zm.041.66c.054 1.54-1.059-.67-.26-.56a.709.709 0 0 1 .257.56zm-.492.63l.594-1.71c-.527.22-.745.19-.654-.08.465-.22.681-.18.647.1zm-.663 1.59a1.228 1.228 0 0 0-.352-.11.429.429 0 0 0-.111.56c.07.03-.041.04-.089.02a.9.9 0 0 1-.25-.81c.019-.31.139-.3.19-.31a.358.358 0 0 1 .444.14c.705-1.5.8-1.25.755-1.19zm-.764.7c.634-.35 1.079-.33 1.335.07v.99c-.856-.07 0 .46-.533.89-.05.04-.793.58-.843.63s-.061-.11-.07-.15q-.273-3.33.7-4.14zm1.979 1.97c0-.64.188-.96-.472-.92 0 0 .05-.92.041-.98a.064.064 0 0 1 .032-.08c1.71-.49 2.2 0 1.567 1.47a3.811 3.811 0 0 1-.584 1.01 16.162 16.162 0 0 1 .007-2.21zm.895-2.64v.18h-.212v-1.91H78.5v.18h-.139v-.26h.714v.28h-.121v-.18zm.162-.28q-.679.315-.6-.15 1.275-2.025 1.193-1.56zm.317-.12c-.023-.53-.157-.59-.4-.19h-.1s-.2-.79.463-.68.625-.84.625-.84zm-.444-.93a1.391 1.391 0 0 0-.213.77h-.1a6.129 6.129 0 0 0-.213-.72.625.625 0 0 1-.1-.54 3.7 3.7 0 0 1 .3-.58 1.392 1.392 0 0 1 .463.49 1.2 1.2 0 0 1 .448-1.12zm.108-.97l-.149.02s0-.32-.213-.3q-.171.615-.5 0a.431.431 0 0 1 .353-.49h.078c.342-.03.423.77.423.77zm-.241-1.42a2.06 2.06 0 0 1-.273.51.773.773 0 0 0-.162-.37.341.341 0 0 0-.292.07H77.8a1.057 1.057 0 0 1 .634-.91c.454-.04.314.67.314.7h-.008zm-1.025-.07l-.029.28h-.2a1.007 1.007 0 0 0-.061-.35 2.1 2.1 0 0 1-.231-.9q.5-1.2.8.06a5.693 5.693 0 0 1-.263.91h-.013zm-.362.3h-.2a.433.433 0 0 0-.076-.14.252.252 0 0 0-.282.07c-.083.07.019.54-.14.45a.978.978 0 0 1-.241-.63.645.645 0 0 1 .283-.61c.618-.23.669.85.669.85zm.191 5.71a1.383 1.383 0 0 1 .482-.32c.212-.05.412.22.251.37s-1.971 1.9-1.971 1.9a2.559 2.559 0 0 1 .464-.83l-1.349-.07.162-.2h1.348l.08-.14-1.269-.04.149-.2h1.269l.079-.13-1.237-.02.212-.3zm.317 1.56a.648.648 0 0 1 .222-.31s.895 1.23.926 1.29-.149.15-.231.11-.869-1.02-.92-1.08zm-.051.92a1.225 1.225 0 0 1-.5-.23c-.06-.11.162-.24.26-.23a1.391 1.391 0 0 1 .381.3c.063.12.032.24-.14.17V17zm-3.077-1.43a8.488 8.488 0 0 1 .473-.87c.212-.32.282-.44.513-.41.181.04.242.15.131.36a6.362 6.362 0 0 1-1 .95c-.1.05-.139.02-.12-.02v-.01zm-.292-1.45c-.07-.13-.6-1.41-.635-1.49a1.1 1.1 0 0 0-.06-.36 1.993 1.993 0 0 1-.362-.43.321.321 0 0 1-.05-.32.064.064 0 0 1 .028-.07c.041-.03 2.072-.02 2.072-.02a.513.513 0 0 1 .317-.09c.14.02.092.13.111.19s0 .32.07.23.251-.08.241.05a2.821 2.821 0 0 1-1.437 2.54c-.2.07-.225-.1-.295-.23zm1.738 1.77l-.26.2a.819.819 0 0 1-.212-.04 1.073 1.073 0 0 1-.422-.18c.3.01.6.01.894.02zm.08-4.84h-3.2a4.7 4.7 0 0 1 .765-2.6 3.312 3.312 0 0 1 2.433-1.27zm-2.855 5.28c.155.14-.07.26-.191.15s.083-.23.181-.15h.01zm.672 3.13a7.337 7.337 0 0 1-1.047-.07s-.12-.6-.2-.88.08-.4.241-.34a.444.444 0 0 1 .318.34 4.371 4.371 0 0 1-.241.46.225.225 0 0 0 .088.13 1.438 1.438 0 0 0 .2.08.731.731 0 0 1 .854-.26c.472.24.292.54-.219.54h.006zm5.812-1.39a10.923 10.923 0 0 1-1.979-.12 11.852 11.852 0 0 1-1.308-.34l-1.326.66.191.09s1.034-.49 1.126-.54.317 0 .222.08-1.066.55-1.066.55l.384.14s.866-.43.987-.5.371 0 .209.1-.984.49-.984.49l.283.11s.986-.5 1.117-.56.317.01.19.09l-1.066.58.4.1s1.034-.52 1.205-.63.261.05.162.13-1.075.6-1.075.6a3.21 3.21 0 0 0 .533.1c.2 0 .06.15-.032.18a5.936 5.936 0 0 1-1.961-.31 8.032 8.032 0 0 1-3.172-1.71 2.553 2.553 0 0 1-.654-.94c-.031-.1.213-.09.26 0a.471.471 0 0 0 .153.13 8.4 8.4 0 0 0 .241-.18c.051-.05.152.11.1.16s-.212.17-.212.17l.19.12a5.275 5.275 0 0 1 .854-.4c.05-.04.393-.22.393-.22l-.19-.17-.318.18s.042.17-.069.18-.1-.16-.14-.22a1.582 1.582 0 0 1-.317-.08c-.026-.08.152-.18.231-.16a.94.94 0 0 1 .222.1l.222-.15a.635.635 0 0 1-.092-.51c.13-.1.15-.13.2-.06a9.735 9.735 0 0 0 2.342 1.74 7.45 7.45 0 0 0 2 .64 8.542 8.542 0 0 0 1.751.06c.231-.05-.07.3-.222.32h.009zm.317-1.3l-1.2-1.37-.092.09 1.073 1.39s-.073.14-.146.1-1.111-1.45-1.111-1.45l-.165.13 1 1.32-.2.08-1.111-1.44s.292-.22 1.111-1c1.9-2.7 1.661-5.23-.727-7.56a3.891 3.891 0 0 0-3.931-.15c-1.837.76-2.265 2.82-2.293 3.93a1.6 1.6 0 0 1 0 .74c-.379.34-.688.38-.927.11-.054.02-.317.05-.4.07s-.054.15-.054.15a.61.61 0 0 1-.346.11c-.254.02-.219-.06-.219-.17a6.957 6.957 0 0 1 0-1.58 11.656 11.656 0 0 1 .91-2.86 8.519 8.519 0 0 1 1.545-2.02.276.276 0 0 0 .386.02.243.243 0 0 0 .014-.02 5.878 5.878 0 0 1 3.293-.95q1.65 1.59 3.094.78a8.437 8.437 0 0 1 2.074 9.6 5.5 5.5 0 0 1-1.576 1.95zm.6-7.09l.371-.08.019-.08a.865.865 0 0 1-.317-.04.852.852 0 0 1-.041-.19c0-.06 0-.1.051-.11s.771-.28.853-.3.089.03.089.03h.1l-.13-.4-.108.03a.175.175 0 0 1-.031.18c-.073.03-.692.24-.822.29s-.171-.12-.171-.12l-.07.05s.1.29.12.38l.079.36zm-.111 5.65c-.092-.06-.682-.54-.742-.6a.266.266 0 0 1 0-.22l-.042-.04-.634.73.222.24.029-.02a1.374 1.374 0 0 1 0-.24 1.164 1.164 0 0 1 .3-.26l.27.27a1.181 1.181 0 0 1-.121.17.186.186 0 0 1-.2-.02l-.041.04.317.26.019-.04a.157.157 0 0 1 0-.14 1.272 1.272 0 0 1 .168-.16l.353.23-.061.1a1.6 1.6 0 0 1-.342.28.146.146 0 0 1-.15-.03l-.06.06.26.21.733-.77-.051-.02a.3.3 0 0 1-.235-.03zm1.1-1.42a.223.223 0 0 1-.251.08l-.72-.35 1.2-.39.12-.24-.06-.02q-.318.585-1.111-.09a.157.157 0 0 1-.088-.12l-.07-.04v.05l-.111.24.07.03s.041-.12.111-.08.7.22.7.22l-1.031.36-.061.03s1.022.48 1.063.52a.721.721 0 0 1 .07.22l.041.03.2-.44zm-.892.42a1.092 1.092 0 0 1-.38.17c-.08 0-.318-.08-.191-.2a.343.343 0 0 1 .362-.15.646.646 0 0 0 .181.08l.041-.09-.5-.28-.041.04.06.11a.823.823 0 0 0-.27.18.283.283 0 0 0 .067.4c.007.01.014.01.022.02a.628.628 0 0 0 .581-.02.364.364 0 0 1 .4-.02.226.226 0 0 1-.079.3.414.414 0 0 1-.412.08l-.07.04.422.3.051-.06-.07-.13a1.7 1.7 0 0 0 .39-.31.481.481 0 0 0-.14-.39.387.387 0 0 0-.434-.07zM93.899 3.65a.765.765 0 0 0-.092.63c0 .25-.336.25-.539.21a.669.669 0 0 0-.518.06 6.961 6.961 0 0 0-.786.72l.136.25a3.318 3.318 0 0 1 .8-.32c.117 0 .888.02 1.155.02.18 0 .2-.05.225-.29a.6.6 0 0 1 .5-.48 3.74 3.74 0 0 1 .472.05.617.617 0 0 0-.336-.25 1.116 1.116 0 0 0-.539.11 3.665 3.665 0 0 0-.451.59 2.116 2.116 0 0 1-.72.02 4.044 4.044 0 0 0-.765.2 6.131 6.131 0 0 1 .54-.45 4.468 4.468 0 0 1 .787-.16.8.8 0 0 0 .18-.74 1.067 1.067 0 0 1 .562-.34l-.044-.06zm-.635 1.96s.54.06.7.06a1.442 1.442 0 0 0 .359-.02 2.767 2.767 0 0 0 .6-.32 2.13 2.13 0 0 1 .666-.05l-.076-.14s-.4 0-.549.02a5.656 5.656 0 0 0-.762.42 4.156 4.156 0 0 1-.929-.1zm-.732 1.16a2.326 2.326 0 0 1 .263-.03 3.245 3.245 0 0 1 .539.19c.213.09.679.41.838.46a.886.886 0 0 0 .675-.09c.137-.12.572-.34.635-.4a1.909 1.909 0 0 1 .584-.03l-.022-.16c-.118-.04-.238-.07-.359-.1s-.466-.03-.466-.03a.73.73 0 0 0-.137.21.691.691 0 0 1-.549.32.906.906 0 0 1-.517-.23 3.749 3.749 0 0 0-.571-.19c-.085-.02-.1-.06.041-.09s.838-.11 1-.17a7.18 7.18 0 0 0 .688-.64 2.972 2.972 0 0 1 .73 0l-.127-.35s-.34.04-.435.04a3.846 3.846 0 0 0-.476.06 8.47 8.47 0 0 0-.771.63 4.723 4.723 0 0 1-1.12.19 4.926 4.926 0 0 0-.539.09zm3.14 1.27a1.523 1.523 0 0 0-.58.22c-.105.07-.486.39-.486.39l-.3-.08c-.085-.02-.485-.07-.593-.09a5.2 5.2 0 0 1-.539-.2c-.042-.02-.073-.19 0-.19h.476c.18 0 .422.02.634.04a.9.9 0 0 0 .539-.04c.1-.07.679-.72.752-.76a3.664 3.664 0 0 1 .74-.04.369.369 0 0 0-.064-.25c-.063 0-.466.03-.571.03a.913.913 0 0 0-.317.14 2.561 2.561 0 0 0-.317.3 1.252 1.252 0 0 0-.422.23.5.5 0 0 1-.486.05 2.125 2.125 0 0 0-.561-.07 5.171 5.171 0 0 0-.784.13l.041.53a4.221 4.221 0 0 1 .5.21 1.266 1.266 0 0 0 .318.16 5.5 5.5 0 0 1 .7.12.588.588 0 0 0 .317.18 9.612 9.612 0 0 1 1.025.04 2.351 2.351 0 0 0 .4.02v-.13a2.549 2.549 0 0 0-.467-.16q-.3-.015-.6 0a1.923 1.923 0 0 1-.339.02 2.306 2.306 0 0 0 .4-.28.431.431 0 0 1 .317-.22 3.765 3.765 0 0 1 .581-.03 2.206 2.206 0 0 1 .39.09.463.463 0 0 0-.073-.28 4.5 4.5 0 0 0-.638-.08zm-.054 1.2a4.308 4.308 0 0 0-.507.05 5.267 5.267 0 0 0-.676.16c-.127.06-.159-.02-.317-.09a4.591 4.591 0 0 0-.73-.15 1.965 1.965 0 0 0-.593 0c-.023.17-.055.33-.1.5-.054.19-.1.37-.1.37a.48.48 0 0 0 .159.07c.086.02.359.18.454.21a5.37 5.37 0 0 0 .539.2.652.652 0 0 0 .34.08c.246-.1.486-.2.72-.32a2.253 2.253 0 0 1 .634-.06v-.27s-.371-.07-.444-.07a.893.893 0 0 0-.3.2c-.092.07-.466.17-.539.24a.381.381 0 0 1-.34.05.776.776 0 0 1-.434-.2 1.952 1.952 0 0 0-.445-.25c-.1-.04-.212-.06-.19-.14s.041-.06.181-.11a2.722 2.722 0 0 1 .7-.03 3.871 3.871 0 0 0 .517.12c.073-.03.793-.31.952-.36a2.811 2.811 0 0 1 .58 0h.486v-.26s-.436.06-.554.06zm-3.086 1.03a.412.412 0 0 0-.032.36 1.809 1.809 0 0 0 .825.16s-.467-.3-.571-.34a.728.728 0 0 1-.229-.18zM54.895 16.7s.181.02.137.13a4.61 4.61 0 0 1-.384.72.909.909 0 0 1-.473.18s.952.09 1.057.11a1.842 1.842 0 0 0 1.507-.29c.19-.31.2-.6.022-.7a10.93 10.93 0 0 0-1.71-.22c-.251 0-.163.07-.163.07zm.857.13l-.428.86a1.373 1.373 0 0 0 .5.04.549.549 0 0 0 .358-.38c.022-.14.159-.43.022-.45zm1.732.11a.811.811 0 0 1-.136.41.419.419 0 0 1-.248.32.858.858 0 0 1-.317.06l-.044.09h1.237v-.09l-.247-.04.358-.88.292-.02.022-.11-1.215.04v.12s.291-.03.291.1zm1.035-.24l-.023.08a.2.2 0 0 1 .181.23 5.113 5.113 0 0 1-.2.56.515.515 0 0 1-.336.18l-.022.07s1.056-.02 1.44-.09.539-.11.539-.11l.089-.34-.089-.02a1.057 1.057 0 0 1-.181.2 1.788 1.788 0 0 1-.786.18l.158-.4a.485.485 0 0 1 .292 0 .3.3 0 0 1 .159.15l.2-.58a.871.871 0 0 1-.292.27c-.089 0-.317-.02-.317-.02l.111-.32a.947.947 0 0 1 .5-.11.261.261 0 0 1 .2.22l.089-.36s-.787.14-.952.16-.767.05-.767.05zm1.9-.32v.09h.27c.089 0 .089.11.044.29s-.111.83.809.56a.872.872 0 0 0 .765-.99c.022-.09.066-.34.066-.34l.27-.08v-.12l-.879.25v.07s.225-.1.225-.03-.079.47-.114.72c-.044.34-.634.61-.606.27a1.739 1.739 0 0 1 .181-.74 1.4 1.4 0 0 1 .2-.14v-.11a3 3 0 0 1-.406.16 4.8 4.8 0 0 1-.841.14h.013zm2.5-.34l-.359.36.2.38.337-.42zm.336-.45s.292-.06.292.09a4.535 4.535 0 0 1-.2.95.66.66 0 0 1-.317.23l-.022.11 1.821-.52.066-.47a1.921 1.921 0 0 1-.517.47.637.637 0 0 1-.406.07l.089-.58a1.215 1.215 0 0 1 .269.02.289.289 0 0 1 .112.16l.114-.59a.561.561 0 0 1-.159.19.508.508 0 0 1-.27.08l.111-.38a1.288 1.288 0 0 1 .429-.14.143.143 0 0 1 .136.19l.159-.03.111-.51-.9.29-.923.31zm30.53 1.56a1.373 1.373 0 0 0 1.377.85c.583 0 .678-.28.634-.41a1 1 0 0 0-.187-.51 1.526 1.526 0 0 0-1.171-.45c-.723 0-.749.29-.666.53zm.488-.22c.038.15.283.49.34.63a.527.527 0 0 0 .4.28c.264-.01.245-.05.168-.22a5.865 5.865 0 0 0-.282-.64.493.493 0 0 0-.4-.24s-.282.04-.234.18zm-2.855-.76a.467.467 0 0 1 .225.19c.038.11.264.83.3.95s-.207.04-.207.04v.08l1.114.18-.019-.05a.57.57 0 0 1-.225-.14c-.019-.05-.1-.31-.1-.31a2.089 2.089 0 0 1 .415.2c.149.12.263.44.34.44s.793.11.793.11l-.019-.08a.715.715 0 0 1-.245-.11 1.136 1.136 0 0 1-.244-.4.66.66 0 0 0-.244-.18.825.825 0 0 0 .244-.34.392.392 0 0 0-.358-.32c-.34-.09-1.869-.38-1.869-.38zm-2.018-.43a.383.383 0 0 1 .244.19c.02.11.134.75.153.88s-.245.04-.245.04l.02.11a10.551 10.551 0 0 0 1.472.3.6.6 0 0 0 .491-.28 3.077 3.077 0 0 0-.076-.49 1.032 1.032 0 0 0-.584-.49c-.282-.05-1.269-.32-1.5-.39h-.055zm2.96.68l.133.43c.131.03.264.06.4.08a.154.154 0 0 0 .132-.17.172.172 0 0 0-.018-.06.343.343 0 0 0-.282-.24 1.654 1.654 0 0 0-.384-.04h.022zm-3.394-.13l.415.49.206-.36-.358-.44zm-2.221-1.51v.11a.771.771 0 0 1 .263.28 4.8 4.8 0 0 1 .133.68c.019.21-.263.12-.263.12v.09l.866.26v-.09a.239.239 0 0 1-.152-.15c0-.1-.1-.68-.1-.68l.9 1.17.473.13s-.188-1.02-.188-1.09.283.04.283.04v-.12l-.9-.28.019.11c.073.07.142.14.206.21a4.3 4.3 0 0 1 .1.6l-.717-1.03-.831-.29zm-.866.11a3.536 3.536 0 0 0 .076.55.372.372 0 0 0 .225.34c.13.02.206 0 .187-.13s-.057-.51-.076-.64a.432.432 0 0 0-.282-.32.178.178 0 0 0-.14.2h.01zm-.6.08a1.191 1.191 0 0 0 .952.95c.634.03.66-.21.679-.32a.892.892 0 0 0-.134-.53 1.344 1.344 0 0 0-.717-.5c-.755-.13-.793.24-.793.4h.013zm-2.64-.32a.219.219 0 0 1 .226.06c.038.09.206.6.263.79s-.282.21-.282.21l.019.11.774-.28-.038-.08s-.207.08-.264-.07-.187-.64-.187-.64l.774.74.187-.02.34-.92a5.887 5.887 0 0 1 .095.71c0 .21-.152.15-.152.15l.057.12h.377c.134 0 .6.07.6.07l-.057-.09a.64.64 0 0 1-.3-.24 6.392 6.392 0 0 1-.134-.74c-.019-.12.318-.12.318-.12l-.019-.09-.847-.06-.283.64-.676-.55-.774.18zm7.653 1.45l.18.87.019.06a2.435 2.435 0 0 0 .381.07c.146 0 .092-.32.035-.45a1 1 0 0 0-.317-.51 1.238 1.238 0 0 0-.318-.13zm-41.605-.92s1.269.76 1.665.95 2.094.85 2.094.85l-1.148.41c-1.469-.68-.7-.32-1.4-.65-.27-.14-.854-.48-.854-.48zm-37.525 3.01H3.2v-.21l2.221-1.05V3.98h-.016a6.031 6.031 0 0 0-1.269.16 2.518 2.518 0 0 0-1.072.63C2.613 5.19.25 7.63.25 7.63l-.254-.1.352-4.22H13.7l.444 4.22-.253.1s-2.361-2.44-2.814-2.86a2.528 2.528 0 0 0-1.073-.63A3.879 3.879 0 0 0 8.881 4v12.94l2.253 1.04zm102.848 0h-7.951v-.21l2.221-1.05V3.98h-.016a6.031 6.031 0 0 0-1.269.16 2.613 2.613 0 0 0-1.069.63c-.454.42-2.814 2.86-2.814 2.86l-.254-.1.352-4.22h13.35l.444 4.22-.253.1s-2.361-2.44-2.814-2.86a2.522 2.522 0 0 0-1.073-.63 4.23 4.23 0 0 0-1.12-.14v12.94l2.253 1.04zM30.184 4.55l1.815-1.04v-.22h-7.078v.21l1.831 1.02v5.56l-6.8.04V4.55l1.811-1.04.007-.22h-7.078v.21l1.83 1.04v12.43L14.692 18v.2h7.078l-.007-.22-1.811-1.04v-5.98l6.8.04v5.97L24.921 18v.2h7.078v-.22l-1.815-1.04V4.55zm89.171 12.42l-1.833 1.02v.21h7.081l-.007-.23-1.814-1.03V4.55l1.814-1.04.007-.22h-7.081v.2l1.833 1.03v12.45zM45.33 18.19H32.662v-.21l1.833-1.02V4.55L32.662 3.5v-.22h12.246l.269 3.89-.225.08s-1.961-2.03-2.411-2.44a2.539 2.539 0 0 0-1.072-.64 5.429 5.429 0 0 0-1.269-.15l-2.243-.07v6.3s2.35-.04 2.611-.07a1.179 1.179 0 0 0 .986-.62c.4-.46 1.038-1.3 1.038-1.3h.26v4.99h-.26s-1.238-1.79-1.333-1.86a1.231 1.231 0 0 0-.952-.33c-.634 0-2.37-.05-2.37-.05v6.44s1.339.02 2.418-.08a3.551 3.551 0 0 0 2.379-.71c.708-.59 2.564-2.77 2.564-2.77l.279.1zm113.409-4.17l-.279-.09s-1.859 2.17-2.563 2.77a3.6 3.6 0 0 1-2.38.7c-1.078.1-2.414.08-2.414.08v-6.43s1.72.05 2.37.04a1.2 1.2 0 0 1 .952.34c.1.06 1.332 1.86 1.332 1.86h.26v-5h-.26s-.634.84-1.037 1.3a1.235 1.235 0 0 1-.987.62c-.26.03-2.614.07-2.614.07v-6.3l2.243.07a5.429 5.429 0 0 1 1.269.15 2.624 2.624 0 0 1 1.072.63c.451.42 2.411 2.45 2.411 2.45l.226-.08-.289-3.92H145.8v.2l1.834 1.04v12.43l-1.834 1.03v.21h12.69zm-23.08-.52l4.54-10.21h4.971l-.006.22-1.811 1.04v12.39l1.811 1.03.006.23h-7.068v-.21l1.831-1.02V6.36l-5.356 11.63h-.657l-5.711-11.87v10.82l1.812 1.03.006.23h-4.755v-.21l1.83-1.02V4.52l-1.83-1.03v-.2h5.38zm33.161-10l.28 3.68-.25.04s-2.538-2.77-2.855-3a2.22 2.22 0 0 0-2.639-.07 1.808 1.808 0 0 0-.451 2.43c.819 1.58 3.173 2.69 3.807 3.05s3.658 1.85 3.268 4.87a4.6 4.6 0 0 1-3.96 3.86 16.351 16.351 0 0 1-5.732-.53l-.264-3.86.295-.03s2.538 3.04 3.55 3.41a2.705 2.705 0 0 0 3.2-.54 2.27 2.27 0 0 0-.669-3.09c-1.151-.79-2.823-1.67-3.991-2.45a4.988 4.988 0 0 1-2.316-3.56 4.03 4.03 0 0 1 2.465-4.26 7.466 7.466 0 0 1 3.6-.37 20.118 20.118 0 0 1 2.652.42zM93.267 5.61s.54.06.7.06a1.442 1.442 0 0 0 .359-.02 2.767 2.767 0 0 0 .6-.32 2.13 2.13 0 0 1 .666-.05l-.076-.14s-.4 0-.549.02a5.656 5.656 0 0 0-.762.42 4.156 4.156 0 0 1-.929-.1zm2.354 3.63a4.308 4.308 0 0 0-.507.05 5.267 5.267 0 0 0-.676.16c-.127.06-.159-.02-.317-.09a4.591 4.591 0 0 0-.73-.15 1.965 1.965 0 0 0-.593 0c-.023.17-.055.33-.1.5-.054.19-.1.37-.1.37a.48.48 0 0 0 .159.07c.086.02.359.18.454.21a5.37 5.37 0 0 0 .539.2.652.652 0 0 0 .34.08c.246-.1.486-.2.72-.32a2.253 2.253 0 0 1 .634-.06v-.27s-.371-.07-.444-.07a.893.893 0 0 0-.3.2c-.092.07-.466.17-.539.24a.381.381 0 0 1-.34.05.776.776 0 0 1-.434-.2 1.952 1.952 0 0 0-.445-.25c-.1-.04-.212-.06-.19-.14s.041-.06.181-.11a2.722 2.722 0 0 1 .7-.03 3.871 3.871 0 0 0 .517.12c.073-.03.793-.31.952-.36a2.811 2.811 0 0 1 .58 0h.486v-.26s-.439.06-.557.06zm-3.086 1.03a.412.412 0 0 0-.032.36 1.809 1.809 0 0 0 .825.16s-.467-.3-.571-.34a.728.728 0 0 1-.232-.18z" fill="#7c7c7c" fill-rule="evenodd"/></svg>