<svg xmlns="http://www.w3.org/2000/svg" width="192" height="36" viewBox="153.9 232 192 36"><g fill="#999"><ellipse cx="221.2" cy="244.1" rx="1.1" ry="1.1"/><path d="M222.3 255h1v1.1h-1zM222.3 257.2h1v5.7h-1zM223.5 246.5c1.3-1.3 1.3-3.4 0-4.6-.6-.6-1.5-1-2.3-1-.9 0-1.7.3-2.3.9-.6.6-1 1.5-.9 2.3 0 .9.3 1.7.9 2.3 1.3 1.3 3.3 1.4 4.6.1zm-2.3-4.7c1.3 0 2.3 1 2.3 2.3s-1 2.3-2.3 2.3c-.6 0-1.2-.2-1.6-.7-.4-.4-.7-1-.7-1.6 0-1.3 1-2.3 2.3-2.3zM226 256c.1-.2.3-.3.5-.2H226.8v-.9h-.4c-.5-.1-1 .1-1.3.5 0 .3-.1.6-.1.9v.9h-.8v.8h.8v5h1v-5h1v-.8h-1c-.1-.4 0-.8 0-1.2z"/><path d="M221.2 250.8c3.8 0 6.8-3 6.8-6.8 0-1.6-.6-3.1-1.6-4.3.3-.8.7-1.5 1.2-2.2h-4.5c-.1 0-.2-.1-.2-.1-.2-.3-1.8-2.4-8.5-2.4-7.3 0-8.6 2.6-8.6 2.6H201c.6.7 1 1.5 1.3 2.4-.9 1.2-1.4 2.6-1.4 4 0 3.8 3.1 6.8 6.9 6.8 2 0 3.9-.9 5.2-2.4l1.6 2.2 1.4-2.2c1.3 1.5 3.2 2.4 5.2 2.4zm-13.4-1.3c-3 0-5.4-2.5-5.4-5.5s2.5-5.4 5.5-5.4 5.4 2.5 5.4 5.4c0 3.1-2.5 5.5-5.5 5.5zm6.8-6.5c-1.6-6.1-6.6-5.3-6.6-5.3s1.8-1.9 6.5-1.9h.4c4.7 0 6.4 1.9 6.4 1.9s-5.1-.8-6.7 5.3zm6.6-4.4c3 0 5.5 2.4 5.5 5.4 0 3-2.4 5.5-5.4 5.5-3 0-5.5-2.4-5.5-5.4-.1-3 2.4-5.5 5.4-5.5zM220.4 255.6h-1v1.6h-.8v.8h.8v3.8c0 .3.1.6.2.9.2.3.6.4.9.4h.4c.1 0 .2 0 .3-.1v-.8h-.2c-.1 0-.3 0-.4-.1-.1-.1-.2-.2-.2-.4V258h.9v-.8h-.9v-1.6zM218.1 257c-.4 0-.7.1-1 .4-.2.2-.4.4-.6.7v-1h-.9v5.8h1v-3.3c0-.4.1-.8.4-1.1.3-.3.7-.5 1.1-.5h.4v-1c-.2.1-.3.1-.4 0zM279.4 247.2h-.2c-.6 0-1.2-.2-1.8-.5l-.3.9c.6.4 1.3.5 2 .5 1.7 0 2.7-.9 2.7-2.2 0-1.1-.7-1.7-1.9-2.2-.9-.4-1.4-.6-1.4-1.2s.5-1 1.1-1h.1c.5 0 1.1.2 1.5.4l.3-.9c-.5-.3-1.1-.5-1.8-.5-1.2-.1-2.3.7-2.5 2v.1c0 .9.6 1.6 1.9 2.1 1 .4 1.4.7 1.4 1.4.1.7-.5 1.2-1.1 1.1z"/><path d="M207.9 240.9c-.9-.1-1.7.3-2.3.9-.6.6-1 1.5-.9 2.3 0 .9.3 1.7.9 2.3 1.3 1.3 3.4 1.3 4.6 0 1.3-1.3 1.3-3.4 0-4.6-.6-.6-1.4-.9-2.3-.9zm-.1 5.4c-.6 0-1.2-.2-1.6-.7-.4-.4-.7-1-.7-1.6 0-1.3 1-2.3 2.3-2.3s2.3 1 2.3 2.3-1 2.3-2.3 2.3zM275 239.5c.4.1.8-.2.9-.6v-.2c0-.4-.3-.8-.8-.8h-.1c-.5 0-.8.4-.8.8s.3.7.8.8zM241.5 237.8zM270.6 248.1l2.9-7.2H272l-1.4 4c-.2.6-.5 1.2-.6 1.9-.2-.6-.3-1.3-.6-1.9l-1.4-4h-1.4l2.8 7.2h1.2zM297.2 241.6c.3 0 .3.1.4.3.1.2.1.3.1.4h.4c0-.2 0-.3-.1-.5 0-.1-.1-.2-.2-.3.1-.1.3-.2.3-.4 0-.1-.1-.2-.2-.3s-.3-.1-.5-.1-.4.1-.5.1h-.1v1.6h.4v-.8zm0-.6h.2c.1 0 .2 0 .3.2v.1c0 .1-.1.2-.3.2h-.2v-.5z"/><path d="M297.4 243.1c.9 0 1.6-.7 1.6-1.6 0-.8-.7-1.5-1.5-1.6h-.1c-.8 0-1.5.6-1.6 1.5v.1c.1.9.8 1.6 1.6 1.6zm0-2.8c.7 0 1.2.5 1.2 1.2s-.5 1.2-1.2 1.2c-.6 0-1.2-.5-1.2-1.2 0-.6.5-1.2 1.2-1.2zM227.8 257.2h1v5.7h-1zM274.4 240.8h1.3v7.2h-1.3zM214.3 259.1c-.1-.4-.2-.7-.4-1-.2-.3-.5-.6-.9-.7-.4-.2-.8-.3-1.2-.3-.7 0-1.5.3-2 .9-.5.6-.8 1.4-.7 2.2 0 .8.2 1.6.7 2.2.5.5 1.1.8 1.8.8.3 0 .5 0 .8-.1.4-.1.8-.3 1.1-.6.2-.2.3-.4.5-.6.1-.2.2-.5.2-.7h-1c-.1.3-.2.5-.4.7-.3.3-.7.5-1.2.5s-.9-.2-1.2-.5c-.3-.4-.4-.9-.4-1.4h4.2c.2-.6.2-1 .1-1.4zm-4.1.5c0-.5.2-.9.5-1.2s.7-.5 1.1-.5c.5 0 1.1.2 1.3.7.2.3.3.7.3 1h-3.2zM206.7 261.3c-.4.6-1.1.9-1.8.9s-1.4-.3-1.9-.9c-.4-.7-.7-1.5-.6-2.2-.1-.9.2-1.8.7-2.5.5-.5 1.1-.8 1.8-.8.5 0 1 .1 1.5.4.4.3.6.7.7 1.2h1c-.1-.7-.4-1.3-.9-1.8-.6-.6-1.5-.8-2.3-.8-1 0-2.1.4-2.7 1.2-1.3 1.9-1.2 4.5.3 6.3.6.6 1.4.9 2.3.8.9 0 1.9-.3 2.5-1 .5-.6.8-1.3.9-2.1h-1c-.1.5-.3.9-.5 1.3zM207.8 243c-.6 0-1.1.5-1.1 1 0 .6.5 1.1 1.1 1.1s1.1-.5 1.1-1.1c0-.5-.5-1-1.1-1zM236.2 248h1.3v-3.9c0-.2 0-.4.1-.6.1-.9.8-1.6 1.8-1.7.2 0 .3.1.5.1v-1.3c-.1 0-.2-.1-.4-.1-1 0-1.8.7-2 1.6l-.1-1.4h-1.1c.1.7.1 1.4.1 2.3v5h-.2zM190.9 232h1v36h-1zM240.9 240.8h1.3v7.2h-1.3zM241.5 239.4c0 .1 0 .1 0 0 .5 0 .8-.3.9-.7v-.1c0-.5-.4-.8-.8-.8-.5 0-.8.4-.8.8-.1.5.2.8.7.8zM318.3 259.1c-.1-.4-.2-.7-.4-1-.2-.3-.5-.6-.9-.7-.4-.2-.8-.3-1.2-.3-.7 0-1.5.3-2 .9-.5.6-.8 1.4-.7 2.2 0 .8.2 1.6.7 2.2.5.5 1.1.8 1.8.8.3 0 .5 0 .8-.1.4-.1.8-.3 1.1-.6.2-.2.3-.4.5-.6.1-.2.2-.5.2-.7h-1c-.1.3-.2.5-.4.7-.3.3-.7.5-1.2.5s-.9-.2-1.2-.5c-.3-.4-.4-.9-.4-1.4h4.2c.2-.6.2-1 .1-1.4zm-4.2.5c0-.5.2-.9.5-1.2.3-.3.7-.5 1.1-.5.5 0 1.1.2 1.3.7.2.3.3.7.3 1h-3.2zM292.4 242.2l-.1-1.4h-1.1c.1.7.1 1.4.1 2.3v4.9h1.3v-3.9c0-.2 0-.4.1-.6.1-.9.9-1.6 1.8-1.7.2 0 .3.1.5.1v-1.3c-.1 0-.2-.1-.4-.1-1.1.1-1.9.8-2.2 1.7zM293.3 255h1v7.9h-1zM298 257zM290.8 255h1v7.9h-1zM282.3 261.9c-.3.2-.6.4-1 .4-.5 0-.9-.2-1.2-.6s-.4-.9-.4-1.4c0-.5.1-1 .3-1.4.2-.6.7-.9 1.3-.9.4 0 .7.1 1 .4.2.2.3.6.4.9h.9c0-.6-.3-1.2-.7-1.6-.5-.3-1-.5-1.6-.5-.7 0-1.4.3-1.9.8-.5.7-.8 1.5-.7 2.4 0 .7.2 1.5.7 2.1.4.5 1.1.9 1.8.8 1.3.1 2.3-.8 2.4-2.1v-.1h-.9c0 .2-.2.5-.4.8zM286.7 240.7h-.4c-2 0-3.6 1.5-3.6 3.5v.4c-.2 1.9 1.3 3.6 3.2 3.7h.3c1.9.1 3.5-1.5 3.6-3.4v-.4c.2-2-1.2-3.7-3.1-3.8zm-.4 6.5c-1.3 0-2.2-1.2-2.2-2.8 0-1.4.7-2.8 2.2-2.8s2.2 1.6 2.2 2.8c0 1.6-1 2.8-2.2 2.8zM287 257zM289.5 259.1c-.1-.4-.2-.7-.4-1-.2-.3-.5-.6-.9-.7-.4-.2-.8-.3-1.2-.3-.7 0-1.5.3-2 .9-.5.6-.8 1.4-.7 2.2 0 .8.2 1.6.7 2.2.5.5 1.1.8 1.8.8.3 0 .5 0 .8-.1.4-.1.8-.3 1.1-.6.2-.2.3-.4.5-.6.1-.2.2-.5.2-.7h-1c-.1.3-.2.5-.4.7-.3.3-.7.5-1.2.5s-.9-.2-1.2-.5c-.3-.4-.4-.9-.4-1.4h4.2c.2-.6.1-1 .1-1.4zm-4.1.5c0-.5.2-.9.5-1.2.3-.3.7-.5 1.1-.5.5 0 1.1.2 1.3.7.2.3.3.7.3 1h-3.2zM300.5 259.1c-.1-.4-.2-.7-.4-1-.2-.3-.5-.6-.9-.7-.4-.2-.8-.3-1.2-.3-.7 0-1.5.3-2 .9-.5.6-.8 1.4-.7 2.2 0 .8.2 1.6.7 2.2.5.5 1.1.8 1.8.8.3 0 .5 0 .8-.1.4-.1.8-.3 1.1-.6.2-.2.3-.4.5-.6.1-.2.2-.5.2-.7h-1c-.1.3-.2.5-.4.7-.3.3-.7.5-1.2.5s-.9-.2-1.2-.5c-.3-.4-.4-.9-.4-1.4h4.2c.2-.6.2-1 .1-1.4zm-4.1.5c0-.5.2-.9.5-1.2.3-.3.7-.5 1.1-.5.5 0 1.1.2 1.3.7.2.3.3.7.3 1h-3.2zM336.7 256.4c-.5.2-1 .3-1.5.3v.7h1.8v5.4h1v-7.7h-.8c.1.6-.1 1-.5 1.3zM345.5 259.3c-.2-.2-.5-.4-.8-.5.2-.1.5-.3.6-.5.6-.8.5-1.9-.3-2.5-.5-.4-1.1-.6-1.7-.6s-1.3.2-1.8.6c-.4.4-.6.9-.6 1.5 0 .4.1.8.4 1.1.2.2.4.3.6.4-.4.1-.7.4-1 .8-.2.4-.3.8-.3 1.2 0 .7.2 1.3.8 1.8.5.4 1.2.6 1.9.6s1.4-.2 1.9-.7c.5-.5.7-1.1.7-1.7.1-.6-.1-1.1-.4-1.5zm-3.5-2c0-.3.1-.6.3-.8.3-.3.6-.4 1-.4s.8.1 1 .4c.2.2.3.5.3.8 0 .3-.1.6-.4.9-.3.3-.6.4-1 .4-.3 0-.7-.1-.9-.3-.2-.4-.3-.7-.3-1zm2.5 4.6c-.3.2-.7.4-1.1.4-.5 0-.9-.1-1.2-.4-.3-.3-.4-.7-.4-1 0-.4.1-.8.4-1.1.3-.3.7-.4 1.1-.4s.8.1 1.2.4c.3.3.5.7.5 1.1 0 .3-.2.7-.5 1zM304.6 257c-.4 0-.7.1-1 .2-.3.2-.6.4-.9.7v-.8h-.9v5.8h1v-3c0-.3 0-.6.1-.9l.3-.6c.2-.2.4-.4.7-.5.2-.1.4-.1.6-.1.4 0 .8.2.9.5.1.3.2.6.2.8v3.6h1V259c0-.5-.1-.9-.2-1.3-.5-.4-1.1-.7-1.8-.7zM331.1 255.2c-1.1 0-2 .7-2.3 1.8-.2.7-.4 1.5-.3 2.2 0 .9.2 1.9.6 2.7.4.8 1.2 1.2 2.1 1.2 1 0 1.9-.6 2.2-1.5.3-.8.5-1.7.5-2.6s-.1-1.8-.5-2.6c-.6-.7-1.4-1.2-2.3-1.2zm1.2 6.4c-.3.4-.7.7-1.2.7-.6 0-1.2-.5-1.3-1.1-.2-.6-.3-1.3-.3-1.9 0-.8.1-1.6.4-2.4.2-.5.7-.8 1.3-.8.6 0 1.1.3 1.3.8.2.7.3 1.4.3 2.2 0 .9-.2 1.7-.5 2.5zM311 261.9c-.3.2-.6.4-1 .4-.5 0-.9-.2-1.2-.6-.3-.4-.4-.9-.4-1.4 0-.5.1-1 .3-1.4.2-.6.7-.9 1.3-.9.4 0 .7.1 1 .4.2.2.3.6.4.9h.9c0-.6-.3-1.2-.7-1.6-.5-.3-1-.5-1.6-.5-.7 0-1.4.3-1.9.8-.5.7-.8 1.5-.7 2.4 0 .7.2 1.5.7 2.1.4.5 1.1.9 1.8.8 1.3.1 2.3-.8 2.4-2.1v-.1h-.9c0 .2-.1.5-.4.8zM315.9 257zM324.9 260.4l.7-.4c.5-.2.9-.6 1.3-.9.4-.4.7-1 .7-1.6s-.2-1.2-.6-1.6c-.5-.5-1.2-.8-1.9-.7-.9-.1-1.8.3-2.2 1.1-.3.5-.4 1.1-.4 1.6h1c0-.4.1-.8.2-1.1.3-.5.8-.8 1.4-.8.4 0 .8.1 1.1.4.6.6.5 1.5 0 2.1-.3.3-.6.5-1 .7l-1 .6c-.6.3-1.1.8-1.4 1.3s-.4 1.1-.4 1.7h5.3v-.8h-4.2c.1-.4.3-.8.7-1 .1-.2.4-.4.7-.6zM227.8 255h1v1.1h-1zM249.7 259.1c-.1-.4-.2-.7-.4-1-.2-.3-.5-.6-.9-.7-.4-.2-.8-.3-1.2-.3-.7 0-1.5.3-2 .9-.5.6-.8 1.4-.7 2.2 0 .8.2 1.6.7 2.2.5.5 1.1.8 1.8.8.3 0 .5 0 .8-.1.4-.1.8-.3 1.1-.6.2-.2.3-.4.5-.6.1-.2.2-.5.2-.7h-1c-.1.3-.2.5-.4.7-.3.3-.7.5-1.2.5s-.9-.2-1.2-.5c-.3-.4-.4-.9-.4-1.4h4.2c.2-.6.2-1 .1-1.4zm-4 .5c0-.5.2-.9.5-1.2s.7-.5 1.1-.5c.5 0 1.1.2 1.3.7.2.3.3.7.3 1h-3.2zM247.3 257zM247.9 240.6zM243 255.6h-1v1.6h-.8v.8h.8v3.8c0 .3.1.6.2.9.2.3.6.4.9.4h.4c.1 0 .2 0 .3-.1v-.8h-.4c-.1 0-.3 0-.4-.1.1-.1 0-.2 0-.4V258h1v-.8h-1v-1.6zM278.2 257.2H277l-1.3 2-1.3-2h-1.3l1.9 2.8-2 2.9h1.2l1.4-2.1 1.5 2.1h1.2l-2-2.9zM232.5 257.9c.4 0 .7.1 1 .4.2.3.3.6.4.9h.9c0-.6-.3-1.2-.7-1.6-.5-.3-1-.5-1.6-.5-.7 0-1.4.3-1.9.8-.5.7-.8 1.5-.7 2.4 0 .7.2 1.5.7 2.1.4.5 1.1.9 1.8.8 1.3.1 2.3-.8 2.4-2.1v-.1h-.9c-.1.4-.2.7-.5 1-.3.2-.6.4-1 .4-.5 0-.9-.2-1.1-.6-.3-.4-.4-.9-.4-1.4s.1-1 .3-1.4c.2-.8.7-1.1 1.3-1.1zM247.9 240.6c-1 0-2 .5-2.6 1.4h-.1l-.1-1.2H244c.1.7.1 1.4.1 2.4v7.8h1.3v-3.9h.1c.5.8 1.3 1.2 2.2 1.1 1.7 0 3.3-1.3 3.3-3.9 0-2.2-1.4-3.7-3.1-3.7zm-.5 6.6c-.9 0-1.8-.6-2-1.6v-1.8c0-.2 0-.4.1-.5.2-.9 1.1-1.6 2-1.6 1.4 0 2.1 1.2 2.1 2.7.1 1.6-.7 2.8-2.2 2.8zM233.1 239l-1.4.4v1.3h-1.1v1h1.1v3.9c-.1.7.1 1.4.5 1.9.4.4.9.6 1.5.6.4 0 .8 0 1.2-.2l-.1-1c-.3.1-.5.1-.8.1-.7 0-1-.5-1-1.4v-3.8h2v-1h-1.9V239zM240.6 262.3c-.1 0-.2 0-.3-.1 0-.1-.1-.2-.1-.2v-3.3c0-.5-.2-1-.6-1.2-.4-.4-1-.5-1.6-.5-.5 0-1.1.1-1.5.4-.5.3-.7.9-.7 1.5h.9c0-.2.1-.5.2-.7.3-.3.7-.4 1.1-.4.3 0 .7.1 1 .2.2.2.4.4.4.7 0 .1 0 .3-.1.4-.1.2-.3.3-.4.3l-1.5.2c-.5 0-.9.2-1.3.5-.3.3-.5.8-.5 1.2 0 .5.2.9.5 1.2.4.3.8.5 1.3.5.4 0 .8-.1 1.2-.3.3-.2.6-.4.8-.7 0 .2.1.4.2.5.2.2.4.4.7.4h.3c.1 0 .2 0 .3-.1v-.7H240.6v.2zm-1.3-1.5c0 .6-.3 1.1-.8 1.3-.3.2-.6.2-1 .2-.3 0-.5-.1-.7-.2-.2-.2-.3-.4-.3-.7s.2-.6.4-.8c.2-.1.5-.2.8-.2l.6-.1c.2 0 .4-.1.5-.1.2 0 .3-.1.5-.2v.8zM266.6 262.9zM265.6 237.4h-1.3v4.3h-.1c-.5-.7-1.3-1.2-2.2-1.1-1.8 0-3.3 1.4-3.3 3.9 0 2.2 1.4 3.7 3.1 3.7 1 0 2-.5 2.5-1.4h.1l.1 1.2h1.2c-.1-.5-.1-1.2-.1-1.9v-8.7zm-1.4 6.4v1.2c0 .2 0 .4-.1.6-.2.9-1 1.5-1.9 1.6-1.4 0-2.1-1.2-2.1-2.7 0-1.6.8-2.8 2.2-2.8.9 0 1.7.6 1.9 1.5.1.2.1.4 0 .6zM267.6 259.3h4.3v-.9h-4.3V256h4.7v-1h-5.7v7.9h5.8v-.9h-4.8zM262 254.9c-.5-.1-1 .1-1.3.5-.1.3-.2.6-.2.9v.9h-.8v.8h.8v5h1v-5h1v-.8h-1c0-.4 0-.8.1-1.2.1-.2.3-.3.5-.2H262.4v-.9h-.4zM254 248.2c.9 0 1.7-.4 2.2-1.1h.1l.1.9h1.2c-.1-.5-.2-1.8-.2-1.8v-2.7c0-1.4-.6-2.9-2.8-2.9-.8 0-1.7.2-2.4.6l.3.9c.6-.3 1.3-.5 1.9-.5.8-.1 1.5.4 1.7 1.2v.7c-2.8 0-4.4.9-4.4 2.7 0 1.2.9 2.1 2.1 2.1.1-.1.1-.1.2-.1zm-.9-2v-.2c0-1.4 1.6-1.7 3.1-1.6v1.3c0 .1 0 .3-.1.4-.3.7-1 1.2-1.8 1.2-.6 0-1.1-.5-1.2-1.1zM256.4 257c-.8 0-1.5.3-2 .9-.5.7-.8 1.5-.7 2.3 0 .8.2 1.5.7 2.1.5.5 1.2.8 1.9.8.8.1 1.6-.3 2.1-.9.5-.7.7-1.5.7-2.3.1-.8-.2-1.6-.8-2.2-.5-.4-1.2-.7-1.9-.7zm1.3 4.6c-.2.5-.8.8-1.3.7-.5 0-1-.2-1.3-.6-.3-.5-.4-1-.4-1.5 0-.6.1-1.1.4-1.6.3-.4.8-.7 1.3-.7.6 0 1.1.3 1.4.8.2.4.3.9.3 1.3-.1.5-.2 1.1-.4 1.6zM170.2 244.8l-1.3-3.9-1.3 3.9-3.9.1 3.1 2.5-1.1 3.9 3.2-2.3 3.2 2.3-1.1-3.9 3.1-2.5z"/><path d="M180.3 244.3l2.1-4-4.4-.8.3-4.5-4.3 1.2-1.8-4.2-3.3 3-3.3-3-1.8 4.2-4.3-1.2.2 4.6-4.3.7 2.1 4-3.6 2.7 3.6 2.7-2.1 4 4.4.8 1.5 1.2V267l7.3-5.2 7.3 5.2v-10.8l2.2-1.8 4.4-.8-2.1-4 3.5-2.6-3.6-2.7zm-11.2 11.2c-4.9 0-8.9-4-8.9-8.9s4-8.9 8.9-8.9 8.9 4 8.9 8.9-4 8.9-8.9 8.9z"/></g></svg>