<svg xmlns="http://www.w3.org/2000/svg" width="173" height="20"><path d="M132.77 2.44h-.85v8.4h.48c2.89 0 3.87-1.73 3.87-4.11 0-2.64-.9-4.29-3.5-4.29m.35 9.24h-1.2v5.54a1.272 1.272 0 0 0 .8 1.28 10.29 10.29 0 0 0 1.93.42v.61h-9.95v-.61a9.556 9.556 0 0 0 2.01-.34 1.179 1.179 0 0 0 .8-1.28V4.04a1.177 1.177 0 0 0-.8-1.28 11.565 11.565 0 0 0-2.01-.5v-.6h9.56c4.5 0 6.75 1.41 6.75 4.45 0 3.92-3.84 5.57-7.89 5.57M15.86 6.52c-.37-1.15-1.8-3.76-2.94-3.92a14.335 14.335 0 0 0-1.91-.13h-.53v14.68a1.292 1.292 0 0 0 .8 1.3 13.688 13.688 0 0 0 2.14.47v.61H3.15v-.61a12.361 12.361 0 0 0 2.12-.34 1.241 1.241 0 0 0 .79-1.31V2.47h-.53a14.417 14.417 0 0 0-1.9.13C2.51 2.76 1.06 5.37.69 6.52H0V1.66h16.54v4.86h-.68zm8.18 13v-.54a2.643 2.643 0 0 0 .98-.21 1.167 1.167 0 0 0 .39-1.15v-6.28c0-1.73-.63-2.57-1.53-2.57a2.559 2.559 0 0 0-2.36 1.6v7.11a1.161 1.161 0 0 0 .48 1.18 2.494 2.494 0 0 0 1 .32v.54h-7.09v-.54a3.679 3.679 0 0 0 1.14-.21 1.056 1.056 0 0 0 .66-1.15V2.78a1.863 1.863 0 0 0-.69-1.49 5 5 0 0 0-1.77-.44V.32l6.11-.31.16.18v9.06h.06c.98-1 1.9-2.15 4.13-2.15 2.43 0 3.57 1.62 3.57 4.11v6.33a1.062 1.062 0 0 0 .61 1.15 4.044 4.044 0 0 0 1.14.29v.55h-6.99v-.01zM36.72 7.78c-1.22 0-1.77 1.52-1.85 4.16l3.39-.05c0-2.04-.03-4.11-1.54-4.11m.37 12.14c-4.34 0-6.35-2.88-6.35-6.49 0-3.37 2.17-6.33 6.17-6.33 4.05 0 5.45 2.48 5.45 5.21v.36h-7.49a1.138 1.138 0 0 0 0 .32c0 3.08.98 5.36 3.54 5.36a3.775 3.775 0 0 0 3.71-2.41l.53.39a6.141 6.141 0 0 1-5.56 3.59M52.21 2.65a1.178 1.178 0 0 0-.8 1.29v10.15c0 3.81-3.04 5.91-6.56 5.91-3.34 0-4.82-1.36-4.82-3.27a2.37 2.37 0 0 1 2.51-2.54 2.134 2.134 0 0 1 2.31 2.17 2.829 2.829 0 0 1-1.7 2.43v.13a2.394 2.394 0 0 0 .88.19c2.04 0 2.99-1.57 2.99-4.5V4.07a1.287 1.287 0 0 0-.82-1.31 8.962 8.962 0 0 0-2.01-.5v-.6h9.9v.6a12.313 12.313 0 0 0-1.88.39m5.2 13.55c0 1.55.58 2.07 1.32 2.07a1.62 1.62 0 0 0 1.57-1l.1-4.55c-1.83.71-2.99 1.29-2.99 3.48m6.09 3.66a3.111 3.111 0 0 1-3.05-1.7h-.08a4.528 4.528 0 0 1-3.78 1.76 3.031 3.031 0 0 1-3.2-2.99c0-2.22 1.27-2.9 2.59-3.37a29.9 29.9 0 0 0 4.4-1.67v-1.52c0-.89 0-2.64-1.51-2.64a1.842 1.842 0 0 0-1.3.49 8.207 8.207 0 0 1 .47 1.99 1.991 1.991 0 0 1-2.16 1.49 1.742 1.742 0 0 1-1.91-1.8c0-1.62 2.83-2.8 5.11-2.8 2.83 0 5.16.44 5.16 3.92 0 2.38-.16 5.18-.16 6.04a1.179 1.179 0 0 0 .95 1.23c.8 0 1.01-1.07 1.04-2.25h.66c-.05 2.2-.85 3.82-3.23 3.82m11.81-.34c-.48-1.98-1.96-5.7-3.29-5.7a1.017 1.017 0 0 0-.63.37v3.32a1.091 1.091 0 0 0 .56 1.15 2.81 2.81 0 0 0 1.13.32v.54h-7.3v-.54a3.737 3.737 0 0 0 1.14-.21 1.056 1.056 0 0 0 .66-1.15V2.78a1.85 1.85 0 0 0-.69-1.49 5.06 5.06 0 0 0-1.77-.44V.32l6.11-.31.16.18v13.24a45.227 45.227 0 0 0 3.86-4.05 1.164 1.164 0 0 0 .32-.79c0-.29-1.03-.52-1.77-.63v-.52h5.98v.52a8.267 8.267 0 0 0-3.12 1.36 19.837 19.837 0 0 0-2.12 1.96c2.54 1.21 3.55 4.53 4.42 6.62a1.5 1.5 0 0 0 .93.87 4.04 4.04 0 0 0 1.08.21v.54h-5.66zm8.84-3.32c0 1.55.58 2.07 1.32 2.07a1.62 1.62 0 0 0 1.57-1l.1-4.55c-1.83.71-2.99 1.29-2.99 3.48m6.09 3.66a3.085 3.085 0 0 1-3.04-1.7h-.09a4.528 4.528 0 0 1-3.78 1.76 3.031 3.031 0 0 1-3.2-2.99c0-2.22 1.27-2.9 2.59-3.37a29.9 29.9 0 0 0 4.4-1.67v-1.52c0-.89 0-2.64-1.51-2.64a1.842 1.842 0 0 0-1.3.49 8.144 8.144 0 0 1 .48 1.99 2 2 0 0 1-2.17 1.49 1.742 1.742 0 0 1-1.91-1.8c0-1.62 2.83-2.8 5.11-2.8 2.83 0 5.16.44 5.16 3.92 0 2.38-.16 5.18-.16 6.04a1.179 1.179 0 0 0 .95 1.23c.8 0 1.01-1.07 1.04-2.25h.66c-.06 2.2-.85 3.82-3.23 3.82m11.78-8.08a1.727 1.727 0 0 1-1.96-1.7 4.729 4.729 0 0 1 .32-1.25 2.63 2.63 0 0 0-2.09 1.25v7.43a1.135 1.135 0 0 0 .71 1.15 6.886 6.886 0 0 0 1.75.32v.55h-8.08v-.55a3.845 3.845 0 0 0 1.12-.21 1.056 1.056 0 0 0 .66-1.15V9.87a1.841 1.841 0 0 0-.69-1.38 2.972 2.972 0 0 0-1.32-.4v-.52l5.66-.31.19.18v1.75h.05a4.334 4.334 0 0 1 3.42-2.04 2.237 2.237 0 0 1 2.3 2.38 2.1 2.1 0 0 1-2.04 2.25m7.2 8.08c-2.43 0-3.65-1.41-3.65-3.74V8.59h-2.25V7.47h2.3v-3.8h3.76v3.8h3.34v1.12h-3.34v7.35c0 1.05.35 2.12 1.54 2.12 1.24 0 1.4-1.05 1.45-2.2h.69c-.05 2.12-1.06 4-3.84 4m8.04-3.66c0 1.55.58 2.07 1.32 2.07a1.62 1.62 0 0 0 1.57-1l.1-4.55c-1.83.71-2.99 1.29-2.99 3.48m6.09 3.66a3.1 3.1 0 0 1-3.05-1.7h-.07a4.563 4.563 0 0 1-3.79 1.76 3.031 3.031 0 0 1-3.2-2.99c0-2.22 1.27-2.9 2.59-3.37a29.9 29.9 0 0 0 4.4-1.67v-1.52c0-.89 0-2.64-1.51-2.64a1.842 1.842 0 0 0-1.3.49 8.144 8.144 0 0 1 .48 1.99 2.009 2.009 0 0 1-2.18 1.49 1.738 1.738 0 0 1-1.9-1.8c0-1.62 2.83-2.8 5.11-2.8 2.83 0 5.16.44 5.16 3.92 0 2.38-.16 5.18-.16 6.04a1.179 1.179 0 0 0 .95 1.23c.8 0 1.01-1.07 1.04-2.25h.66c-.06 2.2-.85 3.82-3.23 3.82m23.03-12.13c-2.06 0-2.35 3.08-2.35 5.6 0 3.14.45 5.91 2.33 5.91 1.79 0 2.3-2.7 2.3-5.86 0-2.75-.32-5.65-2.28-5.65m-.13 12.19a6.217 6.217 0 0 1-6.51-6.44c0-3.74 2.57-6.38 6.62-6.38 4.12 0 6.56 2.64 6.56 6.31 0 3.63-2.25 6.51-6.67 6.51m12.21 0a6.339 6.339 0 0 1-3.63-1.13l-.47.89h-.8l-.13-4.52h.53c.53 1.57 2.14 4.08 4.31 4.08a1.81 1.81 0 0 0 1.99-2.02c0-1.36-1.22-1.8-3.02-2.4-1.77-.61-3.47-1.6-3.47-4.03 0-2.02 1.75-3.69 4.69-3.69a7.466 7.466 0 0 1 3.2.71l.34-.74h.77l.16 4.13h-.5c-.59-1.8-2.09-3.42-3.57-3.42a1.6 1.6 0 0 0-1.78 1.75c0 1.36.85 1.65 2.91 2.33 2.09.68 3.55 1.86 3.55 4 0 2.64-2.22 4.06-5.08 4.06m10.7-.06c-2.43 0-3.65-1.41-3.65-3.74V8.59h-2.25V7.47h2.3v-3.8h3.76v3.8h3.33v1.12h-3.33v7.35c0 1.05.34 2.12 1.53 2.12 1.25 0 1.41-1.05 1.46-2.2h.69c-.05 2.12-1.06 4-3.84 4" fill="#7c7c7c" fill-rule="evenodd"/></svg>