<svg version="1.1" id="圖層_1" xmlns="http://www.w3.org/2000/svg" x="0" y="0" viewBox="0 0 396.9 266.5" xml:space="preserve"><style>.st0{fill:#01a3e1}</style><g id="圖層_2"><path d="M160.4 44.1h-9l-44.5 103h14.5l34.5-83 34.5 83h14.5zM292.4 44.1h-9l-44.5 103h14.5l34.5-83 34.5 83h14.5zM125.7 80.2c0-30-28.1-36-68.8-36v102.9h13.5v-29.2c32-1.8 55.3-11 55.3-37.7zm-55.3 25.7V56.5c23.4.4 40.8 4.8 40.8 23.7 0 19-17.4 25.1-40.8 25.7z"/><path class="st0" d="M56.9 157.6h280v3.3h-280z"/><path d="M326.5 55.6v-9.1h4c.8 0 1.4.1 1.8.2.4.2.8.5 1 .9.3.4.4.9.4 1.4 0 .6-.2 1.2-.6 1.6-.4.4-1.1.7-1.9.8.3.2.6.3.7.5.4.3.7.7 1 1.2l1.6 2.5H333l-1.2-1.9c-.4-.5-.6-1-.9-1.3-.2-.3-.4-.5-.6-.6s-.4-.2-.5-.2H327.7v4h-1.2zm1.2-5.1h2.6c.5 0 1-.1 1.3-.2.3-.1.5-.3.7-.5.2-.3.2-.5.2-.8 0-.4-.2-.8-.5-1.1s-.8-.4-1.5-.4h-2.9l.1 3z"/><path d="M329.8 58.3c-4 0-7.3-3.3-7.3-7.3s3.3-7.3 7.3-7.3 7.3 3.3 7.3 7.3-3.3 7.3-7.3 7.3zm0-13.6c-3.5 0-6.3 2.8-6.3 6.3s2.8 6.3 6.3 6.3 6.3-2.8 6.3-6.3c.1-3.5-2.8-6.3-6.3-6.3zM214.9 44.1h14.5v103h-14.5z"/><path d="M265.4 58.1h-88.5l6-14h88.5z"/><path class="st0" d="M304.7 104.5c-53.9-19.4-136.9-11.7-188.9 21.9l11.8 5.6c49.2-33 120.6-41 177.5-26.5l-.4-1z"/><path d="M59.5 180.2v5.8h-1.8v-15.2h4.2c1.6 0 2.9.4 3.8 1.2s1.3 1.9 1.3 3.4c0 1.4-.5 2.6-1.5 3.5s-2.3 1.4-4 1.4l-2-.1zm0-7.8v6.2h1.9c1.2 0 2.2-.3 2.8-.8.6-.6 1-1.4 1-2.4 0-2-1.2-3-3.6-3h-2.1zM77.5 186h-1.7v-1.7c-.8 1.3-1.9 2-3.3 2-1.1 0-1.9-.3-2.5-.9-.6-.6-.9-1.3-.9-2.3 0-2 1.2-3.2 3.6-3.5l3.3-.5c0-1.8-.7-2.8-2.2-2.8-1.3 0-2.5.4-3.5 1.3v-1.8c1.1-.7 2.3-1 3.7-1 2.6 0 3.8 1.4 3.8 4.1v7.1h-.3zm-1.8-5.5l-2.6.4c-.8.1-1.4.3-1.8.6s-.6.8-.6 1.5c0 .5.2 1 .6 1.3s.9.5 1.5.5c.9 0 1.6-.3 2.1-.9.6-.6.8-1.4.8-2.3v-1.1zM88.2 185.5c-.8.5-1.8.8-3 .8-1.5 0-2.8-.5-3.8-1.5s-1.4-2.3-1.4-3.9c0-1.8.5-3.2 1.5-4.3s2.4-1.6 4.1-1.6c1 0 1.8.2 2.5.5v1.8c-.8-.6-1.7-.8-2.6-.8-1.1 0-2 .4-2.7 1.2s-1.1 1.8-1.1 3.1.3 2.3 1 3 1.6 1.1 2.7 1.1c.9 0 1.8-.3 2.7-.9v1.5h.1zM91.7 172.4c-.3 0-.6-.1-.8-.3s-.3-.5-.3-.8.1-.6.3-.8.5-.3.8-.3.6.1.8.3.3.5.3.8-.1.6-.3.8c-.2.2-.5.3-.8.3zm.8 13.6h-1.7v-10.9h1.7V186zM101.4 171.4c-.3-.2-.7-.3-1.2-.3-1.2 0-1.8.8-1.8 2.3v1.7h2.5v1.5h-2.5v9.4h-1.7v-9.4h-1.9v-1.5h1.9v-1.8c0-1.1.3-2 1-2.7s1.5-1 2.5-1c.5 0 1 .1 1.3.2v1.6h-.1zM103.7 172.4c-.3 0-.6-.1-.8-.3s-.3-.5-.3-.8.1-.6.3-.8.5-.3.8-.3.6.1.8.3.3.5.3.8-.1.6-.3.8c-.2.2-.4.3-.8.3zm.9 13.6h-1.7v-10.9h1.7V186zM115.5 185.5c-.8.5-1.8.8-3 .8-1.5 0-2.8-.5-3.8-1.5s-1.4-2.3-1.4-3.9c0-1.8.5-3.2 1.5-4.3s2.4-1.6 4.1-1.6c1 0 1.8.2 2.5.5v1.8c-.8-.6-1.7-.8-2.6-.8-1.1 0-2 .4-2.7 1.2s-1.1 1.8-1.1 3.1.3 2.3 1 3 1.6 1.1 2.7 1.1c.9 0 1.8-.3 2.7-.9v1.5h.1zM136.1 186h-2l-1.6-4.3H126l-1.5 4.3h-2l5.8-15.2h1.8l6 15.2zm-4.2-5.9l-2.4-6.5c-.1-.2-.2-.6-.2-1-.1.4-.2.8-.2 1l-2.4 6.5h5.2zM137.5 185.6v-1.9c.9.7 2 1 3.1 1 1.5 0 2.3-.5 2.3-1.5 0-.3-.1-.5-.2-.7-.1-.2-.3-.4-.5-.5-.2-.2-.5-.3-.8-.4-.3-.1-.6-.3-1-.4-.5-.2-.9-.4-1.3-.6-.4-.2-.7-.4-.9-.7s-.4-.5-.6-.8c-.1-.3-.2-.7-.2-1.1 0-.5.1-1 .4-1.4.2-.4.5-.7.9-1s.8-.5 1.3-.6 1-.2 1.5-.2c.9 0 1.8.2 2.5.5v1.8c-.8-.5-1.7-.8-2.8-.8-.3 0-.6 0-.9.1s-.5.2-.7.3-.3.3-.4.5-.2.4-.2.6c0 .3.1.5.2.7.1.2.3.4.5.5s.4.3.7.4c.3.1.6.3 1 .4.5.2.9.4 1.3.6s.7.4 1 .7c.3.2.5.5.6.8s.2.7.2 1.1c0 .5-.1 1-.4 1.4-.2.4-.6.7-.9 1s-.9.5-1.4.6-1.1.2-1.6.2c-.9.1-1.9-.2-2.7-.6zM148.2 172.4c-.3 0-.6-.1-.8-.3s-.3-.5-.3-.8.1-.6.3-.8.5-.3.8-.3.6.1.8.3.3.5.3.8-.1.6-.3.8c-.2.2-.4.3-.8.3zm.9 13.6h-1.7v-10.9h1.7V186zM160.4 186h-1.7v-1.7c-.8 1.3-1.9 2-3.3 2-1.1 0-1.9-.3-2.5-.9-.6-.6-.9-1.3-.9-2.3 0-2 1.2-3.2 3.6-3.5l3.3-.5c0-1.8-.7-2.8-2.2-2.8-1.3 0-2.5.4-3.5 1.3v-1.8c1.1-.7 2.3-1 3.7-1 2.6 0 3.8 1.4 3.8 4.1v7.1h-.3zm-1.8-5.5l-2.6.4c-.8.1-1.4.3-1.8.6-.4.3-.6.8-.6 1.5 0 .5.2 1 .6 1.3s.9.5 1.5.5c.9 0 1.6-.3 2.1-.9.6-.6.8-1.4.8-2.3v-1.1zM178.8 172.4h-4.4V186h-1.8v-13.6h-4.4v-1.6h10.6v1.6zM186.7 176.9c-.3-.2-.7-.4-1.3-.4-.7 0-1.4.4-1.9 1.1s-.7 1.7-.7 2.9v5.5H181v-10.9h1.7v2.2c.2-.8.6-1.4 1.1-1.8s1.1-.6 1.7-.6c.5 0 .8 0 1 .1v1.9h.2zM196.3 186h-1.7v-1.7c-.8 1.3-1.9 2-3.3 2-1.1 0-1.9-.3-2.5-.9-.6-.6-.9-1.3-.9-2.3 0-2 1.2-3.2 3.6-3.5l3.3-.5c0-1.8-.7-2.8-2.2-2.8-1.3 0-2.5.4-3.5 1.3v-1.8c1.1-.7 2.3-1 3.7-1 2.6 0 3.8 1.4 3.8 4.1v7.1h-.3zm-1.7-5.5l-2.6.4c-.8.1-1.4.3-1.8.6-.4.3-.6.8-.6 1.5 0 .5.2 1 .6 1.3s.9.5 1.5.5c.9 0 1.6-.3 2.1-.9.6-.6.8-1.4.8-2.3v-1.1zM208.2 175.1l-4.3 10.9h-1.7l-4.1-10.9h1.9l2.8 7.9c.2.6.3 1.1.4 1.5l.3-1.5 2.9-7.9h1.8zM218.8 181h-7.7c0 1.2.4 2.1 1 2.8s1.5 1 2.6 1c1.2 0 2.3-.4 3.4-1.2v1.6c-1 .7-2.2 1-3.8 1-1.5 0-2.7-.5-3.6-1.5-.9-1-1.3-2.4-1.3-4.2 0-1.7.5-3.1 1.4-4.1 1-1.1 2.1-1.6 3.6-1.6s2.5.5 3.3 1.4 1.2 2.2 1.2 3.8l-.1 1zm-1.8-1.5c0-1-.3-1.8-.7-2.3s-1.1-.8-2-.8c-.8 0-1.5.3-2.1.9-.6.6-.9 1.4-1.1 2.3l5.9-.1zM223.1 186h-1.7v-16.1h1.7V186zM244.6 186h-2l-1.6-4.3h-6.5L233 186h-2l5.8-15.2h1.8l6 15.2zm-4.2-5.9l-2.4-6.5c-.1-.2-.2-.6-.2-1-.1.4-.2.8-.2 1l-2.4 6.5h5.2zM246 185.6v-1.9c.9.7 2 1 3.1 1 1.5 0 2.3-.5 2.3-1.5 0-.3-.1-.5-.2-.7-.1-.2-.3-.4-.5-.5-.2-.2-.5-.3-.8-.4-.3-.1-.6-.3-1-.4-.5-.2-.9-.4-1.3-.6s-.7-.4-.9-.7-.4-.5-.6-.8c-.1-.3-.2-.7-.2-1.1 0-.5.1-1 .4-1.4s.5-.7.9-1 .8-.5 1.3-.6 1-.2 1.5-.2c.9 0 1.8.2 2.5.5v1.8c-.8-.5-1.7-.8-2.8-.8-.3 0-.6 0-.9.1s-.5.2-.7.3-.3.3-.4.5-.2.4-.2.6c0 .3.1.5.2.7.1.2.3.4.5.5s.4.3.7.4.6.3 1 .4c.5.2.9.4 1.3.6s.7.4 1 .7c.3.2.5.5.6.8s.2.7.2 1.1c0 .5-.1 1-.4 1.4-.2.4-.6.7-.9 1-.4.3-.9.5-1.4.6s-1.1.2-1.6.2c-1 .1-1.9-.2-2.7-.6zM255.2 185.6v-1.9c.9.7 2 1 3.1 1 1.5 0 2.3-.5 2.3-1.5 0-.3-.1-.5-.2-.7s-.3-.4-.5-.5c-.2-.2-.5-.3-.8-.4-.3-.1-.6-.3-1-.4-.5-.2-.9-.4-1.3-.6s-.7-.4-.9-.7-.4-.5-.6-.8c-.1-.3-.2-.7-.2-1.1 0-.5.1-1 .4-1.4s.5-.7.9-1c.4-.3.8-.5 1.3-.6s1-.2 1.5-.2c.9 0 1.8.2 2.5.5v1.8c-.8-.5-1.7-.8-2.8-.8-.3 0-.6 0-.9.1s-.5.2-.7.3-.3.3-.4.5-.2.4-.2.6c0 .3.1.5.2.7s.3.4.5.5.4.3.7.4.6.3 1 .4c.5.2.9.4 1.3.6s.7.4 1 .7c.3.2.5.5.6.8s.2.7.2 1.1c0 .5-.1 1-.4 1.4-.2.4-.6.7-.9 1-.4.3-.9.5-1.4.6s-1.1.2-1.6.2c-.9.1-1.9-.2-2.7-.6zM269.6 186.3c-1.6 0-2.9-.5-3.8-1.5-1-1-1.4-2.4-1.4-4 0-1.8.5-3.3 1.5-4.3s2.3-1.5 4-1.5c1.6 0 2.9.5 3.8 1.5s1.4 2.4 1.4 4.1c0 1.7-.5 3.1-1.5 4.2-1 .9-2.4 1.5-4 1.5zm.1-10c-1.1 0-2 .4-2.7 1.1-.7.8-1 1.8-1 3.1s.3 2.3 1 3 1.5 1.1 2.6 1.1 2-.4 2.6-1.1.9-1.8.9-3.1c0-1.4-.3-2.4-.9-3.1-.5-.6-1.4-1-2.5-1zM285.2 185.5c-.8.5-1.8.8-3 .8-1.5 0-2.8-.5-3.8-1.5s-1.4-2.3-1.4-3.9c0-1.8.5-3.2 1.5-4.3s2.4-1.6 4.1-1.6c1 0 1.8.2 2.5.5v1.8c-.8-.6-1.7-.8-2.6-.8-1.1 0-2 .4-2.7 1.2s-1.1 1.8-1.1 3.1.3 2.3 1 3 1.6 1.1 2.7 1.1c.9 0 1.8-.3 2.7-.9l.1 1.5zM288.7 172.4c-.3 0-.6-.1-.8-.3-.2-.2-.3-.5-.3-.8s.1-.6.3-.8c.2-.2.5-.3.8-.3s.6.1.8.3.3.5.3.8-.1.6-.3.8c-.2.2-.5.3-.8.3zm.9 13.6h-1.7v-10.9h1.7V186zM300.9 186h-1.7v-1.7c-.8 1.3-1.9 2-3.3 2-1.1 0-1.9-.3-2.5-.9-.6-.6-.9-1.3-.9-2.3 0-2 1.2-3.2 3.6-3.5l3.3-.5c0-1.8-.7-2.8-2.2-2.8-1.3 0-2.5.4-3.5 1.3v-1.8c1.1-.7 2.3-1 3.7-1 2.6 0 3.8 1.4 3.8 4.1v7.1h-.3zm-1.8-5.5l-2.6.4c-.8.1-1.4.3-1.8.6s-.6.8-.6 1.5c0 .5.2 1 .6 1.3s.9.5 1.5.5c.9 0 1.6-.3 2.1-.9.6-.6.8-1.4.8-2.3v-1.1zM309.2 185.9c-.4.2-1 .3-1.6.3-1.9 0-2.9-1.1-2.9-3.2v-6.4h-1.9v-1.5h1.9v-2.7l1.7-.6v3.2h2.7v1.5h-2.7v6.1c0 .7.1 1.2.4 1.6.2.3.7.5 1.2.5.4 0 .8-.1 1.1-.4l.1 1.6zM312.4 172.4c-.3 0-.6-.1-.8-.3-.2-.2-.3-.5-.3-.8s.1-.6.3-.8c.2-.2.5-.3.8-.3s.6.1.8.3.3.5.3.8-.1.6-.3.8c-.2.2-.5.3-.8.3zm.9 13.6h-1.7v-10.9h1.7V186zM321.3 186.3c-1.6 0-2.9-.5-3.8-1.5-1-1-1.4-2.4-1.4-4 0-1.8.5-3.3 1.5-4.3s2.3-1.5 4-1.5c1.6 0 2.9.5 3.8 1.5s1.4 2.4 1.4 4.1c0 1.7-.5 3.1-1.5 4.2-1 .9-2.3 1.5-4 1.5zm.1-10c-1.1 0-2 .4-2.7 1.1-.7.8-1 1.8-1 3.1s.3 2.3 1 3 1.5 1.1 2.6 1.1 2-.4 2.6-1.1c.6-.7.9-1.8.9-3.1 0-1.4-.3-2.4-.9-3.1-.5-.6-1.3-1-2.5-1zM338.5 186h-1.7v-6.2c0-2.3-.8-3.5-2.5-3.5-.9 0-1.6.3-2.2 1s-.9 1.5-.9 2.5v6.2h-1.7v-10.9h1.7v1.8c.8-1.4 2-2.1 3.6-2.1 1.2 0 2.1.4 2.7 1.2s.9 1.9.9 3.3v6.7h.1z"/></g></svg>