<svg xmlns="http://www.w3.org/2000/svg" xmlns:xlink="http://www.w3.org/1999/xlink" viewBox="0 0 160 160"><defs><path id="a" d="M77.1 53.2c.3 4.8 5.6 36.2-17.6 31 10.5.2 11-9.6 9.3-16.1-.9-3.7-1.6-8.2 8.3-14.9"/></defs><clipPath id="b"><use xlink:href="#a" overflow="visible"/></clipPath><linearGradient id="c" gradientUnits="userSpaceOnUse" x1="-337.544" y1="341.094" x2="-336.644" y2="341.094" gradientTransform="matrix(27.2597 -34.3715 33.1459 26.2877 -2045.202 -20482.348)"><stop offset="0" stop-color="#28166f"/><stop offset=".73" stop-color="#0093dd"/><stop offset="1" stop-color="#75c5f0"/></linearGradient><path clip-path="url(#b)" fill="url(#c)" d="M73.7 100.7l26.6-33.5-31.8-25.3-26.6 33.5z"/><defs><path id="d" d="M91.5 70.4c-2 1.8-2.9 3.6-5.6 7.7-3.7 5.6-12.9 11.4-24.5 7 9.6 2 12.8-3.2 15.3-7.3 6.1-9.7 11.7-6 14.8-7.4"/></defs><clipPath id="e"><use xlink:href="#d" overflow="visible"/></clipPath><linearGradient id="f" gradientUnits="userSpaceOnUse" x1="-334.446" y1="341.746" x2="-333.526" y2="341.746" gradientTransform="matrix(35.5601 -16.2563 12.5421 27.4354 7668.703 -14727.393)"><stop offset="0" stop-color="#1a3029"/><stop offset=".5" stop-color="#00923f"/><stop offset="1" stop-color="#84c225"/></linearGradient><path clip-path="url(#e)" fill="url(#f)" d="M66.6 100.9l33-15.1-13.3-29.1-33 15.1z"/><g><defs><path id="g" d="M60.7 55.3c-2.2 2.3-17.2 15.3-9.6 24.5-1-4.1.8-7.3 2.9-9.7.7-.8 1.5-1.5 2.2-2.1 7.5-6.8 4-7.8 4.5-12.7"/></defs><clipPath id="h"><use xlink:href="#g" overflow="visible"/></clipPath><linearGradient id="i" gradientUnits="userSpaceOnUse" x1="-340.623" y1="325.367" x2="-339.663" y2="325.367" gradientTransform="matrix(-18.2084 24.9757 -23.0079 -16.7738 1346.07 14020.53)"><stop offset="0" stop-color="#da251d"/><stop offset=".19" stop-color="#da251d"/><stop offset=".61" stop-color="#e77817"/><stop offset="1" stop-color="#fff500"/></linearGradient><path clip-path="url(#h)" fill="url(#i)" d="M50.5 45.7L31.8 71.3l24.9 18.1 18.7-25.6z"/></g><g><defs><path id="j" d="M45 61.4c-.2.3-.7 1.2-.9 1.9-1.6 4.3-2.6 16.1 7.4 17.8-4.6-1.8-4-6.2-3.2-9.4 1.6-6-.1-7.5-1.9-8.7-.6-.3-1.2-.8-1.4-1.6"/></defs><clipPath id="k"><use xlink:href="#j" overflow="visible"/></clipPath><linearGradient id="l" gradientUnits="userSpaceOnUse" x1="-335.729" y1="313.101" x2="-334.869" y2="313.101" gradientTransform="matrix(-4.0789 21.0465 -12.0075 -2.3271 2438.384 7856.89)"><stop offset="0" stop-color="#974578"/><stop offset=".34" stop-color="#6f448a"/><stop offset=".61" stop-color="#5f3a74"/><stop offset=".75" stop-color="#4f2574"/><stop offset="1" stop-color="#28166f"/></linearGradient><path clip-path="url(#k)" fill="url(#l)" d="M41.8 59.6l-4 20.8L51.1 83l4.1-20.8z"/></g><g><defs><path id="m" d="M67.5 59.6c.8 5.1-1.5 10.6-5.2 12.6-9.1 4.9-9.1 13.2-3.7 14.1-5.7-.6-9.4-6.7-6-12.9 2.4-4.4 6.8-7.5 10.3-10 2-1.4 3.7-2.6 4.6-3.8"/></defs><clipPath id="n"><use xlink:href="#m" overflow="visible"/></clipPath><linearGradient id="o" gradientUnits="userSpaceOnUse" x1="-333.108" y1="326.403" x2="-332.188" y2="326.403" gradientTransform="matrix(8.732 29.9624 -23.4974 6.8479 10633.172 7804.902)"><stop offset="0" stop-color="#dd137b"/><stop offset=".39" stop-color="#dd137b"/><stop offset="1" stop-color="#5f3a74"/></linearGradient><path clip-path="url(#n)" fill="url(#o)" d="M42.1 61.7l8.7 29.7 24.7-7.2-8.6-29.7z"/></g><path d="M62.6 83.3c2.7-.9 4.5-2.7 3.9-4.1-.6-1.4-3.3-1.8-6-.9-2.6.8-4 2.7-4 3.9.7-2.1 5.3-4.4 7.2-2.3.9 1 .5 2.8-2.1 3.6-.4.1-.8.2-1.3.3.8-.1 1.6-.3 2.3-.5" fill-rule="evenodd" clip-rule="evenodd" fill="#f5b000"/><path d="M63 117.9l-.1-.3c0-.2 0-.3.2-.4 0 0 .1 0 .3-.1.1 0 .2.1.3.2.1.1.1.3.2.4V118c0 .1 0 .2-.1.2-.1.1-.2.1-.3.1-.1 0-.1-.1-.2-.1l-.3-.3m-5.5-4.5l.1-.1H57.9c.1 0 .1-.1.1-.1s.1 0 .1-.1c0 0 .1-.1.2-.1s.2 0 .2-.1l.1-.1h.2l.7-.1h.1c.1 0 .1 0 .2-.1.1 0 .1-.1.2-.1 0 0 .1 0 .3-.1v.1c.1-.1.1-.1.2-.1 0 0 .1 0 .1.1h.5s.1-.1.2-.1h.5c.1-.1.1-.1.3 0h.9l.2.1c.1 0 .2-.1.2-.1l.2.1H64.4l.1-.1.1.1s.1 0 .2-.1v.1H65.7c.2 0 .3.1.4.2.1.1.1.2.1.3V113.6c0 .1-.1.1-.1.1H66s-.1 0-.1.1h-.4c-.1 0-.2-.1-.2-.2s-.1-.2-.1-.2l-.3-.2h-.5-.2l-.5-.1h-.2l-.2-.1h-.1-.3c-.2 0-.2 0-.2.1s0 .1.1.2c0 .1.1.1.1.2-.1.1-.1.2-.1.2s-.1 0-.1.1c0 0-.1.1-.3.2l-.3.3c0 .1-.1.1-.2.1-.1.1-.1.2-.2.2l-.1.1v.2l-.1.2s-.1.1-.3.4h-.1l-.1.1h-.1s-.1 0-.1.1v.3c-.1.1-.1.2-.2.3l-.1.2c-.1.1-.1.2-.1.2s0 .1-.1.4v.1c0 .1-.2.4-.5.8 0 .1-.1.3-.1.5-.1.3-.2.5-.3.5 0 .2 0 .4-.1.5 0 .1-.1.3-.2.6s-.2.4-.2.5v.1s0 .1-.1.1c0 .2 0 .4-.1.7v.4l-.1.5v.8c0 .2-.1.3-.2.3H58.1c-.2 0-.4-.2-.6-.4-.2-.3-.3-.6-.3-1v-.3-.3-.1-.2c0-.3.1-.5.2-.7.1-.2.2-.3.2-.4v-.1-.2c0-.2.1-.3.2-.4v-.2c0-.1.1-.2.1-.4.1-.2.2-.3.3-.4 0 0 0-.1.1-.1v-.3s0-.1.1-.2l.1-.2c0-.1.1-.2.2-.2 0-.1.1-.1.1-.1s0-.1.1-.2c0-.1.1-.3.2-.4.1-.2.2-.3.3-.5.1-.2.2-.3.3-.3.1 0 .1 0 .1-.2v-.3l.3-.3.1-.1c0-.1 0-.1.1-.2l.1-.1c0-.1.1-.1.2-.2.1-.2.2-.4.4-.6l.1-.1c.1-.1.1-.2.2-.3.1 0 .1-.1.1-.2s.1-.1.2-.2c.1 0 .1-.1.1-.1h-.1-.4l-.1-.1h-.2l-.1.1h-.2l-.1.1h-.1l-.2-.1c-.1 0-.1 0-.2.1h-.2c-.2 0-.3 0-.4.1-.1.1-.2.1-.3.1l-.1-.1c-.1 0-.1 0-.2.1s-.1.1-.2.1h-.1c-.1 0-.2 0-.3.1-.1.1-.2.1-.2.1h-.1c-.1 0-.1.1-.1.1s-.1 0-.1.1l-.1.1s-.1 0-.1.1l-.1.1h-.1s-.1 0-.1.1l-.1.1s-.1 0-.1.1h-.1s-.1.1-.1.2-.1.2-.2.2c-.1.1-.1.1-.1.2 0 0 0 .1-.1.1-.2 0-.4-.2-.4-.6l.1-.4c.1-.3.2-.4.5-.5.1 0 .2 0 .4-.1l.5-.1zM89 119l.1-.2.1-.1s.1-.2.1-.4.1-.3.1-.4c.1-.1.1-.1.3-.1.1 0 .2 0 .3.1.1.1.2.3.4.6.1.4.2.7.3 1 .1.3 0 .4 0 .7 0 .3 0 .6-.1.9-.1.3-.2.6-.4.7v.1s.1.1 0 .1-.2.1-.2.1l-.1.1c-.1.1-.2.1-.2.2h-.1c-.1 0-.2 0-.3.1-.1.1-.2.1-.3.1-.3 0-.4 0-.5-.1l-.3-.3c-.1-.1-.1-.2-.2-.3-.1-.1-.1-.1-.1-.2 0 0 0-.1.1-.1 0 0 .1-.1.1-.2s.2-.2.4-.2h.2s.1 0 .2.1h.1c.1 0 .1.1.1.1.1 0 .2-.1.3-.2h.1l.1-.1.1-.2.2-.3v-.1-.2s0-.1.1-.1.1 0 .1-.1v-.1c0-.1-.1-.1-.1-.1l.1-.1V119.5 119.2v-.1c0-.1-.1-.1-.1-.1l-.2.2c-.1.1-.2.2-.2.3 0 .1-.1.1-.2.2-.1 0-.1.1-.2.2 0 .1-.1.1-.1.1l-.4.4-.5.4-.1.1c-.2 0-.3-.1-.3-.3 0-.1 0-.2.1-.3h.1c.2-.1.3-.2.3-.2s.1-.1.1-.2l.3-.2.3-.3c-.1-.2 0-.3 0-.4zm-3.5-.1l.1-.2.1-.1s.1-.2.1-.4.1-.3.1-.4c.1-.1.1-.1.3-.1.1 0 .2 0 .3.1.1.1.2.3.4.6.1.4.2.6.2.7 0 .1 0 .1.1.2 0 .1.1.2.1.2v.4l-.1.2v.2c0 .1-.1.2-.1.2v.1c.2-.1.3-.2.4-.2 0-.1.1-.1.1-.1l.2-.2.1-.1c0-.1.1-.1.1-.2l.1-.1.1-.1c.1 0 .1-.1.2-.2l.1-.1.2-.2c.1 0 .1-.1.1-.1s.1 0 .1.1.1.2.1.3c0 .1 0 .2-.1.2l-.2.2s-.1.1-.2.1c0 0-.1.1-.2.3l-.1.1-.1.1s-.1 0-.2.1v.1l-.1.1c-.1.2-.2.2-.2.3h-.1c0 .1 0 .1-.1.2-.1 0-.2.1-.2.1h-.1c-.1.1-.2.1-.3.1h-.2v.1s-.1.1-.2.1-.2.1-.2.1l-.1.1c-.1.1-.2.1-.2.2h-.1c-.1 0-.2 0-.3.1-.1.1-.2.1-.3.1-.3 0-.4 0-.5-.1l-.3-.3c-.1-.1-.1-.2-.2-.3-.1-.1-.1-.1-.1-.2 0 0 0-.1.1-.1 0 0 .1-.1.1-.2s.2-.2.4-.2h.2s.1 0 .2.1h.1c.1 0 .1.1.1.1.1 0 .2-.1.3-.2h.1l.1-.1.1-.2.2-.3v-.1-.2s0-.1.1-.1.1 0 .1-.1v-.1c0-.1-.1-.1-.1-.1l.1-.1V119.1 118.8v-.1c0-.1-.1-.1-.1-.1l-.2.2c-.1.1-.2.2-.2.3 0 .1-.1.1-.2.2-.1 0-.1.1-.2.2 0 .1-.1.1-.1.1l-.4.4-.5.4-.1.1c-.2 0-.3-.1-.3-.3 0-.1 0-.2.1-.3h.1c.2-.1.3-.2.3-.2s.1-.1.1-.2l.3-.2.3-.3c.2.1.2 0 .3-.1zm-3.6.4l-.2.2c-.1.1-.2.1-.2.2-.1 0-.2.2-.2.3-.1.2-.1.3-.1.3l.2-.1c.1 0 .2-.1.2-.2.1-.1.2-.1.3-.2v-.1s0-.1.1-.1.1-.1.2-.1h.1c.1-.1.1-.2.2-.2s.1-.1.1-.1c0-.1 0-.1-.1-.1 0 0-.1 0-.2.1h-.2s-.1 0-.1.1h-.1zm-1.3.4l.1-.1c.1 0 .2-.1.2-.2s.1-.2.2-.3l.1-.1c.1-.1.2-.2.5-.3.1 0 .1-.1.1-.1H83c.1 0 .2.1.3.2.1.1.1.2.1.3 0 .1 0 .3-.2.4-.1.1-.2.2-.3.2-.1.1-.1.1-.2.1l-.1.1-.1.1c-.1 0-.1.1-.2.3h-.1c-.1 0-.1.1-.1.2s-.1.1-.1.1l-.3.3h-.1v.1c0 .1 0 .1-.1.1l-.1.1h-.1l-.1.1c-.1 0-.1 0-.2.1V121.7c0 .1.1.2.4.2h.3c.1 0 .2 0 .2-.1.1 0 .1-.1.2-.1h.2c0-.1.1-.1.2-.2s.1-.1.2-.1h.1c0-.1 0-.1.1-.1l.1-.1h.1c0-.1.1-.2.2-.2s.2-.1.2-.1l.1-.1c.1 0 .1 0 .1-.1s.1-.1.1-.2c.1 0 .1-.1.1-.1h.1v.1-.1c0-.1 0-.1.1-.1l.3-.2c0-.1 0-.2.1-.2 0 0 .1 0 .1-.1h.1c.1 0 .1 0 .1.1v.4s0 .1-.1.1c0 0-.1.1-.1.2s0 .2-.1.2l-.2.2s-.1 0-.1.1l-.2.3-.1.1-.1.1-.1-.1s-.1 0-.1.1 0 .1-.1.2-.2.1-.2.2h-.1c-.1 0-.1 0-.1.1s-.1.1-.2.2c-.1 0-.2 0-.2.1h-.1s-.1 0-.2.1l-.5.2H81.6s-.1 0-.1-.1c0 0 0-.1-.1-.1H81.1s-.1 0-.2-.1c-.1 0-.1-.1-.1-.1-.1 0-.2-.1-.3-.3h-.1s-.1-.2-.2-.5l-.1-.1c-.1 0-.1-.1-.1-.1 0-.2 0-.4.1-.4.1-.1.1-.1.1-.2l.1-.4s0-.1.1-.1l.1-.3c0 .1 0 0 .1-.2zm-1.9-.5l.1-.1c0-.1.1-.2.2-.3l.2-.2h.1v-.1-.1l.2-.2v-.1c0-.1.1-.2.3-.3.1-.1.1-.2.1-.2h.1c0-.1 0-.1.1-.2v-.1l.1-.1c.1-.1.1-.1.1-.2s.1-.1.1-.1.1-.1.1-.2h.1v-.2c0-.1.1-.2.2-.4l.1-.3v-.1-.4c0-.1 0-.2-.1-.2l-.1.1s-.1.1-.1.3c-.1 0-.2.1-.2.2s-.1.2-.1.3v.1c0 .1 0 .1-.1.2s-.1.2-.2.3c-.2.3-.3.5-.3.5l-.1.1h-.1v.2s0 .1-.1.1c0 0 0 .1-.1.1 0 .1-.1.1-.1.2s0 .2-.1.2H79c-.1 0-.1.1-.1.1v.2s0 .1-.1.2c0 .1-.1.2-.1.3-.1.2-.1.3-.2.5 0 .2-.1.3-.1.3.2-.3.3-.3.3-.4zm-1.2 1.8v-.2c0-.1-.1-.1-.1-.2l-.2.2s-.1 0-.1.1l-.2.3-.1.1-.1.1-.1-.1s-.1 0-.1.1 0 .1-.1.2-.2.1-.2.2h-.1c-.1 0-.1 0-.1.1s-.1.1-.2.2c-.1 0-.2 0-.2.1h-.1s-.1 0-.2.1l-.5.2H74.5s-.1 0-.1-.1c0 0 0-.1-.1-.1H74s-.1 0-.2-.1c-.1 0-.1-.1-.1-.1-.1 0-.2-.1-.3-.3h-.1s-.1-.1-.2-.4l-.1.1c-.1.1-.2.2-.3.4h-.1l-.1.1c0 .1-.1.1-.1.1h-.1l-.1.1s-.1.1-.2.3c-.1.2-.3.3-.4.3 0 0-.1 0-.2-.1s-.2-.1-.2-.2-.1-.1-.2-.2-.1-.2-.1-.4v-.1-.1c-.1-.1-.2-.3-.2-.3v-.1-1c0-.1 0-.1-.1-.1l-.1.1-.1.1s-.1.1-.1.2c-.1 0-.1.1-.2.1 0 0 0 .1-.1.1h-.1l-.1.1v.1s0 .1-.1.1-.1.1-.2.3h-.1l-.1.2-.1.1h-.1c0 .1-.1.1-.1.2v.1c-.2.2-.3.4-.4.4-.1 0-.2-.1-.3-.3-.1-.2-.2-.4-.2-.5v-.3l-.1-.1v-.4-.1l-.1-.2V119.9v-.1s0-.1-.1-.1c0 0-.1.1-.3.2l-.3.3c0 .1-.1.1-.2.2-.1 0-.1.2-.2.4 0 0-.1.1-.2.3h-.1c-.1 0-.1.1-.1.4 0 0 0 .1-.1.1s-.1.1-.1.1c0 .1-.1.1-.1.2-.1 0-.2.1-.2.1s0 .1-.1.2-.1.2-.1.2 0 .1-.1.1l-.1.1v.1c0 .1-.1.1-.2.1-.3 0-.4-.3-.5-.9 0-.1 0-.1.1-.2s.1-.2.1-.3c.1-.1.2-.2.3-.4.1-.2.2-.3.2-.3l.1-.1v-.1-.1c0-.1 0-.1-.1-.1s-.1 0-.2.1c0 0-.1.1-.2.1s-.1.1-.1.1c-.1 0-.1.1-.2.2s-.1.1-.1.2c0 0 0 .1-.1.1 0 0 0 .1-.1.1h-.1-.1s-.1 0-.1-.1c0 .1-.1.2-.1.2l-.1.1-.2.2-.3.3-.2.2-.3.2v.1l-.1.1c-.1 0-.1.1-.2.1l-.1.1h-.1c-.1 0-.1 0-.2.1 0 .1-.1.1-.1.1H62c-.1 0-.2-.1-.3-.2-.1-.1-.2-.2-.2-.3v-.1-.1c0-.1 0-.1-.1-.1v-.1-.2-.1V121.4c0-.1 0-.1.1-.1V121l.1-.1s0-.1.1-.2c0-.1 0-.1.1-.2 0-.1.1-.1.1-.1 0-.1 0-.1-.1-.1 0 0-.1 0-.2.1h-.1l-.1.1h-.1s-.1 0-.1.1H61s-.1.1-.1.2-.1.1-.2.1h-.1l-.1.1c0 .1-.1.1-.1.2l-.1.1c-.1 0-.2-.1-.2-.2v-.3l.1-.1s.1 0 .1-.1h.1c.1-.1.1-.2.2-.2l.1-.1h.1l.1-.1c.1-.1.1-.1.2-.1h.1c0-.1.1-.1.1-.2l.2-.2h.1c.1 0 .1-.1.2-.1.1-.1.1-.1.2-.1s.3.1.4.2c.2.1.2.3.2.4l-.1.6c0 .4-.1.6-.2.6v.2c-.1 0-.1.1-.1.1l.1.2s0 .1-.1.1v.3c0 .1 0 .1-.1.1H62.4l.1-.2s.1 0 .1-.1c.1 0 .1-.1.3-.1l.8-.7c.1-.1.2-.2.3-.2.1-.2.3-.3.5-.4.1 0 .1-.1.1-.1l.1-.1v-.1c0-.1.2-.1.4-.2h.1l.4-.1c.2 0 .3.2.3.7v.2l.2-.2.2-.2s.1-.1.2-.1l.2-.1c.1 0 .1-.1.2-.2l.2-.2c.1-.1.2-.1.3-.1h.1l.1-.1c0-.1.1-.1.2-.1s.2.1.3.2c.1.1.2.3.2.4v.2s0 .1.1.3v.8c0 .1 0 .1.1.1.1-.1.1-.1.2-.1l.1-.1.1-.1.1-.1.1-.1s.1 0 .1-.1c.2-.3.4-.4.5-.5l.1-.1.1-.1.1-.1h.1l.1-.1c.1 0 .1-.1.1-.1.2 0 .3.1.4.2.1.1.2.2.2.3v.2l.1.2v.2s0 .1.1.1c0 .1.1.1.1.1 0 .1-.1.1-.1.1v.5s0 .1.1.2H71.5s.1 0 .1-.1 0-.1.1-.2h.2v-.1c0-.1.1-.2.3-.3.1-.1.1-.1.2-.1 0-.1 0-.2.1-.2.1-.1.1-.1.1-.2l.1-.4s0-.1.1-.1l.1-.3s0-.1.1-.2l.1-.1c.1 0 .2-.1.2-.2s.1-.2.2-.3l.1-.1c.1-.1.2-.2.5-.3.1 0 .1-.1.1-.1H75.4c.1 0 .2.1.3.2.1.1.1.2.1.3 0 .1 0 .3-.2.4-.1.1-.2.2-.3.2-.1.1-.1.1-.2.1l-.1.1-.1.1c-.1 0-.1.1-.2.3h-.1c-.1 0-.1.1-.1.2s-.1.1-.1.1l-.3.3H74v.1c0 .1 0 .1-.1.1l-.1.1h-.1l-.1.1c-.1 0-.1 0-.2.1V121.9c0 .1.1.2.4.2h.3c.1 0 .2 0 .2-.1.1 0 .1-.1.2-.1h.2c0-.1.1-.1.2-.2s.1-.1.2-.1h.1c0-.1 0-.1.1-.1l.1-.1h.1c0-.1.1-.2.2-.2s.2-.1.2-.1l.1-.1c.1 0 .1 0 .1-.1s.1-.1.1-.2c.1 0 .1-.1.1-.1h.1v.1-.1c0-.1 0-.1.1-.1l.3-.2c0-.1 0-.2.1-.2 0 0 .1 0 .1-.1h.1s.1 0 .1.1c.1-.1.1-.2.1-.3l.1-.4.2-.6s0-.1.1-.1c0-.1.1-.1.1-.2 0 0 0-.1.1-.2h.1v-.1-.1l.2-.4.1-.3c0-.1.1-.1.1-.2.1-.2.1-.3.2-.3 0-.1.1-.2.1-.3h.1c0-.1 0-.1.1-.2v-.1s0-.1.1-.3l.2-.2v-.1s0-.1.1-.2c.1 0 .1-.1.2-.2l.1-.1c0-.1 0-.2.1-.3.1 0 .1-.1.2-.1h.1c0-.2 0-.3.1-.3l.1-.1c.1 0 .1-.1.1-.1h.2c.2 0 .3.1.5.2.1.1.2.3.2.5 0 .1 0 .1-.1.2v.1c0 .3-.1.4-.1.4h-.1v.3c-.1 0-.1.1-.1.3 0 0 0 .1-.1.1 0 .1-.1.2-.1.3 0 .1-.1.2-.1.2h-.1v.1c0 .1 0 .1-.1.2s-.1.1-.1.2-.1.2-.1.3l-.1.1-.1.1c0 .1-.1.1-.1.2l-.1.3c-.1.2-.2.3-.2.3 0 .2 0 .3-.1.3 0 0 0 .1-.1.1l-.1.1c0 .1 0 .1-.1.1l-.1.3c-.1 0-.1.1-.1.2-.1 0-.1.1-.1.2 0 0 0 .1-.1.1l.3-.1c-.1.1-.2.2-.2.3 0 .1-.1.2-.2.2s-.2 0-.3-.1c0 .1 0 .1-.1.2v.2s0 .2-.1.5c0 .1.1.1.1.2v.4c0 .2.1.2.2.2h.2s.1 0 .2-.1l.2-.1h.1s.1 0 .1-.1v-.1l.1-.1s.1 0 .1-.1c0 0 .1-.1.1 0h.1c.1 0 .1-.1.1-.2l.1-.1h.1s.1 0 .1-.1.1-.1.1-.2h.2c.1-.3.2-.4.3-.4.1-.1.1-.1.1-.2s0-.1.1-.1c0 0 .1 0 .1-.1h.1c.1 0 .1 0 .1.1v.2l.1.2v.5s-.1 0-.1.1-.1.1-.1.1c-.1 0-.1.1-.1.2h-.2c0 .1-.1.2-.1.3-.1 0-.1.1-.2.3h-.1c0 .1-.1.1-.1.1s-.1 0-.1.1l-.1.1c-.1 0-.1.1-.1.1s0 .1-.1.1c0 0-.1 0-.1.1h-.1-.1c-.1.1-.1.1-.2.1h-.1-.1c-.1 0-.1 0-.2-.1h-.1c-.1 0-.2-.1-.3-.2-.1-.2-.2-.3-.2-.5l-.1-.1c-.1-.1-.1-.1-.1-.2V121.4h.1l-.7-.4zm28.9 0c0-.1.1-.2.1-.2.1-.1.1-.1.1-.2.1-.1.2-.2.3-.4.1-.2.2-.3.2-.3H106.8l-.1-.1h-.4s-.1.1-.3.1c-.1 0-.3.1-.4.2-.1.1-.2.1-.2.1 0 .1-.1.2-.3.3-.1 0-.2.1-.2.2l-.2.2v.1l-.1.1c-.1 0-.1.1-.1.1 0 .1 0 .2-.1.2 0 .1-.1.1-.1.2 0 .2.1.4.1.4s.1 0 .2-.1c.1 0 .2-.1.2-.1s.1 0 .1-.1l.1-.1h.2l.1-.1c.1 0 .1-.1.1-.1.1 0 .2-.1.3-.2l.1-.1c.1 0 .1-.1.2-.1h.4zm10-1.2l.2-.1c.1 0 .1-.1.2-.2l.2-.2c.1-.1.2-.1.3-.1h.1l.1-.1c0-.1.1-.1.2-.1s.2.1.3.2c.1.1.2.3.2.4v.2s0 .1.1.3v.8c0 .1 0 .1.1.1.1-.1.1-.1.2-.1l.1-.1.1-.1.1-.1.1-.1s.1 0 .1-.1c.2-.3.4-.4.5-.5l.1-.1.1-.1.1-.1h.1l.1-.1c.1 0 .1-.1.1-.1.2 0 .3.1.4.2.1.1.2.2.2.3v.2l.1.2v.2s0 .1.1.1c0 .1.1.1.1.1 0 .1-.1.1-.1.1v.5s0 .1.1.2H121.4s.1 0 .1-.1 0-.1.1-.2h.2v-.1s.3-.2.6-.6c.1-.1.1-.2.2-.3l.3-.3c.2-.2-.2.3 0 .2.3-.3.5-.6.6-.7.1-.1.3-.2.3-.2.1 0 .1 0 .1.1v.2c0 .1.1.1.1.2s-.1.2-.2.3c-.1.1-.2.3-.8.9-.1.1-.2.1-.3.2-.3.3-.6.5-.6.6h-.1l-.1.1c0 .1-.1.1-.1.1h-.1l-.1.1s-.1.1-.2.3c-.1.2-.3.3-.4.3 0 0-.1 0-.2-.1s-.2-.1-.2-.2-.1-.1-.2-.2-.1-.2-.1-.4v-.1-.1c-.1-.1-.2-.3-.2-.3v-.1-1c0-.1 0-.1-.1-.1l-.1.1-.1.1s-.1.1-.1.2c-.1 0-.1.1-.2.1 0 0 0 .1-.1.1h-.1l-.1.1v.1s0 .1-.1.1-.1.1-.2.3h-.1l-.1.2-.1.1h-.1c0 .1-.1.1-.1.2v.1c-.2.2-.3.4-.4.4-.1 0-.2-.1-.3-.3-.1-.2-.2-.4-.2-.5v-.3l-.1-.1v-.4-.1l-.1-.2V119.7v-.1s0-.1-.1-.1c0 0-.1.1-.3.2l-.3.3c0 .1-.1.1-.2.2-.1 0-.1.2-.2.4 0 0-.1.1-.2.3h-.1c-.1 0-.2.1-.1.4 0 0 0 .1-.1.1s-.1.1-.1.1c0 .1-.1.1-.1.2-.1 0-.2.1-.2.1s0 .1-.1.2-.1.2-.1.2 0 .1-.1.1l-.1.1v.1c0 .1-.1.1-.2.1-.3 0-.4-.3-.5-.9 0-.1 0-.1.1-.2s.1-.2.1-.3c.1-.1.2-.2.3-.4.1-.2.2-.3.2-.3l.1-.1v-.1-.1c0-.1 0-.1-.1-.1s-.1 0-.2.1c0 0-.1.1-.2.1s-.1.1-.1.1c-.1 0-.1.1-.2.2s-.1.1-.1.2c0 0 0 .1-.1.1 0 0 0 .1-.1.1h-.1-.1c0 .1 0 .1-.1.1 0 .1 0 .2-.1.2l-.1.1c-.1.1-.1.2-.3.3-.1.1-.2.2-.2.3 0 .1-.1.1-.1.1h-.1-.1v.2c-.1 0-.1.1-.1.1-.1 0-.1 0-.1.1l.1.1c0 .1 0 .1-.1.1 0 0-.2.1-.4.3h-.2l-.1.1h-.4s-.1 0-.3-.1c-.2-.1-.3-.2-.3-.3 0-.1-.1-.2-.2-.3-.1-.1-.1-.2-.1-.2 0-.2-.1-.4 0-.5v-.2-.2-.3c.1-.3.1-.5.2-.5 0-.1.1-.1.1-.2l.1-.1v-.1-.1-.1c0-.1-.1-.2-.2-.2l-.1.1c0 .1-.1.1-.1.2-.1.1-.1.1-.2.1l-.1.1c-.1 0-.1.1-.2.2l-.1.1c0 .1 0 .1-.1.2 0 0-.1 0-.2.1v.1c0 .1-.1.1-.1.1 0 .1-.1.1-.1.2 0 0-.1 0-.1.1h-.1v.2c-.1 0-.1.1-.1.1s-.1.1-.1.2l-.1.1c-.1 0-.2.1-.2.2s-.1.1-.1.1c-.1 0-.1.1-.2.1 0 0-.1 0-.2.1v.1s-.1.1-.2.1-.2.1-.2.1h-.1c-.1 0-.2 0-.2-.1-.1 0-.1-.1-.2-.1 0 0 0-.1-.1-.1 0 0 0-.1-.1-.1 0-.1-.1-.1-.1-.2v-.1-.1-.1-.1-.5l-.1.1s-.1.1-.2.1c0 0-.1.1-.1.2l-.1.1s0 .1-.1.1-.1 0-.1.1l-.1.1h-.1s0 .1-.1.1c0 .1-.1.1-.1.2l-.5.4c-.1 0-.1.1-.2.1-.3.2-.6.4-.7.4-.1 0-.3 0-.4-.1-.2-.1-.3-.2-.3-.3l-.1-.3c0-.1-.1-.2-.1-.3v-.1c-.1.1-.1.2-.2.2l-.1-.1c-.1.1-.1.2-.1.2l-.2.2h-.1v.2l-.1.1c-.1.1-.2.1-.2.1s-.1.1-.3.1l-.1-.1s-.1-.1-.2-.1-.1-.1-.2-.2c0-.1-.1-.2-.1-.2 0-.1-.1-.1-.1-.1V122.1l.1-.1c0-.1 0-.1-.1-.1v-.4c0-.3.1-.5.1-.6v-.4c0-.1 0-.1-.1-.1h-.2s-.1 0-.1.1-.1.1-.1.2h-.2l-.2.2c-.1 0-.2.1-.3.2 0 0-.1 0-.2.1s-.1.1-.2.1v.1h-.1c0 .1-.1.2-.2.2l-.1.1c-.1 0-.2.1-.2.1 0 .1-.1.1-.1.1h-.1c-.1 0-.1.1-.1.2 0 0-.1.1-.2.3l-.3.3s0 .1-.1.1c0 .1-.1.2-.1.2-.1 0-.1.1-.1.1h-.1c-.1 0-.2-.1-.2-.2-.1-.1-.1-.2-.1-.2v-.2s0-.1.1-.3c0-.2.1-.3.2-.4.1-.1.1-.3.1-.5v.1c0 .1-.1.2-.2.2-.2.2-.2.3-.3.4h-.1l-.1.1-.1.1c-.1 0-.1 0-.1.1s0 .1-.1.1c0 0 0 .1-.1.1 0 0 0 .1-.1.1 0 0-.1 0-.1-.1l-.1.1v.2s0 .1-.1.1c0 .1-.1.1-.3.2v.1c0 .1-.1.1-.2.1l-.2.2-.3.1h-.1c0 .1 0 .1-.1.1h-.1l-.1.1c-.1 0-.1 0-.1-.1 0 .2 0 .3-.1.3 0 0-.1 0-.1-.1l-.1.1h-.1c-.2 0-.3-.1-.5-.2h-.1c-.1 0-.2-.1-.3-.3-.1 0-.2-.1-.2-.2 0 0-.1-.1-.1-.2s0-.1-.1-.2c0-.1-.1-.1-.1-.1l-.2-.5c0-.2 0-.3-.1-.4v-.4s0-.2.1-.4.1-.4.1-.5v-.2l.2-.6.1-.1v-.1s0-.1.1-.2c0-.1.1-.2.1-.2l.1-.1.1-.1v-.2-.2l.1-.1s0-.1.1-.1c0-.1 0-.1.1-.2l.1-.1h.2s.1 0 .1.1v.1s.1 0 0-.1l-.1-.1s-.1 0-.1-.1v-.1-.1s0-.1.1-.1l.1-.1s.1 0 .1-.1c-.1 0-.1-.1-.1-.1 0-.1.1-.1.1-.3 0-.1.1-.2.2-.2h.1s0-.1.1-.2l-.1-.1c.1-.1.1-.2.2-.2 0-.1.1-.2.3-.3.2-.3.3-.4.4-.4l.1.1h.1v.1l-.2.2.1-.1c0-.1.1-.1.1-.2l-.1-.1s.1-.1.2-.3c.1-.1.3-.3.5-.4l.1-.1h.1s.1 0 .2.1v-.1-.1c0-.1.1-.1.3-.2.1 0 .2-.1.3-.1l.1-.5h.6s.1 0 .2.1l.1-.1.2.2c.2.2.3.3.3.5v.6c0 .1 0 .2-.1.2 0 .2 0 .4-.1.5 0 .1-.1.2-.1.4s-.1.4-.3.7c0 0 0 .1-.1.1-.1.1-.1.2-.2.4-.1.1-.2.3-.2.3 0 .1-.1.1-.2.2v.2c-.1.3-.3.4-.5.4-.1 0-.2-.1-.3-.2-.1-.1-.2-.2-.2-.3 0-.2.2-.5.7-.8h.1v-.1-.1c0-.1.1-.1.2-.2s.1-.2.2-.2l.2-.4v-.2s0-.1.1-.1v-.1c0-.1 0-.1.1-.1v-.2c0-.1 0-.2.1-.4 0-.2-.1-.4-.1-.4 0-.1-.1-.1-.2-.1s-.2 0-.3.1c-.1.1-.2.1-.3.1h-.1-.1l-.1.1s0 .1-.1.1c0 0-.1 0-.1.1 0 0-.1.1-.2.1l-.1.1-.1.1c0 .1-.1.2-.2.1 0 0-.1.1-.1.2v.1h-.1V116.3l-.2.3h-.1c0 .2 0 .3-.1.3 0 .1-.1.1-.2.2v.1h-.1l.1.1s0 .1-.1.2c0 .1-.1.1-.1.1 0 .1 0 .2-.1.3v.1s0 .1-.1.1v.1c0 .1-.1.2-.3.3l.1.2s0 .1-.1.2v.1c0 .1 0 .1-.1.2 0 0 0 .1-.1.1v.2c-.1.1-.1.2-.1.3 0 .1 0 .1-.1.2 0 0 0 .1-.1.2 0 .1-.1.1-.1.2 0 .2-.1.3-.1.3l-.1.1V121.1c0 .1 0 .1-.1.2.1 0 .1.1.1.1v.3c0 .1-.1.1-.1.2s0 .1-.1.2l.1.1v.5l.1.1h-.1c0 .1 0 .1.1.1l.2.4h.4c.1 0 .2-.1.3-.1h.1c.1 0 .2 0 .2-.1s.1-.1.1-.1.1 0 .2-.1v-.1l.1-.1.1-.1c.1-.1.3-.2.3-.3h.1s.1 0 .1-.1l.3-.3c.2-.2.3-.3.3-.4 0-.1.1-.1.1-.1h.1v-.1s.1-.1.3-.2c0-.1.1-.2.2-.2l.2-.2h.1l.1-.1v-.1c0-.1 0-.1.1-.1h.1c0-.2.1-.2.1-.2h.1v-.1c0-.1.1-.1.2-.2.1-.2.1-.3.1-.4l.1-.1v-.1h.1v-.1c0-.1.1-.3.2-.6.1-.4.2-.6.2-.6s0-.1.1-.2c0-.1.1-.2.1-.5.1-.2.2-.5.3-.7 0 0 0-.1.1-.2 0-.1.1-.2.1-.3l.1-.1s.1-.1.1-.2c.1-.1.1-.2.2-.3.1-.1.1-.1.1-.2s.1-.1.1-.2c0 0 .1-.1.1-.2s.1-.1.2-.1c.2 0 .3.1.4.2.1.2.1.3.1.4 0 0 0 .1-.1.3l-.1.6c-.1 0-.1.1-.1.2 0 .3-.1.5-.2.8v.2c0 .1 0 .2-.1.3-.1.1-.1.2-.2.3l-.6.9v.1l-.1.1h-.1c-.1 0-.2 0-.2.1v.1s-.1.3-.4.7c0 0 0 .1-.1.3l-.1.2c-.1.1-.1.3-.2.4 0 .1-.1.2-.1.3-.1.2-.1.3-.1.3l.2-.2c.1-.1.2-.2.2-.3.1 0 .1-.1.1-.2h.1s.1 0 .1-.1h.1l.1-.1v-.1c.1 0 .2-.1.2-.1 0-.1.1-.1.1-.1s.1 0 .1-.1c.1-.1.1-.2.2-.2.1-.1.2-.1.2-.1s.1-.1.3-.1c.1-.1.3-.1.3-.1h.2c.2 0 .3.1.5.2s.2.2.2.4v.7c0 .1 0 .2-.1.4 0 .2-.1.3-.1.3v.5s0 .1.1.1c0 0 .1 0 .1-.1 0 0 .1 0 .1-.1s.1-.1.2-.2l.1-.1c.1 0 .1-.1.2-.2 0 0 .1-.1.2-.3.1-.1.3-.2.4-.3 0-.1 0-.1.1-.2s.1-.1.1-.2.1-.1.2-.2l.2-.2c.1-.2.3-.3.5-.4 0 0 .1-.1.2-.1.1-.1.2-.1.3-.2.1 0 .2-.1.3-.1.1-.1.2-.1.2-.1h.1s.1-.1.3-.2c0 0 .1 0 .1.1l.1-.1h.1c.3 0 .4.2.5.6 0 .1 0 .1.1.1 0 0 .1-.1.2-.3.1-.2.2-.3.5-.2.2 0 .3.1.3.4 0 .3-.1.6-.3.9v.1l-.1.3V121.7c0 .1 0 .2.1.2s.2-.1.3-.2l.1-.1h.1c0-.1.1-.1.1-.2l.1-.1c.1 0 .1 0 .1-.1s.1-.1.1-.2h.1s0-.1.1-.1l.1-.1c.1-.1.1-.2.2-.2h.1s.1 0 .1-.1c0 0 0-.1.1-.1s.1-.1.2-.2l.2-.2.1-.1h.1v-.1c.2-.1.3-.3.4-.4v-.1l.1-.1c.1-.2.3-.3.5-.3.3 0 .4.2.5.5l.1.1c0 .1.1.2.2.4s.2.3.2.4v.4c-.1 0-.2.2-.3.5l-.1.1c0 .1 0 .2-.1.3-.1 0-.1.1-.1.1v.9c0 .1.1.1.3.1H111.8l.1-.1c.1 0 .1 0 .2-.1 0 0 .1-.1.2-.1s.1-.1.2-.1c.1-.1.1-.1.2-.1s.1-.1.2-.1c0-.1.1-.1.2-.2s.2-.2.3-.4l.2-.2s0-.1.1-.2c0-.1.1-.2.2-.2.1-.2.3-.3.5-.5.1 0 .1-.1.1-.1l.1-.1v-.1c0-.1.2-.1.4-.2h.1l.4-.1c.2 0 .3.2.3.7v.2l.2-.2.2-.2c.1-.4.1-.4.2-.5zm-58-27.5c.1-.2.6-.5 1.4-.9.8-.4 1.2-.6 1.4-.5.1.2.2.6.1 1.3-.1.7-.2 1.1-.3 1.4-.2.2-.6.5-1.3.9-.7.3-1.1.5-1.3.4-.2-.1-.3-.5-.2-1.2-.1-.7 0-1.2.2-1.4zm-.5 13.7v-5.6c0-1-.1-1.6-.2-1.8-.1-.2-.6-.4-1.4-.5-.2 0-.3-.1-.3-.4l.1-.4.3-.3h.6c.2 0 .4-.1.5-.1.1 0 .4-.1.9-.3.5-.2 1-.4 1.5-.7.5-.3.8-.4.8-.4.1 0 .2.2.2.7v9.5c0 1.5.3 2.4 1 2.7.7.3 1 .5 1 .7v.2c0 .3-.2.5-.6.5-.3 0-.7 0-1.3-.1-.6-.1-1-.1-1.3-.1-.4 0-.9 0-1.5.1s-1.1.1-1.3.1c-.1 0-.3 0-.4-.1-.1-.1-.2-.2-.2-.3l.1-.1c0-.2.2-.4.5-.6.7-.3 1-1.2 1-2.7zm10.1-3.9c-.9 0-1.4.3-1.4.8 0 .1 0 .3.1.5s.1.4.2.7c.3 1.2.9 2.1 1.7 2.9.8.8 1.8 1.1 2.9 1.1.5 0 1.1-.1 1.6-.3.6-.4 1.2-.7 1.6-.9.4-.2.7-.4.9-.4.2 0 .3 0 .3.1l.1.3c0 .5-.5 1-1.4 1.7-.8.6-1.4.9-1.9 1.1-.5.1-.9.3-1.4.3-.5.1-1 .1-1.5.1-1.2 0-2.2-.2-3.2-.7-1-.6-1.8-1.4-2.3-2.4-.5-1.1-.8-2.1-.8-3.3 0-1.5.4-2.9 1.1-4.3.7-1.3 1.7-2.3 3-2.8.7-.2 1.4-.4 2.2-.4 1.4 0 2.6.4 3.8 1.1 1.1.7 1.9 1.8 2.2 3l.1 1c0 .5-.4.8-1.2.8H68zm-.2-.8h1.6c.8 0 1.5 0 2.1-.1.6-.1.9-.2 1-.4l.1-.7c0-.5-.2-1.1-.6-1.7-.4-.6-.8-1-1.3-1.1-.5-.2-.9-.3-1.2-.3-.7 0-1.3.2-1.8.7-.5.5-.8 1.1-.9 1.9l-.2.9c0 .5.4.8 1.2.8zm10.5 4.5v-7.4c0-.2 0-.4-.1-.5-.1-.1-.2-.1-.4-.1h-.5c-.2 0-.4-.1-.4-.2l-.1-.2c0-.2.1-.4.3-.6.4-.5.7-.8.8-.9.5-.6 1-1.1 1.4-1.5.3-.3.5-.7.9-1.3.2-.4.4-.7.5-.8l.4-.2.3.1v3.2c0 .4 0 .6.1.7.1.2.4.2.9.2.4 0 .7 0 1.1-.1.4-.1.6-.2.8-.3.2-.1.3-.2.5-.3.1.1.2.2.2.3 0 .7-.2 1.2-.5 1.5-.3.2-.6.3-1.1.3H82c-.3 0-.4 0-.6.1-.1.1-.2.2-.2.4v7.2c0 .9.1 1.5.2 1.9.2.6.6.9 1.2.9h.5l.9-.3c.3-.1.5-.2.7-.2.3 0 .4.1.4.3v.1c-.1.2-.2.4-.4.7-.1.1-.3.3-.7.5-.8.5-1.7.8-2.8.8-1.2 0-2-.4-2.4-1.2-.4-.7-.5-1.7-.5-3.1zm9.8.2v-5.6c0-.7 0-1.2-.1-1.5-.2-.5-.5-.7-1.1-.7-.5 0-.7-.2-.7-.6 0-.4.2-.6.7-.6.8-.1 1.5-.4 2.2-.7.6-.3 1.3-.6 1.9-.9.2 0 .3.4.3 1.1v1.7c.7-.7 1.4-1.2 2-1.6.8-.5 1.6-.7 2.3-.7l1.1.1c1.1.4 2 1.2 2.4 2.5.4 1 .5 2.3.5 3.8v3.4c0 1.1.1 1.8.2 2 .2.3.7.6 1.6.9.1.1.2.2.2.4 0 .4-.2.6-.7.6h-.1c-.5 0-1 0-1.6-.1-.6 0-1-.1-1.4-.1l-1.6.2h-.6l-.4-.1c-.1-.1-.2-.2-.2-.3l.1-.4c.4-.3.7-.5.9-.7.4-.3.6-.8.6-1.6v-3c0-1 0-1.9-.1-2.7-.1-.8-.2-1.4-.5-1.8-.2-.4-.6-.7-1-.9-.4-.2-.9-.3-1.4-.3-.7 0-1.2.2-1.7.6-.5.5-.8 1.2-.8 2.1v5.1c0 1.5.4 2.4 1.2 2.7.8.3 1.2.5 1.2.6v.1c0 .4-.2.6-.7.6-.3 0-.8 0-1.5-.1s-1.2-.1-1.4-.1c-.4 0-.9 0-1.5.1s-1.1.1-1.3.1c-.1 0-.3 0-.4-.1-.1-.1-.2-.2-.2-.3l.1-.1c0-.2.2-.4.5-.6.7-.1 1-1 1-2.5zm21.2-3.3c-.9.2-1.5.4-2.1.6-.8.4-1.3.8-1.7 1.4-.3.4-.4 1-.4 1.6 0 .3.1.6.2.9.1.3.3.5.6.7.2.1.3.1.5.2s.4.1.5.1c.7 0 1.4-.2 1.9-.7.1-.1.2-.3.3-.4 0-.2.1-.4.1-.7v-1.9c.1-.7.1-1.4.1-1.8zm.4 5.4c-.7.5-1.4 1-2.1 1.3-.7.3-1.4.5-2.1.6h-.6c-.6 0-1.1-.1-1.6-.4-.5-.3-.8-.7-.9-1.4 0-.2-.1-.4-.1-.7-.1-.3-.1-.5-.1-.6 0-1.6.9-2.8 2.6-3.7 1.1-.6 2.6-1.1 4.6-1.4 0-1.9-.2-3.2-.7-3.8-.5-.6-1.2-.9-2.2-.9-.5 0-.9.1-1.1.3-.2.2-.3.5-.3.9v.6c0 .4-.1.7-.3.8-.2.2-.5.3-.8.4-.3.1-.6.2-.9.2-.1 0-.2 0-.3-.1-.1 0-.2-.1-.3-.1-.2-.1-.3-.3-.3-.6s.1-.7.3-1.2c.2-.4.4-.8.6-.9.5-.5 1.1-.9 1.9-1.2.8-.3 1.5-.4 2.3-.4.4 0 .8 0 1.3.1s.9.2 1.2.3c1.1.4 1.7 1.1 2.1 2 .2.6.3 1.6.3 3.1v5.4c0 .4.1.7.2.9.1.2.4.3.8.3h.4c.3 0 .5.1.5.4v.1c-.1.4-.4.7-1 1-.6.3-1.1.4-1.5.4-.5 0-.9-.2-1.2-.5-.2-.2-.4-.6-.7-1.2zm6.8-2.1v-5.6c0-.7 0-1.2-.1-1.5-.2-.5-.5-.7-1.1-.7-.5 0-.7-.2-.7-.6 0-.4.2-.6.7-.6.8-.1 1.5-.4 2.2-.7.6-.3 1.3-.6 1.9-.9.2 0 .3.4.3 1.1v1.7c.9-.9 1.6-1.6 2.2-1.9.6-.3 1.1-.4 1.7-.4h.1c.8 0 1.5.2 2 .7.5.5.9 1.1 1.3 2 .8-.8 1.5-1.4 2-1.8.8-.6 1.6-.9 2.4-.9l1.1.1c1.1.4 1.9 1.2 2.3 2.5.3.9.4 2.1.4 3.8v3.4c0 .9.1 1.6.3 2 .2.4.7.7 1.4.9.2.1.3.2.3.5 0 .2-.1.3-.2.4-.1.1-.3.2-.5.2s-.6 0-1.1-.1c-.5-.1-.9-.1-1.1-.1-.2 0-.6 0-1.2.1-.5 0-.8.1-.8.1s-.2 0-.4.1c-.3 0-.5.1-.6.1-.4 0-.6-.1-.6-.4v-.1c0-.1.3-.4.7-.7.5-.4.7-.8.7-1.4v-2.8c0-.9 0-1.8-.1-2.5 0-.8-.1-1.3-.2-1.7-.1-.6-.4-1.2-.9-1.5-.5-.4-1-.6-1.5-.6-.6 0-1.1.2-1.5.7-.4.5-.6 1.1-.6 2v5.1c0 .9.1 1.6.3 2 .2.4.7.7 1.4.9.2.1.3.2.3.5 0 .1-.1.3-.2.4-.1.1-.2.2-.4.2s-.6 0-1.1-.1c-.5-.1-.9-.1-1-.1-.2 0-.6 0-1.1.1-.5 0-.8.1-.8.1s-.2 0-.4.1c-.2 0-.4.1-.6.1-.3 0-.5-.1-.5-.4v-.1c0-.1.2-.3.6-.7.4-.4.6-.8.6-1.4v-3-2.7c0-.5-.1-1-.2-1.5s-.4-1-.9-1.4c-.5-.4-1-.6-1.5-.6-.6 0-1.1.2-1.5.7-.4.5-.6 1.1-.6 2v5.1c0 1.5.4 2.4 1.1 2.7.7.3 1.1.5 1.1.6v.1c0 .4-.2.6-.7.6-.3 0-.7 0-1.3-.1-.6-.1-1-.1-1.4-.1-.3 0-.8 0-1.5.1-.6.1-1.1.1-1.3.1-.1 0-.3 0-.4-.1-.1-.1-.2-.2-.2-.3l.1-.1c0-.2.2-.4.5-.6.5-.7.8-1.6.8-3.1zm-67.4-4c2.7-5.6 6.2-11.4 9.1-15.5.3.1.7.1 1.1.1.3 0 .6 0 .9-.1-3.6 5-7.4 11.8-10.7 21.6-.1 2.3-.1 9.7-3.8 14.9 2.7-11.3-2.1-41.6-21.1-45 22-3 24.7 20.3 24.5 24zm-4.4 9.7c-1.8 3.6-2.2 5.8-3.8 10.3l2.3 6.2c.9-3.8 1-5.1 2.2-9 .1-2.5-.1-5.8-.7-7.5zm30.2 7.4l-.2.2c-.1.1-.2.1-.2.2-.1 0-.2.2-.2.3-.1.2-.1.3-.1.3l.2-.1c.1 0 .2-.1.2-.2.1-.1.2-.1.3-.2v-.1s0-.1.1-.1.1-.1.2-.1h.1c.1-.1.1-.2.2-.2s.1-.1.1-.1c0-.1 0-.1-.1-.1 0 0-.1 0-.2.1h-.2s-.1 0-.1.1h-.1z" fill="#143b85"/></svg>