<svg class="icon-logo" xmlns="http://www.w3.org/2000/svg" viewBox="0 0 31.812 32"><path fill="#a50b6b" d="M436.909,63.006s-0.972,1.8-2.335,4.424a29.384,29.384,0,0,1,4.231-.719c-1.7.455-3.233,0.941-4.6,1.438-0.364.705-.751,1.459-1.15,2.245a33.406,33.406,0,0,1,7.052-1.5,49.34,49.34,0,0,0-7.644,2.672c-0.387.77-.782,1.562-1.175,2.361a35.49,35.49,0,0,1,10.31-2.712,41.893,41.893,0,0,0-11.2,4.547c-0.381.791-.754,1.58-1.113,2.353A42.158,42.158,0,0,1,442.944,73.4c-8.874,2.765-13.15,5.927-15.021,7.737-0.382.888-.716,1.713-1,2.469a15.994,15.994,0,1,1,29.9-9.85C451.332,69.911,436.909,63.006,436.909,63.006Zm4.019,14.122c7.749-2.755,14.652-3.2,15.417-1s-5.064,5.9-12.813,8.654c-6.151,2.187-11.65,3.117-14.045,2.308a16,16,0,0,1-1.262-1.49C428.35,83.33,433.735,79.685,440.928,77.128Zm3.166,9.064c5.37-1.909,9.867-4.335,12.47-6.534a15.966,15.966,0,0,1-24.915,9.308A46.016,46.016,0,0,0,444.094,86.191Z" transform="translate(-425 -60)"></path></svg>
