<svg xmlns="http://www.w3.org/2000/svg" width="12" height="12"><path d="M12.01 3.746v6.492a1.866 1.866 0 0 1-.56 1.2 1.923 1.923 0 0 1-1.19.562H1.77a1.943 1.943 0 0 1-1.19-.281 1.673 1.673 0 0 1-.57-1.477V2.25A1.665 1.665 0 0 1 .56.797 2 2 0 0 1 1.77.516h.73V.305a.281.281 0 0 1 .08-.223.265.265 0 0 1 .2-.082.276.276 0 0 1 .28.305v.211h5.88V.305a.264.264 0 0 1 .1-.223A.305.305 0 0 1 9.25 0a.281.281 0 0 1 .2.082.321.321 0 0 1 .08.223v.187h.73a1.953 1.953 0 0 1 1.19.551 1.839 1.839 0 0 1 .56 1.207v1.5zM.58 3.488h10.87v-1.2a1.408 1.408 0 0 0-.37-.856 1.291 1.291 0 0 0-.82-.386h-.68v.211a.309.309 0 0 1-.53.211.288.288 0 0 1-.08-.211v-.211H3.08v.211a.267.267 0 0 1-.3.3.231.231 0 0 1-.21-.093.325.325 0 0 1-.07-.211v-.211h-.73a1.474 1.474 0 0 0-.87.187 1.152 1.152 0 0 0-.32 1.008v1.242zm10.48 7.559a1.322 1.322 0 0 0 .39-.856v-6.14H.58v6.187a1.174 1.174 0 0 0 .35 1.02 1.481 1.481 0 0 0 .84.176h8.44a1.327 1.327 0 0 0 .85-.387zM3.32 5.691v.539a.38.38 0 0 1-.12.282.413.413 0 0 1-.3.117h-.52a.405.405 0 0 1-.42-.4V5.69a.405.405 0 0 1 .42-.4h.56a.359.359 0 0 1 .38.4zm3.26-.293a.4.4 0 0 1 .11.293v.539a.412.412 0 0 1-.11.282.42.42 0 0 1-.31.117h-.51a.42.42 0 0 1-.31-.117.38.38 0 0 1-.12-.282v-.539a.381.381 0 0 1 .12-.281.42.42 0 0 1 .31-.117h.51a.448.448 0 0 1 .31.105zm3.37 0a.372.372 0 0 1 .12.293v.539a.38.38 0 0 1-.12.282.413.413 0 0 1-.3.117h-.52a.405.405 0 0 1-.42-.4V5.69a.405.405 0 0 1 .42-.4h.52a.439.439 0 0 1 .3.108zM6.58 8.059a.44.44 0 0 1 .11.3v.516a.443.443 0 0 1-.11.3.42.42 0 0 1-.31.117h-.51a.42.42 0 0 1-.31-.117.407.407 0 0 1-.12-.3v-.516a.405.405 0 0 1 .12-.3.421.421 0 0 1 .31-.118h.51a.421.421 0 0 1 .31.118zm-3.37 0a.44.44 0 0 1 .11.3v.516a.407.407 0 0 1-.12.3.413.413 0 0 1-.3.117h-.52a.382.382 0 0 1-.3-.117.407.407 0 0 1-.12-.3v-.516a.405.405 0 0 1 .12-.3.383.383 0 0 1 .3-.118h.56a.347.347 0 0 1 .27.118z" fill="#333" fill-rule="evenodd"/></svg>