<svg xmlns="http://www.w3.org/2000/svg" width="73" height="50"><path data-name="Shape 88 copy" d="M38.819 37.77l-.511.51-2.117-1.61L32.906 39v4.96l-.584.58.219.22.511-.51 2.263 1.67 3.139-2.33V38.5l.584-.44zm-2.336 6.92l-1.533-1.17v-5.46l1.533 1.24v5.39zm8.688-7.8l-.219-.14a2.036 2.036 0 0 1-1.314.43 1.687 1.687 0 0 1-1.168-.51l-3.067 2.19v3.42h1.68l-2.556 3.64.292.08a1.8 1.8 0 0 1 1.46-.73 2.086 2.086 0 0 1 1.607.73l2.92-2.04v-3.94h-1.752zm-3.65 1.02h.073a1.649 1.649 0 0 0 1.168.51 1.479 1.479 0 0 0 1.241-.36l-1.752 2.55h-.73v-2.7zm1.314 6.92h-.073a1.931 1.931 0 0 0-1.46-.65 2.594 2.594 0 0 0-1.387.43v-.07l2.044-2.91h.876v3.2zm7.3-.87l-.292-.29-.584.65-.876-.65v-5.54h.876l.657-.95-.073-.07h-1.46v-3.28l-.073-.07-1.972 2.11v1.24H45.9l-.657.95.073.07h1.1v6.34l-.584.58.219.22.511-.51L48.169 46l1.971-2.04zm-20.3-10.2l-2.336 2.48v-1.75h-.365v2.11l-.511.58v-1.82l-1.752-1.6-2.045 2.11.292.22.511-.51.657.58v1.97h-.145a1.531 1.531 0 0 0-1.607 1.6 1.886 1.886 0 0 0 .146.88h.22a.946.946 0 0 1 .95-.8h.365v3.56a3.036 3.036 0 0 0-2.045 2.85l.146.07a3.737 3.737 0 0 1 1.9-1.24l.072 4.95 2.118-1.96 1.022.94h.072V45.2a2.731 2.731 0 0 1 1.168.87l3.213-2.4v-8.02zm-2.774 14.49l-.511-.51V37.4l.511-.58v11.43zm2.482-4.15a2.991 2.991 0 0 0-2.044-.94v-6.7l.949-1.02 1.1 1.02v7.64zm5.432-36.44a3.446 3.446 0 0 1-1.607 2.25v-6.7A2.552 2.552 0 0 0 35.194.45h-.219a1.466 1.466 0 0 1-1.534.94c-1.533 0-2.628-1.23-3.942-1.23-2.117 0-3.14 1.96-3.14 3.64v.36h.22a1.931 1.931 0 0 1 2.117-1.82 2.843 2.843 0 0 1 .8.15c-1.9 1.16-3.286 2.55-3.431 4.58v1.02a4.571 4.571 0 0 0 4.672 4.52c2.555 0 4.235-2.4 4.454-4.81zm-7.082-.95a5.4 5.4 0 0 1 1.825-4.08c.73.15 1.314.44 1.971.58l-2.774 1.53.219.3.584-.3V9.4l-.584.3A3.866 3.866 0 0 1 27.9 6.71zm5.037 3.35a4.308 4.308 0 0 1-1.679.36 2.843 2.843 0 0 1-1.825-.58l2.336-1.31V3.14a2.586 2.586 0 0 0 .73.07h.438v6.85zm8.469-5.9l-.511.51-1.606-1.46-1.606 1.68V.01h-.073l-1.971 2.04v8.08l-.657.73v.07l1.679 1.53 1.46-1.6-.584-.51V5.4l.511-.51.876.8v6.56a2.371 2.371 0 0 1-1.46 2.11l.146.22c1.752-.37 3.285-1.53 3.285-3.28V4.96l.73-.58zm4.308 6.7l-1.679-1.31v-.87l3.5-2.48-1.9-2.99-3.5 2.55v4.59l-.584.58.219.22.511-.51 2.337 1.9 2.628-2.77-.219-.22zm-1.606-6.33h.073l1.533 2.54-1.606 1.17V4.53zM5.974 25.88l-.584.66-1.533-1.31v-6.34l.876-.87 1.314 1.24v6.62h-.073zm4.161.88L8.31 25.23v-6.41l.8-.8 1.022 1.02v7.72zm2.337-1.75v-6.77l-2.045-2.04-2.117 2.25-2.263-2.25-2.19 2.25v-.72c0-1.9-1.169-1.61-1.169-2.84a1.57 1.57 0 0 1 1.1-1.46l-.146-.15c-1.825.66-2.847 1.61-2.847 2.7 0 .94.73 1.02.73 2.04v2.76a1.588 1.588 0 0 0-1.533 1.75c0 .29.073.59.073.73h.219a.718.718 0 0 1 .73-.65h.511v3.56l2.629 2.26 1.971-2.18 2.555 2.18 3.8-3.42zm4.161 1.38l-.438.44-1.095-1.02v-5.39l.073-.07 1.533 1.16v4.88h-.073zm7.228.88a1.942 1.942 0 0 0-1.46-.66 2.6 2.6 0 0 0-1.387.44v-.07l2.044-2.92h.876v3.21h-.073zm1.241-6.78l-1.752 2.55h-.73v-2.69h.08a1.692 1.692 0 0 0 1.168.51 1.517 1.517 0 0 0 1.241-.37zm-4.818 5.98l-.292-.3-.512.59-.876-.8V21l.658-.65-.293-.22-.511.51-1.9-1.53-3.5 2.48v4.8l-.511.59.219.21.438-.43 1.825 1.6 1.533-1.6h.073l1.752 1.6 1.9-1.89zm5.986-7.14l-.219-.15a2 2 0 0 1-1.314.44 1.731 1.731 0 0 1-1.168-.51l-3.066 2.18v3.43h1.533l-2.556 3.64.292.07a1.8 1.8 0 0 1 1.461-.73 2.118 2.118 0 0 1 1.606.73l2.92-2.04v-3.93h-1.752l2.263-3.13zm6.717 1.02l-.219-.22-.511.51-1.606-1.46-1.606 1.68v-4.88h-.073L27 18.02v8.08l-.657.73v.07l1.68 1.53 1.46-1.6-.584-.51v-4.95l.511-.51.876.8v6.55a2.374 2.374 0 0 1-1.46 2.12l.146.21c1.752-.36 3.285-1.53 3.285-3.27v-6.34l.73-.58zm4.892 6.12l-.219-.3-.584.59-.8-.73v-5.25l.657-.65-.292-.29-.511.51-1.388-1.24-1.825 1.97.219.21.511-.51.657.59v5.24l-.584.66.219.22.511-.51 1.534 1.38 1.9-1.89zm-1.022-8.96l-1.533-1.39-1.388 1.46 1.533 1.38 1.388-1.45zM51.24 29.52a1.467 1.467 0 0 1-.585 1.02 2.576 2.576 0 0 0-1.752-.72 3.06 3.06 0 0 0-1.9.58l2.993-3.42v.29a1.333 1.333 0 0 0 .584 1.38 1.121 1.121 0 0 1 .658.87zm-1.315-3.13l-.511.59-1.1-.88v-5.61l.073-.07 1.533 1.17v4.8zm11.828.73l-1.533-1.16v-5.47l1.533 1.24v5.39zm-15.843-.73l-.219-.22-.584.66-.73-.66V21l.657-.65-.219-.29-.511.51-1.607-1.46-1.752 1.82v-.36l-1.679-1.46-1.9 1.97.292.21.584-.58.73.66v4.66l-.657.73v.07l1.679 1.53 1.533-1.6v.07l-.584-.51v-4.81l.657-.65.876.8v5.39l1.607 1.45 1.825-2.11zm6.644-6.04l-.219-.22-.585.51-1.9-1.46-3.5 2.48v5.1l-.657.65.219.22.511-.51 1.679 1.31-2.555 2.99.219.14a3.585 3.585 0 0 1 1.971-.65 2.13 2.13 0 0 1 1.606.94c1.825-1.38 3.067-2.18 3.067-2.98 0-.73-.511-.66-.511-1.6V21l.657-.65zm5.11 6.04l-.219-.29-.584.66-.876-.66v-5.53h.876l.657-.95-.073-.07h-1.46v-3.28l-.073-.07-1.971 2.11v1.24h-.511l-.657.94.073.08h1.1v6.33l-.584.59.219.21.511-.51 1.606 1.24 1.971-2.04zm6.717-5.9l-.219-.29-.511.51-2.117-1.6-3.286 2.33v4.95l-.584.59.219.21.511-.51 2.264 1.68 3.139-2.33v-5.1l.584-.44zm8.615 5.9l-.219-.22-.584.66-.73-.66V21l.657-.65-.219-.29-.511.51-1.606-1.46-1.752 1.82v-.36l-1.68-1.46-1.9 1.97.292.21.584-.58.73.66v4.66l-.657.73v.07l1.679 1.53 1.534-1.6v.07l-.584-.51v-4.81l.657-.65.876.8v5.39l1.606 1.45 1.825-2.11z" fill="#999" fill-rule="evenodd"/></svg>