<svg xmlns="http://www.w3.org/2000/svg" width="67" height="44"><path d="M39.83 10.1c-1.17 1.08-1.73 2.12-3.33 4.54-2.18 3.3-7.67 6.67-14.57 4.1 5.72 1.16 7.61-1.9 9.1-4.26 3.65-5.76 6.98-3.55 8.8-4.38m-18.3-8.88c-1.29 1.34-10.24 8.99-5.71 14.38a6.093 6.093 0 0 1 1.73-5.69 15.9 15.9 0 0 1 1.29-1.23c4.48-3.98 2.41-4.58 2.69-7.46zm-9.32 3.62a7.5 7.5 0 0 0-.56 1.11c-.96 2.54-1.54 9.48 4.41 10.46-2.75-1.04-2.38-3.66-1.88-5.51.94-3.5-.04-4.38-1.16-5.12a1.848 1.848 0 0 1-.81-.94zm13.38-1.09c.5 2.98-.86 6.23-3.07 7.4-5.41 2.88-5.39 7.78-2.18 8.28-3.36-.35-5.58-3.93-3.58-7.55 1.43-2.6 4.02-4.4 6.11-5.88a13.589 13.589 0 0 0 2.72-2.25zm-2.9 13.89c1.63-.51 2.67-1.59 2.31-2.41s-1.97-1.06-3.6-.55c-1.53.49-2.4 1.6-2.35 2.27.42-1.25 3.13-2.6 4.29-1.33.53.58.29 1.62-1.25 2.1a5.3 5.3 0 0 1-.74.18 5.557 5.557 0 0 0 1.34-.26zm.23 20.31l-.04-.16v-.03a.176.176 0 0 1 .11-.22.422.422 0 0 0 .16-.05.336.336 0 0 1 .16.14.37.37 0 0 1 .09.21.1.1 0 0 1-.01.04.376.376 0 0 0 0 .11.21.21 0 0 1-.07.14.24.24 0 0 1-.15.06.246.246 0 0 1-.15-.09.349.349 0 0 1-.1-.15zm-3.26-2.62l.07-.06.09.02a.155.155 0 0 0 .12-.02.139.139 0 0 1 .09-.04.172.172 0 0 0 .07-.04.254.254 0 0 1 .13-.05.223.223 0 0 0 .13-.04.105.105 0 0 1 .09-.05.261.261 0 0 0 .11-.03l.39-.09c.01.01.02.01.05.03h.01a.119.119 0 0 0 .11-.03.113.113 0 0 1 .11-.03.544.544 0 0 0 .17-.04l.03.03a.128.128 0 0 1 .11-.07h.03s.03.01.08.03a.525.525 0 0 1 .17-.01h.1a.053.053 0 0 1 .03.02.105.105 0 0 1 .09-.05l.05.01.18-.03.05.03a.185.185 0 0 1 .16-.03l.04.01.04.02c.01 0 .04-.01.08-.02a.9.9 0 0 1 .35.02l.11.03a.9.9 0 0 1 .12-.03l.12.05.04-.02.02.01a.078.078 0 0 1 .05.02h.31a.076.076 0 0 1 .04.01.091.091 0 0 1 .05-.03l.08.04a.238.238 0 0 0 .12-.04l.03.04h.29l.11.02h.09a.287.287 0 0 1 .22.12.3.3 0 0 1 .07.19l.02.16-.02.09-.01.1a.108.108 0 0 1-.06.07.07.07 0 0 1-.04.02.133.133 0 0 0-.08.03.529.529 0 0 1-.25-.01.15.15 0 0 1-.14-.09.168.168 0 0 0-.07-.1l-.19-.12a.047.047 0 0 0-.05-.02l-.03-.01h-.18l-.04-.02a.155.155 0 0 1-.06.02l-.32-.06-.13-.01-.09-.03a.122.122 0 0 0-.06 0 .51.51 0 0 1-.18 0c-.1 0-.14.02-.14.09a.213.213 0 0 0 .04.12.346.346 0 0 1 .03.12.327.327 0 0 0-.06.13.308.308 0 0 0-.06.06 1.644 1.644 0 0 1-.16.13.772.772 0 0 0-.15.19.1.1 0 0 1-.1.07.36.36 0 0 0-.11.15l-.03.03a.075.075 0 0 0-.01.05.086.086 0 0 1-.03.06l-.04.12a1.192 1.192 0 0 0-.17.24l-.05.02-.05.07-.06-.01c-.03-.01-.04.01-.04.05l.02.15a.4.4 0 0 0-.1.17l-.05.1a.444.444 0 0 0-.09.1 1.307 1.307 0 0 1-.08.21l-.01.05a1.381 1.381 0 0 1-.3.46 1.293 1.293 0 0 0-.05.29.434.434 0 0 1-.17.27.872.872 0 0 1-.05.31c-.03.08-.06.2-.11.35a1.1 1.1 0 0 1-.14.32l-.02.04c-.01.02-.03.05-.04.07a3.265 3.265 0 0 1-.08.44l-.02.21-.09.28c0 .02-.01.04-.01.06a.271.271 0 0 0 .03.08.266.266 0 0 1 .03.12.309.309 0 0 1-.02.11.309.309 0 0 0-.02.11.171.171 0 0 1-.14.19h-.12a.484.484 0 0 1-.33-.26.968.968 0 0 1-.16-.58 1.163 1.163 0 0 1 .03-.16c.01-.09.02-.14.02-.17s.01-.06.02-.08a.236.236 0 0 0 .02-.13.769.769 0 0 1 .1-.42c.07-.11.11-.2.14-.25a.035.035 0 0 1 .03-.04.3.3 0 0 1-.02-.1.271.271 0 0 1 .11-.23.161.161 0 0 1 .03-.09c.01-.04.04-.12.08-.25a.3.3 0 0 1 .18-.22.192.192 0 0 1 .05-.08l-.02-.18a.222.222 0 0 1 .08-.12l.07-.14a.239.239 0 0 1 .11-.14.117.117 0 0 1 .06-.06.9.9 0 0 1 .03-.12.934.934 0 0 1 .14-.25c.06-.1.13-.2.19-.31a.236.236 0 0 1 .18-.15.092.092 0 0 0 .09-.1l.02-.19a1 1 0 0 0 .15-.15l.06-.08a.188.188 0 0 1 .04-.09.3.3 0 0 0 .07-.08.291.291 0 0 1 .11-.11.514.514 0 0 1 .25-.33l.07-.08a.406.406 0 0 1 .11-.15.177.177 0 0 0 .07-.11.2.2 0 0 1 .09-.09.082.082 0 0 0 .07-.07.027.027 0 0 0-.03-.03.323.323 0 0 0-.12.02l-.03-.01-.08.01h-.03l-.07-.04a.3.3 0 0 1-.12.02c-.01 0-.02.02-.06.04l-.09-.02-.05.06h-.04l-.11-.04a.266.266 0 0 0-.13.05.346.346 0 0 1-.14.02.751.751 0 0 0-.26.05.4.4 0 0 1-.15.05l-.08-.03h-.01a.1.1 0 0 0-.1.05.168.168 0 0 1-.14.06l-.05-.01a.449.449 0 0 0-.17.04c-.08.03-.11.05-.12.05l-.08-.03a.2.2 0 0 1-.09.05.172.172 0 0 0-.07.04.161.161 0 0 1-.07.04.172.172 0 0 0-.07.04.174.174 0 0 1-.07.03h-.02l-.05-.02a.146.146 0 0 0-.08.05.14.14 0 0 1-.09.07.3.3 0 0 0-.08.04.108.108 0 0 1-.07.03c-.01.01-.03.05-.06.1a.359.359 0 0 1-.1.14c-.04.04-.06.07-.08.09a.043.043 0 0 1-.03.03.3.3 0 0 1-.22-.35l.09-.21a.34.34 0 0 1 .27-.27 1.208 1.208 0 0 0 .24-.08zm18.7 3.3l.05-.1a.328.328 0 0 1 .06-.08.514.514 0 0 0 .06-.2.593.593 0 0 1 .08-.23.189.189 0 0 1 .15-.06.353.353 0 0 1 .16.07.807.807 0 0 1 .22.37 4.157 4.157 0 0 1 .15.58 2.53 2.53 0 0 1 0 .39 1.627 1.627 0 0 1-.03.51.743.743 0 0 1-.26.42l-.03.05c0 .01.06.05 0 .07a.369.369 0 0 0-.14.08l-.06.06a.321.321 0 0 0-.15.09l-.05-.01a.345.345 0 0 0-.17.09.344.344 0 0 1-.18.08.721.721 0 0 1-.32-.07.752.752 0 0 1-.15-.16c-.04-.06-.08-.11-.11-.15a.206.206 0 0 1-.05-.09.086.086 0 0 1 .03-.06.258.258 0 0 0 .07-.11.241.241 0 0 1 .21-.11.155.155 0 0 0 .06-.03.309.309 0 0 1 .08-.02.165.165 0 0 1 .1.08.035.035 0 0 0 .02.01l.06-.01a.288.288 0 0 0 .06.04.275.275 0 0 0 .2-.1l.01-.01h.03a.112.112 0 0 0 .04-.07l.06-.14.12-.19v-.04a.322.322 0 0 1 .01-.08v-.06a.045.045 0 0 1 .04-.05.054.054 0 0 0 .05-.05l-.01-.03a.143.143 0 0 1-.04-.08l.03-.08-.01-.09.01-.03c-.01-.04-.02-.06-.02-.07l.01-.11a.72.72 0 0 1-.03-.08.079.079 0 0 0-.04-.07.614.614 0 0 0-.14.12 1.122 1.122 0 0 0-.13.18.24.24 0 0 1-.1.1.171.171 0 0 0-.09.1.134.134 0 0 1-.07.06l-.25.22-.27.22a.173.173 0 0 0-.03.04.169.169 0 0 1-.16-.18.48.48 0 0 1 .04-.2.142.142 0 0 1 .04-.02l.01-.01v-.01l.02.02h.01a.863.863 0 0 1 .18-.12.136.136 0 0 0 .07-.09l.16-.12a1.464 1.464 0 0 0 .18-.18.837.837 0 0 0 .15-.2zm-2.09-.05l.05-.11a.3.3 0 0 1 .05-.07.448.448 0 0 0 .07-.21.593.593 0 0 1 .08-.23.175.175 0 0 1 .15-.06.642.642 0 0 1 .16.07.8.8 0 0 1 .22.38 1.8 1.8 0 0 1 .12.43.382.382 0 0 0 .04.13c.02.06.03.1.04.12a.24.24 0 0 0-.02.08l.02.18-.04.14.01.1a.267.267 0 0 0-.04.1.048.048 0 0 0 .02.05.436.436 0 0 0 .21-.13.187.187 0 0 1 .07-.06.275.275 0 0 0 .12-.11l.07-.04.06-.09a.265.265 0 0 1 .06-.05.347.347 0 0 0 .09-.06.565.565 0 0 1 .14-.09l.03-.05a.3.3 0 0 1 .14-.11.456.456 0 0 1 .08-.04.089.089 0 0 1 .06.08.442.442 0 0 1 .05.15.175.175 0 0 1-.07.14l-.1.1a.222.222 0 0 1-.12.06 1.8 1.8 0 0 0-.12.17l-.07.05-.04.05a.179.179 0 0 1-.1.03c-.01 0-.01.01-.02.04a.089.089 0 0 1-.08.06.674.674 0 0 0-.13.15l-.08.02a.413.413 0 0 1-.04.09.143.143 0 0 0-.1.08.07.07 0 0 1-.04.02l-.01.01a.354.354 0 0 1-.17.09l-.09.02-.03.05a.139.139 0 0 1-.09.06.365.365 0 0 0-.14.07l-.06.06a.321.321 0 0 0-.15.09h-.05a.231.231 0 0 0-.17.08.425.425 0 0 1-.18.08.685.685 0 0 1-.32-.07.572.572 0 0 1-.15-.16c-.04-.06-.08-.11-.11-.15a.106.106 0 0 1-.05-.09c-.01-.02 0-.04.03-.05a.312.312 0 0 0 .07-.12.241.241 0 0 1 .21-.11.155.155 0 0 0 .06-.03.309.309 0 0 1 .08-.02.2.2 0 0 1 .1.08.035.035 0 0 0 .02.01l.06-.01a.288.288 0 0 0 .06.04.293.293 0 0 0 .2-.1l.01-.01h.03a.112.112 0 0 0 .04-.07l.05-.14.13-.19-.01-.04c0-.01.01-.04.02-.08v-.06a.045.045 0 0 1 .04-.05.047.047 0 0 0 .05-.05l-.01-.03a.12.12 0 0 1-.04-.08l.03-.08-.01-.09.01-.03c-.01-.04-.02-.06-.02-.07l.01-.1a.778.778 0 0 0-.03-.09.112.112 0 0 0-.04-.07.614.614 0 0 0-.14.12.942.942 0 0 0-.14.19.191.191 0 0 1-.09.09.24.24 0 0 0-.1.1.074.074 0 0 1-.06.06l-.25.22-.27.22a.14.14 0 0 1-.04.04.157.157 0 0 1-.15-.18.48.48 0 0 1 .04-.2.142.142 0 0 1 .04-.02l.01-.01c0-.01 0-.01-.01-.01l.03.02h.01a.863.863 0 0 1 .18-.12.136.136 0 0 0 .07-.09l.16-.12a1.464 1.464 0 0 0 .18-.18 1.148 1.148 0 0 0 .15-.19zm-2.1.24l-.05.02c-.01.01-.04.03-.08.07a.653.653 0 0 1-.15.1.471.471 0 0 0-.13.21.556.556 0 0 0-.06.19.025.025 0 0 0 .02.03l.13-.06a.642.642 0 0 0 .13-.1c.04-.03.1-.08.18-.13l.03-.04a.231.231 0 0 1 .07-.06.236.236 0 0 0 .09-.08l.04-.02a.256.256 0 0 1 .12-.13c.05-.02.07-.03.07-.05s-.03-.05-.08-.05a.163.163 0 0 0-.09.04l-.09-.01a.28.28 0 0 0-.08.05zm-.82.23l.08-.07a.1.1 0 0 0 .1-.1.2.2 0 0 1 .12-.17l.04-.07a.993.993 0 0 1 .31-.16.351.351 0 0 0 .09-.07c0-.01 0-.01.01-.01l.06.02a.345.345 0 0 0 .13-.03 1 1 0 0 1 .16-.02h.16a.408.408 0 0 1 .07.02.213.213 0 0 0 .12.03.24.24 0 0 1 .17.09.268.268 0 0 1 .08.16.334.334 0 0 1-.11.26.382.382 0 0 1-.19.15l-.09.09a.3.3 0 0 0-.07.05.072.072 0 0 1-.06.04c-.01 0-.02 0-.02-.01a.037.037 0 0 0-.03-.01.2.2 0 0 0-.12.16l-.08-.01a.254.254 0 0 0-.08.1.059.059 0 0 1-.07.05.429.429 0 0 1-.19.15.119.119 0 0 1-.06-.02.149.149 0 0 0-.02.09.053.053 0 0 1-.06.06l-.05.05-.04-.01-.07.09a.147.147 0 0 0-.12.04c0 .03-.01.07-.01.12a.44.44 0 0 0-.01.09c0 .08.07.12.21.13l.19-.03a.23.23 0 0 0 .14-.04.319.319 0 0 1 .14-.03c.01 0 .03-.01.07-.02l.04.02a.186.186 0 0 1 .09-.11.31.31 0 0 1 .11-.05l.04-.02a.079.079 0 0 1 .05-.07l.02-.03a.086.086 0 0 1 .06-.03h.06l.01-.01a.178.178 0 0 1 .12-.12.129.129 0 0 0 .11-.06.079.079 0 0 1 .07-.05.105.105 0 0 0 .09-.05.258.258 0 0 1 .09-.09c.03-.03.06-.05.07-.06a.028.028 0 0 1 .03-.02c.02 0 .03.01.03.04a.025.025 0 0 0 .02.03c.01 0 .01 0 .01-.01a.06.06 0 0 0-.01-.04v-.03a.087.087 0 0 1 .06-.09l.17-.12a.118.118 0 0 1 .03-.1.163.163 0 0 0 .06-.03.076.076 0 0 1 .04-.02c.04 0 .05.03.06.07l-.01.11.02.11a.133.133 0 0 1-.03.07.32.32 0 0 0-.05.13.114.114 0 0 1-.04.1h-.02a.355.355 0 0 1-.11.09.1.1 0 0 0-.06.05l-.12.17a.462.462 0 0 0-.07.07.054.054 0 0 1-.04.03l-.03-.03c0-.01-.01-.01-.02-.01a.04.04 0 0 0-.04.05.355.355 0 0 1-.04.09.335.335 0 0 0-.14.1l-.03.01h-.07c-.03 0-.05.02-.06.08a.119.119 0 0 1-.11.09.223.223 0 0 0-.13.05.044.044 0 0 1-.03.01.583.583 0 0 0-.11.07l-.32.11a.078.078 0 0 1-.05.02l-.11.02a.06.06 0 0 1-.05-.04l-.03-.03-.07.02a.389.389 0 0 1-.15.02.161.161 0 0 1-.09-.03.2.2 0 0 0-.08-.04.239.239 0 0 1-.17-.2l-.05.01a1.718 1.718 0 0 1-.13-.31.1.1 0 0 0-.08-.04.094.094 0 0 1-.05-.09.321.321 0 0 1 .05-.25.246.246 0 0 0 .08-.1l.04-.22a.266.266 0 0 0 .04-.08l.07-.18a1.332 1.332 0 0 0 .06-.14zm-1.11-.35l.08-.05a.291.291 0 0 1 .09-.16.226.226 0 0 1 .11-.09h.03c0-.02.01-.04.01-.06a.172.172 0 0 0 .01-.08.4.4 0 0 1 .1-.13l.02-.08a.26.26 0 0 1 .17-.17.15.15 0 0 1 .07-.12l.03-.01a.2.2 0 0 1 .06-.11l.01-.03-.01-.07s.02-.03.05-.07a.19.19 0 0 0 .07-.11.555.555 0 0 1 .06-.08.137.137 0 0 0 .05-.1l.06-.01a.11.11 0 0 1 .01-.07v-.04a1.977 1.977 0 0 1 .12-.26l.05-.16a.086.086 0 0 1 .03-.06.149.149 0 0 0 .03-.1l.02-.14c-.01-.07-.02-.1-.04-.1a.251.251 0 0 1-.07.04.219.219 0 0 0-.05.15.149.149 0 0 0-.13.12.237.237 0 0 1-.09.15l-.02.05a.14.14 0 0 1-.07.09.454.454 0 0 0-.11.17 3.441 3.441 0 0 1-.2.31l-.03.05-.06-.01c.01.05.02.07.02.08a.076.076 0 0 1-.02.04.086.086 0 0 0-.03.06.59.59 0 0 1-.04.08.229.229 0 0 0-.06.14.2.2 0 0 1-.04.11h-.06a.09.09 0 0 0-.05.06l.02.06a.076.076 0 0 1-.02.04.13.13 0 0 0-.03.09.963.963 0 0 1-.09.2 1 1 0 0 0-.1.29.43.43 0 0 1-.08.19.037.037 0 0 0 .03.01.13.13 0 0 0 .09-.11zm-.72 1.1l-.01-.03v-.09a.789.789 0 0 1-.03-.13.01.01 0 0 1-.01.01h-.03a.24.24 0 0 1-.1.09.09.09 0 0 0-.06.06l-.13.16c-.02.02-.04.05-.06.07a.078.078 0 0 1-.04.03l-.03-.03c0-.01-.01-.01-.02-.01a.054.054 0 0 0-.05.05.161.161 0 0 1-.03.09.318.318 0 0 0-.15.1l-.02.01h-.07c-.04 0-.06.02-.07.08a.107.107 0 0 1-.1.09.2.2 0 0 0-.13.05.227.227 0 0 1-.04.01c-.01.01-.05.03-.1.07l-.32.12a.42.42 0 0 0-.05.02l-.11.01a.051.051 0 0 1-.05-.04.078.078 0 0 0-.04-.03l-.07.02a.24.24 0 0 1-.14.02.161.161 0 0 1-.09-.03l-.08-.04a.235.235 0 0 1-.18-.2l-.04.01a.847.847 0 0 1-.11-.25l-.07.07a.548.548 0 0 0-.18.22l-.01.02-.08-.01a.108.108 0 0 0-.04.06.089.089 0 0 1-.06.08.059.059 0 0 0-.05.02l-.08.05a1.033 1.033 0 0 0-.15.17.318.318 0 0 1-.21.15.593.593 0 0 1-.14-.05.356.356 0 0 1-.15-.1.932.932 0 0 0-.1-.1.35.35 0 0 1-.09-.23.053.053 0 0 1 .02-.03.036.036 0 0 0 .02-.03.489.489 0 0 1-.1-.19v-.05a.127.127 0 0 0 .01-.06l-.02-.15.01-.07-.01-.05.01-.21a.074.074 0 0 0-.06-.06.076.076 0 0 0-.04.04.179.179 0 0 1-.07.05.2.2 0 0 0-.08.12.236.236 0 0 0-.09.08.076.076 0 0 1-.04.04.044.044 0 0 0-.03-.01.075.075 0 0 0-.04.07v.02l.01.03a.082.082 0 0 1-.06.07.546.546 0 0 0-.13.17.062.062 0 0 0-.05.01l-.04.1a.142.142 0 0 0-.07.08l-.05.03a.262.262 0 0 1-.05.09l-.02.05a.353.353 0 0 1-.22.2.346.346 0 0 1-.18-.19.737.737 0 0 1-.11-.3v-.15a.26.26 0 0 0-.03-.07v-.02a.3.3 0 0 1 .02-.1l-.01-.12a.037.037 0 0 0-.01-.03v-.02a.26.26 0 0 1 .03-.07l-.03-.12.01-.07-.02-.15v-.13a.062.062 0 0 0-.02-.04l-.03-.03a.544.544 0 0 0-.16.09.673.673 0 0 0-.17.15l-.12.12a.3.3 0 0 0-.1.22h-.01a.044.044 0 0 0-.03-.01h-.01a.436.436 0 0 0-.11.17l-.02.02-.07-.02c-.07 0-.09.07-.08.21a.047.047 0 0 1-.05.05.12.12 0 0 0-.07.07.746.746 0 0 1-.07.12c-.05.03-.09.05-.1.06a.548.548 0 0 1-.07.13c-.05.08-.08.13-.09.14a.11.11 0 0 1-.05.05.051.051 0 0 0-.04.04l.02.08q0 .06-.12.06c-.16 0-.25-.18-.27-.53a.2.2 0 0 1 .04-.14.913.913 0 0 0 .08-.17 1.27 1.27 0 0 0 .16-.23 1.213 1.213 0 0 1 .14-.2l.05-.09a.106.106 0 0 1 .01-.08.085.085 0 0 0 .02-.06.076.076 0 0 0-.04-.07.159.159 0 0 0-.12.04.193.193 0 0 1-.09.05.074.074 0 0 0-.06.06.233.233 0 0 0-.11.11 1.1 1.1 0 0 0-.08.1.219.219 0 0 0-.03.05.042.042 0 0 1-.04.04.055.055 0 0 0-.05.03.1.1 0 0 1-.08.02.11.11 0 0 1-.07-.08v.02a.222.222 0 0 1-.06.12.3.3 0 0 0-.05.07.658.658 0 0 1-.12.12.612.612 0 0 0-.17.15.47.47 0 0 1-.11.1l-.16.13-.02.04a.154.154 0 0 1-.07.03.473.473 0 0 0-.12.07l-.06.04a.155.155 0 0 1-.08.02.138.138 0 0 0-.09.05.072.072 0 0 1-.06.04l-.06-.01-.07.02a.3.3 0 0 1-.18-.09.353.353 0 0 1-.11-.18v-.03l.01-.06a.418.418 0 0 0-.03-.09.271.271 0 0 1-.03-.08v-.05l-.01-.03a.418.418 0 0 1 .01-.14.222.222 0 0 0 .01-.09.249.249 0 0 0 .01-.08l.02-.11a.163.163 0 0 1 .03-.06c.01-.02.01-.06.03-.12l.01-.07.03-.06a.122.122 0 0 0 .03-.09.266.266 0 0 1 .03-.12.277.277 0 0 0 .04-.07.058.058 0 0 0-.06-.06.535.535 0 0 0-.09.07l-.07-.03a.068.068 0 0 0-.04.04.045.045 0 0 1-.04.03.086.086 0 0 0-.06.06l-.03.01-.05-.03h-.02c-.03 0-.04.03-.04.09a.178.178 0 0 1-.11.08l-.08.03a.088.088 0 0 0-.06.07.19.19 0 0 1-.07.11.1.1 0 0 1-.08.04.118.118 0 0 1-.12-.13l.02-.2-.01-.02.06-.06h.02a.126.126 0 0 0 .08-.06l.04-.02a.3.3 0 0 1 .13-.14l.06-.05a.138.138 0 0 1 .04-.03.275.275 0 0 0 .09-.08.156.156 0 0 1 .1-.06.092.092 0 0 1 .06.01.213.213 0 0 1 .09-.1.573.573 0 0 0 .11-.11l.05-.03a.392.392 0 0 0 .1-.08.143.143 0 0 1 .13-.05.385.385 0 0 1 .24.13.466.466 0 0 1 .15.24l-.05.33a.525.525 0 0 1-.12.38l-.01.09a.081.081 0 0 0-.05.06l.03.1a.1.1 0 0 1-.04.07.035.035 0 0 0-.01.02l.02.18a.087.087 0 0 1-.05.07.038.038 0 0 0 .02.02.144.144 0 0 1 .11-.03l.06.01.08-.09a.133.133 0 0 0 .07-.03 1.437 1.437 0 0 1 .17-.08l.48-.41a.249.249 0 0 1 .16-.11h.02a.77.77 0 0 1 .28-.25.276.276 0 0 0 .08-.06.265.265 0 0 1 .06-.05l.01-.03a.755.755 0 0 1 .23-.13h.05l.26-.07c.11-.02.18.12.2.42v.08l.02.03.12-.12a.3.3 0 0 0 .1-.09.347.347 0 0 1 .11-.08l.11-.05a.357.357 0 0 0 .1-.11l.13-.1a.361.361 0 0 1 .15-.08l.06.03a.2.2 0 0 0 .05-.05.1.1 0 0 1 .09-.06.494.494 0 0 1 .2.12.381.381 0 0 1 .14.21l-.01.14c.01.03.02.09.05.19v.04l-.01.1.03.11-.03.2c0 .05.02.08.05.08a.239.239 0 0 1 .11-.07l.05-.06a.091.091 0 0 1 .05-.03.14.14 0 0 0 .04-.04.09.09 0 0 1 .06-.06.1.1 0 0 0 .05-.06.875.875 0 0 1 .32-.28.14.14 0 0 0 .05-.04.09.09 0 0 1 .06-.05l.08-.07.04.02a.288.288 0 0 0 .06-.04.143.143 0 0 1 .08-.04.341.341 0 0 1 .25.11.313.313 0 0 1 .11.17l-.01.1.04.13v.08l-.01.09a.143.143 0 0 0 .04.08.592.592 0 0 0 .04.06.179.179 0 0 0-.05.07l.02.08-.01.23a.223.223 0 0 0 .06.1.488.488 0 0 1 .07-.03.163.163 0 0 0 .06-.03l.02-.01v-.01a.471.471 0 0 1 .05.02h.01c.03 0 .04-.02.04-.06a.11.11 0 0 1 .07-.11l.09.02a.154.154 0 0 0 .03-.07.483.483 0 0 1 .15-.18c.04-.03.08-.06.11-.08a.136.136 0 0 1 .05-.12.2.2 0 0 0 .08-.1l.04-.22a.12.12 0 0 0 .03-.08l.08-.18a.737.737 0 0 0 .06-.14l.08-.07a.087.087 0 0 0 .09-.1.2.2 0 0 1 .12-.17l.04-.07a.934.934 0 0 1 .32-.15.294.294 0 0 0 .08-.08c.01 0 .01-.01.02-.01l.06.02a.688.688 0 0 0 .13-.02.453.453 0 0 1 .16-.03h.16a.26.26 0 0 1 .07.03.373.373 0 0 0 .12.02.289.289 0 0 1 .16.09.293.293 0 0 1 .09.16.356.356 0 0 1-.11.26.428.428 0 0 1-.19.15.257.257 0 0 1-.1.09.17.17 0 0 0-.06.06.155.155 0 0 1-.06.03.037.037 0 0 1-.03-.01.035.035 0 0 0-.02-.01.2.2 0 0 0-.13.16l-.07-.01a.235.235 0 0 0-.08.1.064.064 0 0 1-.08.05.3.3 0 0 1-.18.15.176.176 0 0 1-.06-.01.078.078 0 0 0-.02.08.053.053 0 0 1-.06.06l-.05.05-.04-.01-.07.09a.192.192 0 0 0-.12.04c-.01.03-.01.07-.02.12a.314.314 0 0 1-.01.09.181.181 0 0 0 .22.13l.19-.03a.238.238 0 0 0 .14-.03.2.2 0 0 1 .13-.04.254.254 0 0 0 .07-.02l.04.02a.259.259 0 0 1 .1-.11.211.211 0 0 1 .11-.05l.04-.02a.093.093 0 0 1 .04-.07l.03-.03a.086.086 0 0 1 .06-.03h.05l.02-.01a.178.178 0 0 1 .12-.12.11.11 0 0 0 .1-.06.113.113 0 0 1 .08-.05.138.138 0 0 0 .09-.05.647.647 0 0 1 .08-.09.8.8 0 0 1 .08-.06.053.053 0 0 1 .03-.02c.02 0 .03.01.03.04a.039.039 0 0 0 .02.04c.01 0 .01-.01.01-.02a.06.06 0 0 0-.01-.04v-.03a.087.087 0 0 1 .05-.09l.17-.11a.165.165 0 0 1 .04-.11.085.085 0 0 0 .06-.03.052.052 0 0 1 .04-.02.219.219 0 0 1 .05.03.01.01 0 0 1 .01-.01.544.544 0 0 0 .07-.17l.06-.26.11-.33a.26.26 0 0 1 .03-.07c.02-.04.04-.07.05-.09s.03-.07.05-.12l.04-.01a.037.037 0 0 0 .01-.03.173.173 0 0 0-.02-.07l.12-.24.07-.18a.181.181 0 0 1 .08-.09.408.408 0 0 1 .13-.18.67.67 0 0 1 .07-.18h.08a.465.465 0 0 1 .03-.09v-.08c0 .01.01.01.02-.02a.809.809 0 0 0 .05-.15l.1-.13.02-.05a.639.639 0 0 0 .06-.12.134.134 0 0 0 .09-.09l.08-.07a.393.393 0 0 1 .08-.2.746.746 0 0 0 .12-.07l.05-.02a.192.192 0 0 1 .08-.2l.05-.03a.26.26 0 0 1 .07-.03l.02-.01a.426.426 0 0 1 .39.11.385.385 0 0 1 .13.27.129.129 0 0 1-.05.12l-.01.03a.674.674 0 0 1-.06.23.054.054 0 0 0-.04.03.42.42 0 0 1-.01.15c-.05.01-.07.07-.06.19a.206.206 0 0 1-.05.09.3.3 0 0 0-.06.16.149.149 0 0 1-.05.11h-.05l.02.06a.127.127 0 0 1-.05.11.208.208 0 0 0-.05.12.3.3 0 0 1-.09.15l-.03.07a.47.47 0 0 1-.06.09.478.478 0 0 0-.06.14l-.08.2a.231.231 0 0 1-.15.19c-.02.11-.03.18-.03.19a.158.158 0 0 1-.06.05.144.144 0 0 0-.06.07.594.594 0 0 1-.04.08l-.06.15a.171.171 0 0 0-.09.11.116.116 0 0 0-.07.11.239.239 0 0 0-.03.07l-.13.15a.212.212 0 0 0-.1.18.086.086 0 0 1-.1.1.677.677 0 0 1-.2-.07H32a.382.382 0 0 1-.04.13l.02.11a2.3 2.3 0 0 1-.04.27c.02.04.03.07.04.09l-.01.09.03.12a.143.143 0 0 0 .11.14l.09.02a.443.443 0 0 0 .1-.06l.14-.08h.01a.073.073 0 0 0 .06.02q.045 0 .03-.06v-.06a.121.121 0 0 1 .05-.05.06.06 0 0 0 .06-.03.078.078 0 0 1 .04-.03h.04c.04 0 .06-.05.05-.15a.078.078 0 0 0 .04-.03h.05a.089.089 0 0 0 .06-.08.639.639 0 0 1 .04-.1.215.215 0 0 0 .1-.02.348.348 0 0 1 .18-.24h.02a.173.173 0 0 0 .06-.12.092.092 0 0 1 .04-.06.209.209 0 0 1 .06-.04l.03-.03a.051.051 0 0 1 .06.05v.12l.04.12a.133.133 0 0 1-.03.07.2.2 0 0 0-.03.11c.01.08 0 .12-.03.13a.09.09 0 0 0-.06.05.217.217 0 0 1-.08.09.188.188 0 0 0-.08.11l-.06.02-.04.02a.314.314 0 0 1-.09.16.305.305 0 0 0-.12.17c-.01 0-.01 0-.01.01l-.07-.01a.183.183 0 0 1-.06.08.133.133 0 0 0-.06.05.123.123 0 0 1-.08.05.144.144 0 0 0-.07.06.054.054 0 0 1-.05.04.068.068 0 0 0-.05.03.055.055 0 0 1-.05.02.175.175 0 0 1-.05-.01h-.02a.152.152 0 0 1-.1.05.1.1 0 0 0-.08.02.091.091 0 0 0-.07-.03.308.308 0 0 1-.12-.05c-.04.01-.07.02-.08.02a.281.281 0 0 1-.18-.15.453.453 0 0 1-.12-.28.4.4 0 0 1-.05-.07.223.223 0 0 1-.06-.13v-.2a.145.145 0 0 0 .06-.01zm17.15-.03a.194.194 0 0 1 .09-.14.171.171 0 0 0 .09-.1 1.822 1.822 0 0 0 .2-.2.453.453 0 0 0 .13-.19.035.035 0 0 0-.02-.01h-.01l-.03.02-.07-.01-.07.01-.06-.03h-.05l-.08-.02a.2.2 0 0 0-.11.03.585.585 0 0 1-.17.05.57.57 0 0 0-.22.11.242.242 0 0 1-.15.08.506.506 0 0 1-.17.18.164.164 0 0 0-.11.14.784.784 0 0 0-.1.1l-.02.07a.179.179 0 0 1-.07.05.085.085 0 0 0-.05.09.185.185 0 0 1-.05.12.308.308 0 0 0-.04.09q.015.21.09.21a.3.3 0 0 0 .13-.04.591.591 0 0 0 .12-.06.163.163 0 0 1 .06-.03l.07-.04a.053.053 0 0 1 .03-.02.042.042 0 0 0 .04-.03.14.14 0 0 1 .07-.04.27.27 0 0 0 .07-.08c.04-.02.11-.07.21-.12l.08-.07a.212.212 0 0 0 .1-.07.139.139 0 0 1 .07-.05zm6-.66l.11-.05a.547.547 0 0 0 .1-.11l.13-.1a.268.268 0 0 1 .15-.08l.06.03a.167.167 0 0 0 .05-.06.105.105 0 0 1 .09-.05.444.444 0 0 1 .2.12.381.381 0 0 1 .14.21l-.01.14c.01.03.02.09.05.19v.04l-.01.1.02.11-.02.2c0 .05.02.08.05.08a.332.332 0 0 1 .11-.08l.05-.05a.091.091 0 0 1 .05-.03.14.14 0 0 0 .04-.04.09.09 0 0 1 .06-.06.1.1 0 0 0 .05-.06.8.8 0 0 1 .32-.28.14.14 0 0 0 .05-.04.09.09 0 0 1 .06-.05l.08-.07.03.02h.01a.179.179 0 0 0 .06-.05.112.112 0 0 1 .08-.03.341.341 0 0 1 .25.11.313.313 0 0 1 .11.17l-.01.1.04.13v.08l-.01.09a.1.1 0 0 0 .04.07.26.26 0 0 1 .03.07.274.274 0 0 0-.04.07l.02.08-.01.23a.223.223 0 0 0 .06.1.149.149 0 0 1 .07-.03.333.333 0 0 0 .06-.03l.02-.01v-.01a.471.471 0 0 1 .05.02h.01q.03 0 .03-.06a.136.136 0 0 1 .07-.11l.1.01a.136.136 0 0 0 .03-.06c0-.02.19-.13.38-.33.05-.05.07-.14.12-.18.05-.06.11-.11.16-.17.1-.1-.09.18 0 .09a3.509 3.509 0 0 0 .33-.39.42.42 0 0 1 .21-.11.053.053 0 0 1 .06.06v.09a.224.224 0 0 1 .03.1.2.2 0 0 1-.11.17c-.05.03-.13.2-.47.55a1.861 1.861 0 0 1-.2.14 3.12 3.12 0 0 0-.35.33l-.02.02-.07-.01a.108.108 0 0 0-.04.06.074.074 0 0 1-.06.07.107.107 0 0 0-.05.03l-.08.05a1.033 1.033 0 0 0-.15.17.318.318 0 0 1-.21.15c-.02-.01-.07-.02-.14-.05a.483.483 0 0 1-.15-.1.563.563 0 0 0-.11-.11.35.35 0 0 1-.08-.22.053.053 0 0 1 .02-.03.054.054 0 0 0 .02-.03.489.489 0 0 1-.1-.19v-.05a.127.127 0 0 0 .01-.06l-.02-.15.01-.07-.01-.05.01-.21a.064.064 0 0 0-.06-.06.051.051 0 0 0-.04.04.423.423 0 0 1-.07.05.2.2 0 0 0-.08.12.146.146 0 0 0-.09.08.078.078 0 0 1-.04.03.049.049 0 0 1-.03-.01.08.08 0 0 0-.04.08V40l.01.03a.082.082 0 0 1-.06.07.546.546 0 0 0-.13.17.108.108 0 0 0-.06.01l-.04.1a.183.183 0 0 0-.06.08l-.05.03a.405.405 0 0 1-.05.09l-.02.05a.391.391 0 0 1-.22.2.317.317 0 0 1-.18-.19.737.737 0 0 1-.11-.3v-.16l-.03-.06v-.02a.3.3 0 0 1 .02-.1l-.01-.12a.037.037 0 0 0-.01-.03v-.02a.26.26 0 0 1 .03-.07l-.03-.12.01-.07-.02-.15v-.13a.062.062 0 0 0-.02-.04l-.03-.03a.544.544 0 0 0-.16.09.673.673 0 0 0-.17.15l-.12.12a.268.268 0 0 0-.1.22h-.01a.044.044 0 0 0-.03-.01h-.01a.293.293 0 0 0-.11.17l-.02.02-.07-.02c-.07 0-.09.07-.08.21a.047.047 0 0 1-.05.05.1.1 0 0 0-.07.07.746.746 0 0 1-.07.12.469.469 0 0 0-.1.06.548.548 0 0 1-.07.13c-.06.08-.08.13-.09.14a.11.11 0 0 1-.05.05.051.051 0 0 0-.04.04l.02.08q0 .06-.12.06c-.16 0-.25-.18-.27-.53a.2.2 0 0 1 .04-.14 1.376 1.376 0 0 0 .08-.17 1.772 1.772 0 0 0 .16-.23 1.213 1.213 0 0 1 .14-.2l.04-.09a.155.155 0 0 1 .02-.08.056.056 0 0 0 .01-.06c0-.04-.01-.07-.03-.07a.159.159 0 0 0-.12.04.262.262 0 0 1-.09.05.088.088 0 0 0-.07.06.314.314 0 0 0-.1.1c-.04.06-.07.09-.08.11a.219.219 0 0 0-.03.05.042.042 0 0 1-.04.04.055.055 0 0 0-.05.03.076.076 0 0 1-.04.02.037.037 0 0 0-.01.03.073.073 0 0 1-.06.07c0 .06-.01.1-.03.1a.191.191 0 0 0-.09.09 1.073 1.073 0 0 1-.15.17.814.814 0 0 0-.14.16.11.11 0 0 1-.05.05.124.124 0 0 0-.03-.02.076.076 0 0 0-.04-.01c-.01 0-.02.02-.02.06v.04a.52.52 0 0 1-.05.03h-.05a.033.033 0 0 0-.04.04l.04.04v.01a.044.044 0 0 1-.05.06.6.6 0 0 0-.22.16l-.11.03-.08.05a.26.26 0 0 0-.07-.03l-.05.03-.11.01c-.01 0-.06-.03-.17-.08a.5.5 0 0 1-.2-.17c-.03-.05-.07-.11-.11-.17a.4.4 0 0 1-.07-.12.845.845 0 0 1-.03-.29 1.05 1.05 0 0 0 .02-.13.114.114 0 0 1 .02-.09.3.3 0 0 0 .03-.16 1.959 1.959 0 0 1 .09-.3.467.467 0 0 0 .04-.14l.03-.07a.11.11 0 0 0 .01-.07c.01-.04.01-.06.03-.06a.126.126 0 0 0 .01-.08.121.121 0 0 0-.12-.12.042.042 0 0 0-.04.04.191.191 0 0 1-.09.09.248.248 0 0 0-.09.07.249.249 0 0 1-.07.05.219.219 0 0 0-.09.1l-.06.04a.125.125 0 0 1-.04.09c-.01 0-.06.02-.13.04a.1.1 0 0 0-.03.06.081.081 0 0 1-.08.04.746.746 0 0 0-.07.12.544.544 0 0 0-.08.04l-.06.02-.01.06-.02.06a.12.12 0 0 0-.07.07.361.361 0 0 1-.09.09l-.03.06a.149.149 0 0 0-.11.09.083.083 0 0 1-.08.07.27.27 0 0 0-.11.09l-.09.03-.01.04a.223.223 0 0 1-.12.07.834.834 0 0 0-.12.04.078.078 0 0 1-.05.02.319.319 0 0 1-.14-.03.784.784 0 0 0-.14-.05.219.219 0 0 1-.03-.05.2.2 0 0 0-.04-.08.19.19 0 0 1-.05-.13l.01-.08a.106.106 0 0 0-.02-.05.04.04 0 0 1-.02-.04v-.02a.037.037 0 0 0 .01-.03.433.433 0 0 1-.01-.05.06.06 0 0 1-.01-.04v-.21c0-.01 0-.02-.01-.02a.113.113 0 0 0-.06.04.1.1 0 0 1-.09.04.118.118 0 0 0-.04.1.3.3 0 0 1-.08.08l-.01.02a.079.079 0 0 1-.06.05.435.435 0 0 0-.07.04l-.03.05-.08-.01a.723.723 0 0 0-.04.07.2.2 0 0 1-.08.1l-.28.26a1.055 1.055 0 0 1-.13.08l-.02.02a.792.792 0 0 1-.43.21.565.565 0 0 1-.26-.07.219.219 0 0 1-.16-.15l-.05-.18a.254.254 0 0 1-.05-.16v-.05l-.01.01a.208.208 0 0 1-.09.12l-.08-.04a.208.208 0 0 0-.07.15.825.825 0 0 0-.11.12l-.08-.01q-.03 0-.03.09a.23.23 0 0 1-.07.06.308.308 0 0 0-.12.08.382.382 0 0 1-.19.03.173.173 0 0 1-.04-.03.313.313 0 0 0-.1-.05.179.179 0 0 1-.09-.1.535.535 0 0 0-.06-.13.574.574 0 0 1-.04-.07l.01-.08-.03-.09.03-.06a.271.271 0 0 1-.03-.08l.02-.26a2.51 2.51 0 0 1 .05-.36.078.078 0 0 0 0-.05l-.01-.11v-.06a.05.05 0 0 0-.04-.06.069.069 0 0 1-.05-.03.322.322 0 0 1-.06-.02.052.052 0 0 0-.05.05l-.06.09-.1-.02v.01a.262.262 0 0 1-.1.13.275.275 0 0 0-.16.1.192.192 0 0 0-.1.07.631.631 0 0 1-.1.07l-.03.06-.06.02a.139.139 0 0 1-.12.11l-.03.08a.108.108 0 0 0-.11.08.174.174 0 0 1-.04.09c-.01 0-.02-.01-.03-.01a.053.053 0 0 0-.03-.02c-.06 0-.09.05-.09.14a.963.963 0 0 1-.15.19c-.1.12-.15.18-.16.19a.477.477 0 0 0-.04.08.174.174 0 0 1-.08.12c-.04.03-.07.05-.08.06a.091.091 0 0 1-.05.03.193.193 0 0 1-.14-.13 1.189 1.189 0 0 1-.06-.14l.01-.08-.01-.08s.01-.06.04-.17a.969.969 0 0 1 .09-.26.788.788 0 0 0 .08-.3.078.078 0 0 0-.03.04.082.082 0 0 1-.1.1 1.417 1.417 0 0 0-.17.23v.01l-.06-.01a.391.391 0 0 1-.04.05.091.091 0 0 1-.08.04.1.1 0 0 0-.08.08.191.191 0 0 1-.04.08.592.592 0 0 0-.04.06.051.051 0 0 1-.04.04.108.108 0 0 1-.06-.08.217.217 0 0 0-.06.07l.03.06c0 .01 0 .02-.01.02a.305.305 0 0 0-.05.09.3.3 0 0 1-.19.09c-.01 0-.02.01-.03.05a.1.1 0 0 1-.11.06.188.188 0 0 1-.12.13l-.17.05h-.08a.054.054 0 0 1-.05.05l-.05.02a.072.072 0 0 1-.06.04c-.04 0-.06-.01-.06-.04v-.04c0-.02 0-.03-.02-.03.01.13-.01.19-.07.18a.418.418 0 0 1-.09-.03h-.01l-.07.04c-.01 0-.02.01-.03.01a.613.613 0 0 1-.3-.11h-.04a.241.241 0 0 1-.2-.16l-.01-.02a.14.14 0 0 1-.11-.13.282.282 0 0 1-.13-.2.155.155 0 0 1-.03-.06l-.12-.32a4.58 4.58 0 0 0-.03-.23l-.01-.03v-.03l.01-.11-.01-.04a1.2 1.2 0 0 1 .05-.25 1.442 1.442 0 0 0 .07-.32.491.491 0 0 1 .03-.13l.09-.32.04-.05v-.04a.647.647 0 0 1 .03-.1.289.289 0 0 1 .07-.11.251.251 0 0 0 .04-.07.079.079 0 0 1 .07-.05.133.133 0 0 1-.03-.07l-.02-.08a.144.144 0 0 1 .02-.03l.02-.03.05-.05a.06.06 0 0 0 .03-.06.277.277 0 0 1 .05-.12.116.116 0 0 1 .08-.08.04.04 0 0 0 .04-.02.06.06 0 0 1 .04-.01.051.051 0 0 1 .04.04.068.068 0 0 0 .03.04c.02 0 .03-.02.03-.05a.068.068 0 0 0-.04-.03.092.092 0 0 1-.06-.04.085.085 0 0 0-.02-.06.124.124 0 0 0-.02-.03.1.1 0 0 1 .04-.08.072.072 0 0 1 .06-.04.072.072 0 0 0 .06-.04.063.063 0 0 1-.05-.06.369.369 0 0 0 .08-.14.124.124 0 0 1 .1-.1.109.109 0 0 0 .04.02.62.62 0 0 1 .03-.11l-.03-.09a.308.308 0 0 1 .1-.13l.03-.02a.255.255 0 0 1 .17-.2.841.841 0 0 1 .23-.23.4.4 0 0 1 .04.03l.04-.01a.025.025 0 0 1 .02.03 1.034 1.034 0 0 0-.12.14h.01l.03-.03a.381.381 0 0 0 .05-.06.022.022 0 0 0 .02.02.192.192 0 0 0 .04-.12.113.113 0 0 0-.05-.04l-.01-.02a.394.394 0 0 1 .13-.15 1.63 1.63 0 0 1 .29-.23l.03-.05a.076.076 0 0 1 .05-.02.206.206 0 0 1 .09.05l.02-.01a.2.2 0 0 1-.02-.06.027.027 0 0 1 .03-.03.344.344 0 0 1 .16-.11.376.376 0 0 0 .17-.08l.09-.03a.293.293 0 0 0 .1-.03.375.375 0 0 1 .11-.01.393.393 0 0 0 .06-.02.174.174 0 0 1 .07-.03.168.168 0 0 1 .09.06c.01 0 .01.01.02.01l.05-.04h.01c.04.04.08.07.12.11a.439.439 0 0 1 .19.32l-.01.18.02.15a.122.122 0 0 1-.05.12.99.99 0 0 1-.05.27.638.638 0 0 0-.06.23.883.883 0 0 1-.2.39.169.169 0 0 1-.04.07 1.25 1.25 0 0 0-.11.23.648.648 0 0 0-.12.2.2.2 0 0 1-.11.11h-.01l.02.09a.345.345 0 0 1-.28.25.259.259 0 0 1-.18-.09.276.276 0 0 1-.1-.18.725.725 0 0 1 .41-.49.227.227 0 0 0 .04.01l.02-.06a.142.142 0 0 1-.02-.04.2.2 0 0 1 .12-.13.139.139 0 0 1 .11-.13l.13-.26.01-.04v-.06a.171.171 0 0 1 .08-.08v-.1a.082.082 0 0 1 .05-.08.5.5 0 0 0 .03-.14.465.465 0 0 1 .05-.21.774.774 0 0 0-.06-.24.139.139 0 0 0-.1-.05.376.376 0 0 0-.18.07.424.424 0 0 1-.16.07.048.048 0 0 1-.04-.01.053.053 0 0 0-.03-.02.071.071 0 0 0-.04.05.1.1 0 0 1-.04.05.172.172 0 0 0-.07.04.255.255 0 0 1-.1.07l-.06.09-.06.05a.085.085 0 0 1-.1.08.282.282 0 0 0-.06.1l-.03.03h-.06l-.01.04.01.04a.042.042 0 0 1-.03.04l-.13.17-.03.02h-.03l-.02.01c0 .1-.02.15-.07.15a.194.194 0 0 1-.1.15l-.03.04h-.06a.078.078 0 0 1 .03.04.2.2 0 0 1-.04.09q-.03.075-.06.06a.469.469 0 0 1-.06.21l-.03.06a.435.435 0 0 1-.04.07v.03a.211.211 0 0 1-.18.19l.04.11c-.01.02-.03.05-.06.1l-.03.08a.125.125 0 0 1-.05.09.212.212 0 0 1-.03.07.048.048 0 0 0-.02.04l.01.06a.459.459 0 0 0-.06.16l-.03.09a.3.3 0 0 0-.04.1.2.2 0 0 1-.07.1c-.02.12-.03.19-.03.2l-.05.05a.393.393 0 0 1-.02.06l-.01.04.01.06a.179.179 0 0 1-.09.12.087.087 0 0 1 .05.07.211.211 0 0 1-.03.15.418.418 0 0 0-.04.1.6.6 0 0 1-.05.14.087.087 0 0 1 .05.07l-.02.28.04.09a.471.471 0 0 0-.05.02.2.2 0 0 0 .05.09.642.642 0 0 1 .14.21.1.1 0 0 0 .07.02.148.148 0 0 0 .07-.01.772.772 0 0 1 .1-.01.371.371 0 0 0 .17-.08l.06.01a.143.143 0 0 0 .13-.07.1.1 0 0 1 .07-.08.363.363 0 0 0 .11-.03h.02a.068.068 0 0 1 .03-.04c.01-.01.03-.04.06-.08a.121.121 0 0 1 .09-.06 1.933 1.933 0 0 0 .2-.17.1.1 0 0 1 .04-.01.066.066 0 0 0 .05-.04.814.814 0 0 1 .17-.17.806.806 0 0 0 .17-.22.1.1 0 0 1 .07-.08.176.176 0 0 1 .06.01c.01 0 .02-.01.02-.04a.491.491 0 0 1 .16-.13.147.147 0 0 1 .11-.14l.12-.14h.06l.03-.03v-.04a.084.084 0 0 1 .06-.08h.03l.02-.01c.01-.09.04-.14.08-.14h.04c.02 0 .03-.02.02-.08a.106.106 0 0 1 .1-.09.98.98 0 0 0 .08-.25.047.047 0 0 0 .04-.06l.03-.06.04-.01.01-.02v-.03a.9.9 0 0 1 .13-.36c.08-.22.13-.35.13-.37a.453.453 0 0 1 .05-.1 1.924 1.924 0 0 0 .08-.27 1.714 1.714 0 0 1 .2-.41.116.116 0 0 0 .04-.09.7.7 0 0 1 .09-.17l.04-.09c.01-.03.04-.07.07-.14a1.941 1.941 0 0 1 .1-.17.746.746 0 0 0 .07-.12.187.187 0 0 1 .05-.1.534.534 0 0 0 .07-.1.1.1 0 0 1 .11-.08.254.254 0 0 1 .23.14.521.521 0 0 1 .08.24q0 .015-.03.18l-.03.38a.1.1 0 0 0-.07.1.852.852 0 0 1-.13.46.16.16 0 0 0-.02.1.211.211 0 0 1-.06.16.336.336 0 0 0-.09.19l-.33.55-.03.04a.249.249 0 0 0-.05.07l-.06-.03c-.07 0-.11.02-.1.07a.108.108 0 0 0 .02.07v.01l-.26.43a.942.942 0 0 0-.05.17l-.04.12a.616.616 0 0 0-.1.24.428.428 0 0 1-.08.18c-.04.13-.06.19-.06.2a.025.025 0 0 0 .02.03.3.3 0 0 0 .11-.13.585.585 0 0 1 .13-.16.378.378 0 0 0 .09-.12l.04-.03a.179.179 0 0 0 .06-.05l.04.01a.055.055 0 0 0 .03-.05.123.123 0 0 1 .02-.05.157.157 0 0 0 .13-.08.068.068 0 0 1 .05-.07.118.118 0 0 0 .08-.07.333.333 0 0 1 .14-.12c.05-.04.1-.06.13-.09a.678.678 0 0 1 .17-.08.476.476 0 0 1 .19-.05h.02l.03.01.06-.01a.541.541 0 0 1 .28.09.281.281 0 0 1 .14.26l-.02.26-.02.21c-.01.03-.02.11-.05.22a1.21 1.21 0 0 0-.04.2l-.01.08.02.11v.09a.043.043 0 0 0 .04.04.323.323 0 0 0 .08-.07.082.082 0 0 0 .08-.05 1.059 1.059 0 0 1 .1-.12.069.069 0 0 1 .05-.03.318.318 0 0 0 .13-.1 1.364 1.364 0 0 1 .4-.34.11.11 0 0 1 .04-.1.729.729 0 0 0 .09-.11.319.319 0 0 1 .13-.13l.1-.12a.894.894 0 0 1 .29-.23l.09-.09a.435.435 0 0 1 .16-.1.556.556 0 0 0 .17-.09.339.339 0 0 1 .14-.05h.03a1.011 1.011 0 0 0 .2-.1h.03a.776.776 0 0 1 .07.04h.01l.06-.03a.06.06 0 0 1 .04-.01.348.348 0 0 1 .3.37.069.069 0 0 0 .04.08.21.21 0 0 0 .1-.15.285.285 0 0 1 .3-.15.206.206 0 0 1 .19.24.668.668 0 0 1-.2.51c0 .02-.01.05-.01.08l-.05.17v.01a.075.075 0 0 1-.02.07.133.133 0 0 0-.03.07l.01.11v.12a.118.118 0 0 0 .03.1.317.317 0 0 0 .18-.1.248.248 0 0 1 .07-.09l.04-.01a.3.3 0 0 1 .07-.11l.06-.05a.066.066 0 0 0 .07-.06.1.1 0 0 1 .08-.09.054.054 0 0 0 .04-.03c.01-.01.02-.03.03-.04l.04-.04a.02.02 0 0 0 .01-.02.154.154 0 0 1 .13-.1.036.036 0 0 1 .03.02.055.055 0 0 0 .03-.05.134.134 0 0 1 .06-.07.34.34 0 0 0 .12-.12.335.335 0 0 1 .15-.14l.03-.06.06-.01.01-.06a.687.687 0 0 0 .22-.24l.03-.03a.158.158 0 0 0 .05-.06.379.379 0 0 1 .31-.17.338.338 0 0 1 .32.31l.03.06a1.7 1.7 0 0 1 .14.24 1.345 1.345 0 0 1 .11.22.366.366 0 0 1-.02.23 1.154 1.154 0 0 0-.19.32l-.04.03a.442.442 0 0 1-.05.15c-.05.03-.07.05-.06.07l.01.08a.077.077 0 0 1-.01.03.563.563 0 0 0-.02.1l-.03.05a.355.355 0 0 0-.01.07.14.14 0 0 1-.03.09.1.1 0 0 0-.01.07c.01.04.06.06.16.06a.393.393 0 0 0 .06-.02l.06.01.03-.03a.188.188 0 0 1 .09-.04.207.207 0 0 0 .1-.06.542.542 0 0 1 .11-.06.21.21 0 0 0 .11-.08.406.406 0 0 1 .1-.09.254.254 0 0 0 .1-.08.943.943 0 0 1 .1-.1 1.194 1.194 0 0 0 .17-.21.529.529 0 0 1 .11-.09.365.365 0 0 0 .05-.11.126.126 0 0 1 .11-.11.73.73 0 0 1 .29-.29.277.277 0 0 0 .08-.05.265.265 0 0 1 .06-.05l.01-.03a.585.585 0 0 1 .23-.13h.05l.26-.07c.11-.02.18.12.2.42v.07l.02.04a1.358 1.358 0 0 1 .12-.12.3.3 0 0 0 .1-.09.258.258 0 0 1 .11-.08zM20.14 22.92a2.763 2.763 0 0 1 .81-.53 1.416 1.416 0 0 1 .82-.28 1.13 1.13 0 0 1 .09.74 1.674 1.674 0 0 1-.21.82 2.166 2.166 0 0 1-.77.51 1.3 1.3 0 0 1-.78.23.773.773 0 0 1-.13-.68 1.68 1.68 0 0 1 .17-.81zm-.25 8.07v-3.27a2.476 2.476 0 0 0-.12-1.04 1.577 1.577 0 0 0-.84-.31.2.2 0 0 1-.2-.25l.07-.22a.274.274 0 0 1 .19-.16 2.683 2.683 0 0 1 .34-.02c.13-.03.23-.05.31-.07a2.954 2.954 0 0 0 .51-.19 7.465 7.465 0 0 0 .92-.39 2.4 2.4 0 0 1 .5-.23c.09 0 .13.15.13.44v5.56a1.628 1.628 0 0 0 .6 1.59 1.6 1.6 0 0 1 .62.38v.11a.293.293 0 0 1-.36.29c-.17 0-.42-.03-.76-.07a5.946 5.946 0 0 0-.79-.08 7.54 7.54 0 0 0-.89.08c-.39.04-.65.07-.79.07a.51.51 0 0 1-.23-.07.217.217 0 0 1-.1-.19l.03-.07a.436.436 0 0 1 .3-.33 1.618 1.618 0 0 0 .56-1.56zm6-2.29c-.55 0-.83.16-.83.47a1.421 1.421 0 0 0 .05.3c.04.13.07.26.12.39a3.361 3.361 0 0 0 .99 1.69 2.455 2.455 0 0 0 1.71.68 2.8 2.8 0 0 0 .96-.18c.38-.22.7-.41.96-.55a1.332 1.332 0 0 1 .55-.22.429.429 0 0 1 .17.04l.03.18a1.562 1.562 0 0 1-.84.98 4.711 4.711 0 0 1-1.12.62 5.424 5.424 0 0 1-1.73.25 3.977 3.977 0 0 1-1.88-.43 3.167 3.167 0 0 1-1.36-1.42 4.37 4.37 0 0 1-.45-1.93 5.08 5.08 0 0 1 .65-2.51 3.531 3.531 0 0 1 1.75-1.63 3.732 3.732 0 0 1 1.32-.22 4.1 4.1 0 0 1 2.24.65 3.079 3.079 0 0 1 1.32 1.79l.07.58c0 .31-.24.47-.73.47h-3.95zm-.13-.47h.93a8.692 8.692 0 0 0 1.23-.07.72.72 0 0 0 .57-.22l.07-.4a1.842 1.842 0 0 0-.34-.99 1.692 1.692 0 0 0-.75-.68 2.152 2.152 0 0 0-.71-.15 1.49 1.49 0 0 0-1.05.42 1.842 1.842 0 0 0-.55 1.09l-.1.55c0 .3.24.45.7.45zm6.23 2.65v-4.33a.372.372 0 0 0-.09-.29.329.329 0 0 0-.24-.07h-.3a.26.26 0 0 1-.26-.14l-.04-.11a.526.526 0 0 1 .17-.33c.27-.28.43-.45.5-.51.32-.33.6-.63.84-.91a6.524 6.524 0 0 0 .51-.74c.14-.25.24-.4.28-.46a.954.954 0 0 1 .27-.11l.17.07v1.86a.78.78 0 0 0 .06.4.69.69 0 0 0 .52.14 2.875 2.875 0 0 0 .65-.07 1.558 1.558 0 0 0 .47-.16c.1-.06.19-.12.28-.17a.275.275 0 0 1 .13.19 1.057 1.057 0 0 1-.3.85.982.982 0 0 1-.66.2h-.72a.8.8 0 0 0-.33.05.25.25 0 0 0-.1.24v4.22a3.919 3.919 0 0 0 .1 1.09.668.668 0 0 0 .69.51h.3c.16-.06.33-.12.52-.19a1.2 1.2 0 0 1 .4-.1.186.186 0 0 1 .23.18v.07a.708.708 0 0 1-.26.38 2.271 2.271 0 0 1-.4.28 2.984 2.984 0 0 1-1.68.47 1.453 1.453 0 0 1-1.43-.73 4.067 4.067 0 0 1-.28-1.78zm5.83.11v-3.27a3.345 3.345 0 0 0-.08-.88.613.613 0 0 0-.64-.43c-.29 0-.43-.11-.43-.33a.321.321 0 0 1 .39-.33 4.5 4.5 0 0 0 1.3-.4c.37-.18.75-.36 1.11-.54.11 0 .16.2.16.62v.98a7.668 7.668 0 0 1 1.19-.93 2.774 2.774 0 0 1 1.38-.42l.66.08a2.27 2.27 0 0 1 1.44 1.47 6.737 6.737 0 0 1 .31 2.25v2.01a2.813 2.813 0 0 0 .15 1.21 2.423 2.423 0 0 0 .97.54.272.272 0 0 1 .13.26.337.337 0 0 1-.42.33h-.04c-.28 0-.59-.01-.93-.04s-.61-.05-.83-.07l-.98.11h-.36l-.26-.07a.316.316 0 0 1-.1-.19l.07-.21c.24-.19.41-.32.52-.4a1.147 1.147 0 0 0 .33-.95v-1.78a15 15 0 0 0-.07-1.59 2.565 2.565 0 0 0-.28-1.04 1.481 1.481 0 0 0-.6-.53 2.013 2.013 0 0 0-.83-.19 1.367 1.367 0 0 0-.99.37 1.636 1.636 0 0 0-.46 1.23v2.98a1.519 1.519 0 0 0 .72 1.6 1.748 1.748 0 0 1 .73.37v.07a.337.337 0 0 1-.42.33c-.18 0-.47-.03-.89-.07s-.69-.08-.83-.08a7.72 7.72 0 0 0-.89.08c-.38.04-.65.07-.79.07a.439.439 0 0 1-.22-.07.226.226 0 0 1-.11-.19l.03-.07a.436.436 0 0 1 .3-.33 1.618 1.618 0 0 0 .56-1.56zm12.63-1.93a6.126 6.126 0 0 0-1.22.35 2.154 2.154 0 0 0-.99.82 1.726 1.726 0 0 0-.23.94 1.259 1.259 0 0 0 .11.55.972.972 0 0 0 .35.4c.09.03.2.07.32.12a1.045 1.045 0 0 0 .32.06 1.744 1.744 0 0 0 1.14-.4.526.526 0 0 0 .15-.26 1.345 1.345 0 0 0 .05-.4v-2.18zm.23 3.17a8.786 8.786 0 0 1-1.26.76 3.826 3.826 0 0 1-1.28.36h-.36a1.716 1.716 0 0 1-.94-.25 1.354 1.354 0 0 1-.55-.8c-.02-.1-.05-.23-.08-.39a2.54 2.54 0 0 1-.05-.37 2.429 2.429 0 0 1 1.54-2.19 10.273 10.273 0 0 1 2.75-.83 3.969 3.969 0 0 0-.42-2.24 1.555 1.555 0 0 0-1.29-.53.839.839 0 0 0-.64.19.809.809 0 0 0-.16.54v.36a.582.582 0 0 1-.19.5 2.792 2.792 0 0 1-.46.26 1.32 1.32 0 0 1-.54.12.336.336 0 0 1-.15-.04c-.06-.02-.12-.05-.18-.07a.407.407 0 0 1-.16-.33 1.564 1.564 0 0 1 .19-.68 1.78 1.78 0 0 1 .37-.55 2.987 2.987 0 0 1 1.12-.71 4.007 4.007 0 0 1 1.35-.24 4.106 4.106 0 0 1 .75.07 6.181 6.181 0 0 1 .74.18A1.993 1.993 0 0 1 52 26.5a5.8 5.8 0 0 1 .19 1.8v3.16a.912.912 0 0 0 .13.51.564.564 0 0 0 .48.18h.23a.226.226 0 0 1 .28.22v.07a.944.944 0 0 1-.59.57 2.13 2.13 0 0 1-.89.23.976.976 0 0 1-.71-.3 2.642 2.642 0 0 1-.44-.71zm4.01-1.24v-3.27a2.954 2.954 0 0 0-.08-.88.606.606 0 0 0-.64-.43.346.346 0 0 1-.43-.33.329.329 0 0 1 .4-.33 4.534 4.534 0 0 0 1.29-.4q.57-.27 1.11-.54c.11 0 .17.2.17.62v.98a5.3 5.3 0 0 1 1.31-1.09 2.217 2.217 0 0 1 1.03-.26h.06a1.875 1.875 0 0 1 1.21.42 3.442 3.442 0 0 1 .77 1.15 9.89 9.89 0 0 1 1.19-1.06 2.471 2.471 0 0 1 1.42-.51l.66.08a2.127 2.127 0 0 1 1.37 1.49 7.9 7.9 0 0 1 .24 2.21v2a2.759 2.759 0 0 0 .19 1.17 1.289 1.289 0 0 0 .84.54.268.268 0 0 1 .19.29.392.392 0 0 1-.09.26.339.339 0 0 1-.27.11 6.2 6.2 0 0 1-.66-.07 4.379 4.379 0 0 0-.66-.08c-.14 0-.37.02-.68.04s-.48.04-.49.04-.09.01-.24.03a2.03 2.03 0 0 1-.37.04c-.24 0-.36-.09-.36-.26v-.07a1.3 1.3 0 0 1 .42-.44 1.072 1.072 0 0 0 .44-.8v-1.63c0-.55-.01-1.04-.04-1.49a4.459 4.459 0 0 0-.13-1.02 1.448 1.448 0 0 0-.54-.9 1.491 1.491 0 0 0-.91-.34 1.179 1.179 0 0 0-.91.41 1.7 1.7 0 0 0-.37 1.19v2.98a2.843 2.843 0 0 0 .17 1.18 1.216 1.216 0 0 0 .82.53.268.268 0 0 1 .19.29.4.4 0 0 1-.09.25.285.285 0 0 1-.24.12c-.13 0-.35-.03-.67-.07a5.359 5.359 0 0 0-.62-.08c-.13 0-.35.02-.66.04s-.47.04-.49.04-.1.01-.25.03a1.613 1.613 0 0 1-.34.04.25.25 0 0 1-.3-.26v-.07a1.631 1.631 0 0 1 .36-.42 1.228 1.228 0 0 0 .37-.82V29.9q0-1.14-.03-1.59a4.837 4.837 0 0 0-.12-.91 1.342 1.342 0 0 0-.52-.8 1.443 1.443 0 0 0-.9-.34 1.231 1.231 0 0 0-.92.41 1.7 1.7 0 0 0-.38 1.19v2.98a1.576 1.576 0 0 0 .64 1.61 2.285 2.285 0 0 1 .66.36v.07a.325.325 0 0 1-.4.33c-.17 0-.43-.03-.78-.07a6.47 6.47 0 0 0-.82-.08 7.54 7.54 0 0 0-.89.08c-.38.04-.64.07-.78.07a.476.476 0 0 1-.23-.07.217.217 0 0 1-.1-.19l.03-.07a.436.436 0 0 1 .3-.33 1.618 1.618 0 0 0 .55-1.56zm-40.07-2.36A67.023 67.023 0 0 1 20 19.55h.01a2.269 2.269 0 0 0 .65.09 2.734 2.734 0 0 0 .5-.05 47.184 47.184 0 0 0-6.38 12.66c-.06 1.33-.07 5.72-2.25 8.75C14.14 34.36 11.29 16.61 0 14.58c13.17-1.79 14.77 11.91 14.62 14.05zm-2.6 5.71a46.842 46.842 0 0 0-2.25 6.04L11.14 44c.53-2.21.58-3.01 1.28-5.27a12.352 12.352 0 0 0-.4-4.39zm17.95 4.36l-.05.02c-.01.01-.04.03-.09.07a.486.486 0 0 1-.14.11.326.326 0 0 0-.13.2.923.923 0 0 0-.07.19.027.027 0 0 0 .03.03l.13-.06a.381.381 0 0 0 .13-.09 1.027 1.027 0 0 1 .18-.14l.03-.04a.1.1 0 0 1 .07-.05.382.382 0 0 0 .09-.09l.03-.01a.3.3 0 0 1 .13-.14.068.068 0 0 0 .07-.05.071.071 0 0 0-.08-.05.163.163 0 0 0-.09.04h-.09a.252.252 0 0 0-.09.04zM31.31 0c.19 2.84 3.31 21.23-10.49 18.2 6.26.11 6.51-5.64 5.54-9.43-.57-2.2-.95-4.83 4.95-8.77z" fill="#7c7c7c" fill-rule="evenodd"/></svg>