<svg xmlns="http://www.w3.org/2000/svg" width="70" height="36.1" viewBox="215 232.4 70 36.1"><g fill="#999"><path d="M284.6 261.2H215v.8h69.6zM229.6 253.3l-2.2 5.2h3.6l1.6-3.8c3.5-2.4 7.5-4.2 11.7-5.6l3.9 9.4h3.6l-4.4-10.3c2.3-.6 4.6-1 6.9-1.4v11.7h3.6v-12.1c2.5-.2 5-.2 7.5-.1l-5.2 12.2h3.6l4.9-11.9c2.7.3 5.4.8 8 1.4l4.3 10.5h3.6l-11.1-26h-2.2l-5.5 12.9c-2.6-.3-5.2-.3-7.9-.2V236h9l1.5-3.5h-22.1l-1.5 3.5h9.4v9.4c-2.5.2-5.1.6-7.6 1.1l-6-14h-2.2l-8.8 20.8zm42.8-15.7l4.2 10.2c-2.3-.9-4.9-1.5-7.6-1.9l3.4-8.3zm-32.8 0l4 9.7c-3.3.9-6.4 2-9.4 3.5l5.4-13.2zM218.4 251.1c7.9-.4 13.7-2.8 13.7-9.5 0-7.6-7-9.1-17.1-9.1v26h3.4v-7.4zm0-3v-12.5c5.8.1 10.1 1.2 10.1 6s-4.3 6.4-10.1 6.5zM282.8 236.1c1 0 1.8-.8 1.8-1.9 0-1-.9-1.8-1.9-1.8s-1.8.9-1.7 1.9.8 1.8 1.8 1.8zm0-3.5c.1 0 .1 0 0 0 .9 0 1.6.7 1.6 1.6 0 .4-.2.8-.4 1.1l-.3-.6c-.1-.1-.2-.2-.2-.3-.2 0-.3 0-.3-.1.2 0 .3-.1.5-.2.1-.1.2-.3.2-.4 0-.1 0-.3-.1-.4-.1-.1-.1-.2-.2-.2s-.3-.1-.4-.1h-1v2.4h.3v-1h.5s.1 0 .1.1c.1 0 .1.1.2.2s.1.2.2.3l.1.4h.3c-.3.3-.7.4-1.1.4-.9 0-1.6-.7-1.6-1.6 0-.9.8-1.6 1.6-1.6zm.2 1.5h-.6v-.8h.6c.1 0 .3 0 .4.1s.1.2.1.3c0 .1 0 .1-.1.2 0 .1-.1.1-.2.1 0 .1-.1.1-.2.1zM216.2 264.5h-1v3.8h.4v-1.5h.5c.4 0 .7-.1 1-.4.2-.2.4-.5.4-.9 0-.3-.1-.6-.3-.9-.3 0-.6-.1-1-.1zm.6 1.8c-.2.1-.4.2-.7.2h-.4v-1.6h.7c.4 0 .7.4.7.8 0 .2-.1.4-.3.6zM219.3 265.5c-.3 0-.6.1-.9.2v.4c.2-.2.5-.3.9-.3h.1c.3.1.5.4.4.7l-.8.1h-.1c-.5 0-.9.4-.8.9 0 .2.1.4.2.6.1.2.4.3.6.3.3 0 .7-.2.8-.5v.4h.5v-1.8-.3c0-.4-.5-.8-.9-.7zm.4 1.7c0 .2-.1.4-.2.6-.1.2-.3.2-.5.2-.1 0-.3 0-.4-.1-.1-.1-.2-.2-.2-.3 0-.1 0-.3.2-.4.1-.1.3-.1.4-.2l.6-.1.1.3zM222.8 268.2zM222.8 267.8c-.2.1-.4.2-.7.2-.3 0-.5-.1-.7-.3-.2-.2-.3-.5-.2-.8 0-.3.1-.6.3-.8.2-.2.4-.3.7-.3.2 0 .5.1.7.2v-.5c-.2-.1-.4-.1-.6-.1-.4 0-.8.1-1 .4-.3.3-.4.7-.4 1.1s.1.7.3 1c.1.4.5.5.8.5s.5-.1.7-.2v-.4h.1zM223.5 264.4c0 .1-.1.1-.1.2s0 .1.1.2.1.1.2.1.1 0 .2-.1c0-.1.1-.1.1-.2s0-.1-.1-.2c-.2-.1-.3-.1-.4 0zM223.4 265.6h.4v2.8h-.4zM225.1 264.4c-.2.2-.3.4-.2.7v.4h-.5v.4h.5v2.4h.4v-2.4h.6v-.4h-.6v-.4c0-.4.1-.6.4-.6.1 0 .2 0 .3.1v-.4c-.1 0-.2 0-.3-.1l-.6.3zM226.6 264.3c-.1 0-.1 0-.2.1 0 .1-.1.1-.1.2s0 .1.1.2.1.1.2.1.1 0 .2-.1.1-.1.1-.2 0-.1-.1-.2c0 0-.1-.1-.2-.1zM226.4 265.6h.4v2.8h-.4zM229.5 267.8c-.2.1-.4.2-.7.2s-.5-.1-.7-.3c-.2-.2-.3-.5-.2-.8 0-.3.1-.6.3-.8.2-.2.4-.3.7-.3.2 0 .5.1.6.2v-.5c-.2-.1-.4-.1-.6-.1-.4 0-.8.1-1 .4-.3.3-.4.7-.4 1.1s.1.7.3 1c.2.3.6.4.9.4s.5-.1.7-.2v-.3h.1zM229.6 268.2zM232.8 264.5l-1.4 3.8h.5l.4-1.1h1.6l.4 1.1h.5l-1.5-3.8h-.5zm-.5 2.3l.6-1.6c0-.1 0-.2.1-.2 0 .1 0 .2.1.2l.6 1.6h-1.4zM236.6 267.1c-.1-.1-.2-.1-.2-.2-.1-.1-.2-.1-.3-.1-.1 0-.2-.1-.2-.1s-.1-.1-.2-.1-.1-.1-.1-.1c0-.1-.1-.1-.1-.2s0-.1.1-.1c0-.1.1-.1.1-.1.1 0 .1-.1.2-.1h.2c.2 0 .5.1.7.2v-.5c-.2-.1-.4-.1-.6-.1-.1 0-.2 0-.4.1-.1 0-.2.1-.3.1-.1.1-.2.1-.2.2-.3.1-.3.2-.3.3s0 .2.1.3l.2.2.2.2c.1.1.2.1.3.1.1 0 .2.1.2.1.1 0 .1.1.2.1s.1.1.1.1c0 .1 0 .1.1.2 0 .2-.2.4-.6.4-.3 0-.6-.1-.8-.2v.5c.2.1.4.2.7.1.1 0 .3 0 .4-.1.1 0 .3-.1.3-.1l.2-.2c.1-.1.1-.2.1-.4 0-.1 0-.2-.1-.3.1-.1 0-.2 0-.2zM237.7 264.3c-.1 0-.1 0-.2.1s-.1.1-.1.2 0 .1.1.2.1.1.2.1.1 0 .2-.1.1-.1.1-.2 0-.1-.1-.2c-.1 0-.1-.1-.2-.1zM237.7 264.9zM237.5 265.6h.4v2.8h-.4zM239.9 265.5c-.3 0-.6.1-.9.2v.4c.2-.2.5-.3.9-.3h.1c.3.1.5.4.4.7l-.8.1h-.1c-.5 0-.8.4-.8.9 0 .2.1.4.2.6.2.2.4.2.6.2.3 0 .7-.2.8-.5v.4h.5v-1.8-.2c0-.4-.5-.7-.9-.7zm.4 1.7c0 .2-.1.4-.2.6-.1.2-.3.2-.5.2-.1 0-.3 0-.4-.1-.1-.1-.2-.2-.2-.3 0-.1 0-.3.2-.4.1-.1.3-.1.4-.2l.7-.1v.3zM242.7 264.9h1.1v3.4h.4v-3.4h1.1v-.4h-2.6zM247 265.5c-.2 0-.3.1-.4.1-.1.1-.2.3-.3.5v-.6h-.4v2.8h.4v-1.4c0-.3 0-.5.2-.7.1-.2.3-.3.5-.3.1 0 .2 0 .3.1v-.5h-.3zM247.2 266c.1 0 0 0 0 0zM248.8 265.5c-.3 0-.6.1-.9.2v.4c.2-.2.5-.3.9-.3h.1c.3.1.5.4.4.7l-.8.1h-.1c-.5 0-.9.4-.8.9 0 .2.1.4.2.6.2.2.4.2.6.2.3 0 .7-.2.8-.5v.4h.5v-1.8-.3c0-.3-.4-.7-.9-.6zm.4 1.7c0 .2-.1.4-.2.6-.1.2-.3.2-.5.2-.1 0-.3 0-.4-.1-.1-.1-.1-.2-.1-.3 0-.1 0-.3.2-.4.1-.1.3-.1.4-.2l.7-.1v.3h-.1zM252.2 265.6l-.7 2c0 .1 0 .3-.1.4 0-.1 0-.2-.1-.4l-.7-2h-.5l1 2.8h.4l1.1-2.8h-.4zM254.2 265.5c-.3 0-.7.1-.9.4-.2.3-.4.7-.3 1 0 .4.1.8.3 1.1.2.3.6.4.9.4s.7-.1.9-.2v-.4c-.2.2-.5.3-.8.3-.2 0-.5-.1-.7-.2-.2-.2-.3-.5-.2-.7h1.9v-.2c0-.3-.1-.7-.3-1-.2-.4-.5-.5-.8-.5zm.6 1.2h-1.5c0-.2.1-.4.3-.6.1-.1.3-.2.5-.2s.4.1.5.2c.1.2.2.4.2.6zM255.9 264.3h.4v4.1h-.4zM259.7 264.5l-1.4 3.8h.5l.4-1.1h1.6l.4 1.1h.5l-1.5-3.8h-.5zm-.4 2.3l.6-1.6c0-.1 0-.2.1-.2 0 .1 0 .2.1.2l.6 1.6h-1.4zM263.6 267.1c-.1-.1-.2-.1-.2-.2-.1 0-.2-.1-.3-.1s-.2-.1-.2-.1-.1-.1-.2-.1-.1-.1-.1-.1c0-.1-.1-.1-.1-.2s0-.1.1-.1c0-.1.1-.1.1-.1.1 0 .1-.1.2-.1h.2c.2 0 .5.1.7.2v-.5c-.2-.1-.4-.1-.6-.1-.1 0-.2 0-.4.1-.1 0-.2.1-.3.1l-.2.2c-.3.1-.3.2-.3.3s0 .2.1.3l.2.2.2.2c.1.1.2.1.3.1.1 0 .2.1.2.1.1 0 .1.1.2.1s.1.1.1.1c0 .1 0 .1.1.2 0 .2-.2.4-.6.4-.3 0-.6-.1-.8-.2v.5c.2.1.4.2.7.1.1 0 .3 0 .4-.1.1 0 .2-.1.3-.1l.2-.2c.1-.1.1-.2.1-.4 0-.1 0-.2-.1-.3.1-.1 0-.2 0-.2zM265.8 267.1l-.2-.2c-.1-.1-.2-.1-.3-.1-.1 0-.2-.1-.2-.1s-.1-.1-.2-.1-.1-.1-.1-.1c0-.1-.1-.1-.1-.2s0-.1.1-.1c0-.1 0-.1.1-.1s.1-.1.2-.1h.2c.2 0 .5.1.7.2v-.5c-.2-.1-.4-.1-.6-.1-.1 0-.3 0-.4.1-.1 0-.2.1-.3.1l-.2.2c-.1.1-.1.2-.1.4 0 .1 0 .2.1.3l.2.2.2.2c.1 0 .2.1.3.1.1 0 .2.1.2.1.1 0 .1.1.2.1s.1.1.1.1v.2c0 .2-.2.4-.6.4-.3 0-.5-.1-.8-.2v.5c.2.1.4.2.7.1.1 0 .3 0 .4-.1.1 0 .2-.1.3-.1l.2-.2c.1-.1.1-.2.1-.4 0-.1 0-.2-.1-.3.1-.2 0-.3-.1-.3zM268 265.5c-.4 0-.7.1-1 .4-.3.3-.4.7-.4 1.1s.1.7.3 1c.2.3.6.4.9.4.4 0 .7-.1 1-.4.5-.6.5-1.5 0-2.1-.2-.2-.5-.4-.8-.4zm.5 2.2c-.2.2-.4.3-.7.3-.2 0-.5-.1-.6-.3-.2-.2-.2-.5-.2-.8s.1-.6.2-.8c.2-.2.4-.3.7-.3.2 0 .5.1.6.3.2.2.2.5.2.8.1.3 0 .6-.2.8zM271.1 268c-.3 0-.5-.1-.7-.3-.2-.2-.3-.5-.2-.8 0-.3.1-.6.3-.8.2-.2.4-.3.7-.3.2 0 .5.1.7.2v-.5c-.2-.1-.4-.1-.6-.1-.4 0-.8.1-1 .4-.3.3-.4.7-.4 1.1s.1.7.3 1c.2.2.6.4.9.4.3 0 .5-.1.8-.2v-.4c-.4.3-.6.3-.8.3zM272.4 264.4c0 .1-.1.1-.1.2s0 .1.1.2.1.1.2.1.1 0 .2-.1c0-.1.1-.1.1-.2s0-.1-.1-.2-.3-.1-.4 0zM272.4 265.6h.4v2.8h-.4zM274.8 265.5c-.3 0-.6.1-.9.2v.4c.2-.2.5-.3.9-.3h.1c.3.1.5.4.4.7l-.8.1h-.1c-.5 0-.9.4-.8.9 0 .2.1.4.2.6.2.2.4.2.6.2.3 0 .7-.2.8-.5v.4h.5v-1.8-.3c0-.3-.4-.7-.9-.6zm.4 1.7c0 .2-.1.4-.2.6-.1.2-.3.2-.5.2-.1 0-.3 0-.4-.1s-.1-.2-.1-.3c0-.1 0-.3.2-.4.1-.1.3-.1.4-.2l.7-.1-.1.3zM277.4 268c-.1 0-.2 0-.3-.1-.1-.2-.1-.3-.1-.4V266h.7v-.4h-.7v-.8l-.4.1v.7h-.5v.4h.5v1.8c0 .4.4.7.7.6.1 0 .3 0 .4-.1v-.4c-.1.1-.2.1-.3.1zM278.5 264.9zM278.5 264.3c-.1 0-.1 0-.2.1 0 .1-.1.1-.1.2s0 .1.1.2.1.1.2.1.1 0 .2-.1c0-.1.1-.1.1-.2s0-.1-.1-.2c0 0-.1-.1-.2-.1zM278.3 265.6h.4v2.8h-.4zM280.8 265.5c-.4 0-.7.1-1 .4-.3.3-.4.7-.4 1.1s.1.7.3 1c.2.3.6.4.9.4.4 0 .7-.1 1-.4.5-.6.5-1.5 0-2.1-.1-.2-.4-.4-.8-.4zm.6 2.2c-.2.2-.4.3-.7.3-.2 0-.5-.1-.6-.3-.2-.2-.3-.5-.2-.8 0-.3.1-.6.2-.8.2-.2.4-.3.7-.3.2 0 .5.1.6.3.2.2.2.5.2.8s-.1.6-.2.8zM284.8 265.8c-.2-.2-.4-.3-.7-.3-.4 0-.7.2-.9.5v-.5h-.4v2.8h.4v-1.6c0-.2.1-.5.2-.6.1-.2.3-.3.6-.3.4 0 .6.3.6.9v1.6h.4v-1.7c0-.3-.1-.6-.2-.8z"/></g></svg>