<svg version="1.1" id="圖層_1" xmlns="http://www.w3.org/2000/svg" x="0" y="0" viewBox="0 0 169.5 88.5" xml:space="preserve"><style>.st0{fill:#01a3e1}</style><g id="圖層_2"><path d="M63 3h-5.2L31.9 62.9h8.4l20.1-48.3 20.1 48.3h8.4zM139.9 3H134.6l-25.9 59.9h8.5l20.1-48.3 20 48.3h8.5zM42.8 24c0-17.5-16.4-21-40-21v59.8h7.9v-17c18.6-.9 32.1-6.3 32.1-21.8zM10.7 39V10.2c13.6.2 23.7 2.8 23.7 13.8 0 11.1-10.1 14.6-23.7 15z"/><path class="st0" d="M2.8 69h163v1.9H2.8z"/><path d="M159.7 9.7V4.4h2.3c.5 0 .8.1 1 .1.2.1.5.3.6.5.2.2.2.5.2.8 0 .3-.1.7-.3.9-.2.2-.6.4-1.1.5.2.1.3.2.4.3.2.2.4.4.6.7l.9 1.5h-.9l-.7-1.1c-.2-.3-.3-.6-.5-.8-.1-.2-.2-.3-.3-.3-.1-.1-.2-.1-.3-.1H160.4v2.3h-.7zm.7-3h1.5c.3 0 .6-.1.8-.1.2-.1.3-.2.4-.3.1-.2.1-.3.1-.5s-.1-.5-.3-.6-.4-.2-.9-.2h-1.7l.1 1.7z"/><path d="M161.6 11.2c-2.3 0-4.2-1.9-4.2-4.2s1.9-4.2 4.2-4.2c2.3 0 4.2 1.9 4.2 4.2s-1.8 4.2-4.2 4.2zm0-7.9c-2 0-3.7 1.6-3.7 3.7s1.6 3.7 3.7 3.7c2 0 3.7-1.6 3.7-3.7.1-2-1.6-3.7-3.7-3.7zM94.8 3h8.4v60h-8.4z"/><path d="M124.2 11.1H72.6L76.1 3h51.6z"/><path class="st0" d="M147 38.1c-31.4-11.3-79.7-6.8-109.9 12.7l6.9 3.3c28.6-19.2 70.2-23.9 103.3-15.4l-.3-.6z"/><path d="M4.3 82.2v3.4h-1v-8.8h2.4c.9 0 1.7.2 2.2.7.5.5.8 1.1.8 2 0 .8-.3 1.5-.9 2s-1.3.8-2.3.8l-1.2-.1zm0-4.5v3.6h1.1c.7 0 1.3-.2 1.6-.5.3-.3.6-.8.6-1.4 0-1.2-.7-1.7-2.1-1.7H4.3zM14.8 85.6h-1v-1c-.5.8-1.1 1.2-1.9 1.2-.6 0-1.1-.2-1.5-.5s-.5-.8-.5-1.3c0-1.2.7-1.9 2.1-2l1.9-.3c0-1-.4-1.6-1.3-1.6-.8 0-1.5.2-2 .8v-1c.6-.4 1.3-.6 2.2-.6 1.5 0 2.2.8 2.2 2.4v4.1l-.2-.2zm-1.1-3.2l-1.5.2c-.5.1-.8.2-1 .3s-.3.5-.3.9c0 .3.1.6.3.8.2.2.5.3.9.3.5 0 .9-.2 1.2-.5.3-.3.5-.8.5-1.3v-.7zM21 85.3c-.5.3-1 .5-1.7.5-.9 0-1.6-.3-2.2-.9-.6-.6-.8-1.3-.8-2.3 0-1 .3-1.9.9-2.5.6-.6 1.4-.9 2.4-.9.6 0 1 .1 1.5.3v1c-.5-.3-1-.5-1.5-.5-.6 0-1.2.2-1.6.7-.4.5-.6 1-.6 1.8s.2 1.3.6 1.7c.4.4.9.6 1.6.6.5 0 1-.2 1.6-.5l-.2 1zM23.1 77.7c-.2 0-.3-.1-.5-.2-.1-.1-.2-.3-.2-.5s.1-.3.2-.5c.1-.1.3-.2.5-.2s.3.1.5.2c.1.1.2.3.2.5s-.1.3-.2.5c-.2.1-.4.2-.5.2zm.4 7.9h-1v-6.3h1v6.3zM28.7 77.1c-.2-.1-.4-.2-.7-.2-.7 0-1 .5-1 1.3v1h1.5v.9H27v5.5h-1v-5.5h-1.1v-.9H26v-1c0-.6.2-1.2.6-1.6.4-.4.8-.6 1.4-.6.3 0 .6.1.8.1l-.1 1zM30 77.7c-.2 0-.3-.1-.5-.2-.1-.1-.2-.3-.2-.5s.1-.3.2-.5c.1-.1.3-.2.5-.2s.3.1.5.2c.1.1.2.3.2.5s-.1.3-.2.5c-.1.1-.2.2-.5.2zm.6 7.9h-1v-6.3h1v6.3zM36.9 85.3c-.5.3-1 .5-1.7.5-.9 0-1.6-.3-2.2-.9-.6-.6-.8-1.3-.8-2.3 0-1 .3-1.9.9-2.5.6-.6 1.4-.9 2.4-.9.6 0 1 .1 1.5.3v1c-.5-.3-1-.5-1.5-.5-.6 0-1.2.2-1.6.7-.4.5-.6 1-.6 1.8s.2 1.3.6 1.7c.4.4.9.6 1.6.6.5 0 1-.2 1.6-.5l-.2 1zM48.9 85.6h-1.2l-.9-2.5H43l-.9 2.5H41l3.4-8.8h1l3.5 8.8zm-2.4-3.5l-1.4-3.8c-.1-.1-.1-.3-.1-.6-.1.2-.1.5-.1.6l-1.4 3.8h3zM49.7 85.3v-1.1c.5.4 1.2.6 1.8.6.9 0 1.3-.3 1.3-.9 0-.2-.1-.3-.1-.4l-.3-.3c-.1-.1-.3-.2-.5-.2-.2-.1-.3-.2-.6-.2-.3-.1-.5-.2-.8-.3-.2-.1-.4-.2-.5-.4-.1-.2-.2-.3-.3-.5-.1-.2-.1-.4-.1-.6 0-.3.1-.6.2-.8.1-.2.3-.4.5-.6.2-.2.5-.3.8-.3.3-.1.6-.1.9-.1.5 0 1 .1 1.5.3v1c-.5-.3-1-.5-1.6-.5-.2 0-.3 0-.5.1s-.3.1-.4.2c-.1.1-.2.2-.2.3-.1.1-.1.2-.1.3 0 .2.1.3.1.4l.3.3c.1.1.2.2.4.2s.3.2.6.2c.3.1.5.2.8.3.2.1.4.2.6.4.2.1.3.3.3.5s.1.4.1.6c0 .3-.1.6-.2.8-.1.2-.3.4-.5.6-.2.2-.5.3-.8.3-.3.1-.6.1-.9.1-.7.2-1.3 0-1.8-.3zM55.9 77.7c-.2 0-.3-.1-.5-.2-.1-.1-.2-.3-.2-.5s.1-.3.2-.5c.1-.1.3-.2.5-.2s.3.1.5.2c.1.1.2.3.2.5s-.1.3-.2.5c-.1.1-.2.2-.5.2zm.6 7.9h-1v-6.3h1v6.3zM63 85.6h-1v-1c-.5.8-1.1 1.2-1.9 1.2-.6 0-1.1-.2-1.5-.5-.3-.3-.5-.8-.5-1.3 0-1.2.7-1.9 2.1-2l1.9-.3c0-1-.4-1.6-1.3-1.6-.8 0-1.5.2-2 .8v-1c.6-.4 1.3-.6 2.2-.6 1.5 0 2.2.8 2.2 2.4v4.1l-.2-.2zm-1-3.2l-1.5.2c-.5.1-.8.2-1 .3-.2.2-.3.5-.3.9 0 .3.1.6.3.8.2.2.5.3.9.3.5 0 .9-.2 1.2-.5.3-.4.4-.9.4-1.4v-.6zM73.8 77.7h-2.6v7.9h-1v-7.9h-2.6v-.9h6.2v.9zM78.4 80.3c-.2-.1-.4-.2-.8-.2s-.8.2-1.1.6-.4 1-.4 1.7v3.2h-1v-6.3h1v1.3c.1-.5.3-.8.6-1s.6-.3 1-.3c.3 0 .5 0 .6.1v1.1h.1zM83.9 85.6h-1v-1c-.5.8-1.1 1.2-1.9 1.2-.6 0-1.1-.2-1.5-.5-.3-.3-.5-.8-.5-1.3 0-1.2.7-1.9 2.1-2l1.9-.3c0-1-.4-1.6-1.3-1.6-.8 0-1.5.2-2 .8v-1c.6-.4 1.3-.6 2.2-.6 1.5 0 2.2.8 2.2 2.4v4.1l-.2-.2zm-1-3.2l-1.5.2c-.5.1-.8.2-1 .3-.2.2-.3.5-.3.9 0 .3.1.6.3.8.2.2.5.3.9.3.5 0 .9-.2 1.2-.5.3-.3.5-.8.5-1.3v-.7zM90.9 79.2l-2.5 6.3h-1L85 79.2h1.1l1.6 4.6c.1.3.2.6.2.9.1-.3.1-.6.2-.9l1.7-4.6h1.1zM97 82.7h-4.5c0 .7.2 1.2.6 1.6.3.4.9.6 1.5.6.7 0 1.3-.2 2-.7v.9c-.6.4-1.3.6-2.2.6-.9 0-1.6-.3-2.1-.9-.5-.6-.8-1.4-.8-2.4s.3-1.8.8-2.4c.6-.6 1.2-.9 2.1-.9.9 0 1.5.3 1.9.8.5.5.7 1.3.7 2.2v.6zm-1-.9c0-.6-.2-1-.4-1.3-.2-.3-.6-.5-1.2-.5-.5 0-.9.2-1.2.5-.3.3-.5.8-.6 1.3H96zM99.5 85.6h-1v-9.4h1v9.4zM112.1 85.6h-1.2l-.9-2.5h-3.8l-.9 2.5h-1.2l3.4-8.8h1l3.6 8.8zm-2.5-3.5l-1.4-3.8c-.1-.1-.1-.3-.1-.6-.1.2-.1.5-.1.6l-1.4 3.8h3zM112.9 85.3v-1.1c.5.4 1.2.6 1.8.6.9 0 1.3-.3 1.3-.9 0-.2-.1-.3-.1-.4l-.3-.3c-.1-.1-.3-.2-.5-.2-.2-.1-.3-.2-.6-.2-.3-.1-.5-.2-.8-.3-.2-.1-.4-.2-.5-.4-.1-.2-.2-.3-.3-.5-.1-.2-.1-.4-.1-.6 0-.3.1-.6.2-.8s.3-.4.5-.6c.2-.2.5-.3.8-.3.3-.1.6-.1.9-.1.5 0 1 .1 1.5.3v1c-.5-.3-1-.5-1.6-.5-.2 0-.3 0-.5.1s-.3.1-.4.2c-.1.1-.2.2-.2.3-.1.1-.1.2-.1.3 0 .2.1.3.1.4l.3.3c.1.1.2.2.4.2.2.1.3.2.6.2.3.1.5.2.8.3.2.1.4.2.6.4.2.1.3.3.3.5.1.2.1.4.1.6 0 .3-.1.6-.2.8-.1.2-.3.4-.5.6-.2.2-.5.3-.8.3-.3.1-.6.1-.9.1-.8.2-1.4 0-1.8-.3zM118.2 85.3v-1.1c.5.4 1.2.6 1.8.6.9 0 1.3-.3 1.3-.9 0-.2-.1-.3-.1-.4l-.3-.3c-.1-.1-.3-.2-.5-.2-.2-.1-.3-.2-.6-.2-.3-.1-.5-.2-.8-.3-.2-.1-.4-.2-.5-.4-.1-.2-.2-.3-.3-.5-.1-.2-.1-.4-.1-.6 0-.3.1-.6.2-.8s.3-.4.5-.6c.2-.2.5-.3.8-.3.3-.1.6-.1.9-.1.5 0 1 .1 1.5.3v1c-.5-.3-1-.5-1.6-.5-.2 0-.3 0-.5.1s-.3.1-.4.2c-.1.1-.2.2-.2.3-.1.1-.1.2-.1.3 0 .2.1.3.1.4l.3.3c.1.1.2.2.4.2.2.1.3.2.6.2.3.1.5.2.8.3.2.1.4.2.6.4.2.1.3.3.3.5.1.2.1.4.1.6 0 .3-.1.6-.2.8-.1.2-.3.4-.5.6-.2.2-.5.3-.8.3-.3.1-.6.1-.9.1-.7.2-1.3 0-1.8-.3zM126.6 85.8c-.9 0-1.7-.3-2.2-.9-.6-.6-.8-1.4-.8-2.3 0-1 .3-1.9.9-2.5s1.3-.9 2.3-.9c.9 0 1.7.3 2.2.9.5.6.8 1.4.8 2.4s-.3 1.8-.9 2.4c-.6.5-1.4.9-2.3.9zm.1-5.9c-.6 0-1.2.2-1.6.6-.4.5-.6 1-.6 1.8s.2 1.3.6 1.7c.4.4.9.6 1.5.6s1.2-.2 1.5-.6c.3-.4.5-1 .5-1.8s-.2-1.4-.5-1.8c-.3-.2-.8-.5-1.4-.5zM135.7 85.3c-.5.3-1 .5-1.7.5-.9 0-1.6-.3-2.2-.9s-.8-1.3-.8-2.3c0-1 .3-1.9.9-2.5.6-.6 1.4-.9 2.4-.9.6 0 1 .1 1.5.3v1c-.5-.3-1-.5-1.5-.5-.6 0-1.2.2-1.6.7-.4.5-.6 1-.6 1.8s.2 1.3.6 1.7c.4.4.9.6 1.6.6.5 0 1-.2 1.6-.5l-.2 1zM137.7 77.7c-.2 0-.3-.1-.5-.2-.1-.1-.2-.3-.2-.5s.1-.3.2-.5c.1-.1.3-.2.5-.2s.3.1.5.2c.1.1.2.3.2.5s-.1.3-.2.5c-.1.1-.3.2-.5.2zm.5 7.9h-1v-6.3h1v6.3zM144.8 85.6h-1v-1c-.5.8-1.1 1.2-1.9 1.2-.6 0-1.1-.2-1.5-.5s-.5-.8-.5-1.3c0-1.2.7-1.9 2.1-2l1.9-.3c0-1-.4-1.6-1.3-1.6-.8 0-1.5.2-2 .8v-1c.6-.4 1.3-.6 2.2-.6 1.5 0 2.2.8 2.2 2.4v4.1l-.2-.2zm-1-3.2l-1.5.2c-.5.1-.8.2-1 .3s-.3.5-.3.9c0 .3.1.6.3.8.2.2.5.3.9.3.5 0 .9-.2 1.2-.5.3-.3.5-.8.5-1.3v-.7zM149.7 85.5c-.2.1-.6.2-.9.2-1.1 0-1.7-.6-1.7-1.9v-3.7H146v-.9h1.1v-1.6l1-.3v1.9h1.6v.8H148v3.6c0 .4.1.7.2.9.1.2.4.3.7.3.2 0 .5-.1.6-.2l.2.9zM151.5 77.7c-.2 0-.3-.1-.5-.2-.1-.1-.2-.3-.2-.5s.1-.3.2-.5.3-.2.5-.2.3.1.5.2.2.3.2.5-.1.3-.2.5c-.1.1-.3.2-.5.2zm.5 7.9h-1v-6.3h1v6.3zM156.7 85.8c-.9 0-1.7-.3-2.2-.9-.6-.6-.8-1.4-.8-2.3 0-1 .3-1.9.9-2.5s1.3-.9 2.3-.9c.9 0 1.7.3 2.2.9.5.6.8 1.4.8 2.4s-.3 1.8-.9 2.4c-.6.5-1.3.9-2.3.9zm.1-5.9c-.6 0-1.2.2-1.6.6-.4.5-.6 1-.6 1.8s.2 1.3.6 1.7c.4.4.9.6 1.5.6s1.2-.2 1.5-.6c.3-.4.5-1 .5-1.8s-.2-1.4-.5-1.8c-.3-.2-.7-.5-1.4-.5zM166.7 85.6h-1V82c0-1.3-.5-2-1.5-2-.5 0-.9.2-1.3.6-.3.4-.5.9-.5 1.5v3.6h-1v-6.3h1v1c.5-.8 1.2-1.2 2.1-1.2.7 0 1.2.2 1.6.7.3.5.5 1.1.5 1.9l.1 3.8z"/></g></svg>