<svg xmlns="http://www.w3.org/2000/svg" width="159" height="161.25"><path d="M2.022 80.125c0-42.8 34.7-77.5 77.5-77.5s77.5 34.6 77.5 77.4c0 18.7-6.8 36.8-19.1 51h2.1c28.1-33.4 23.8-83.3-9.6-111.4s-83.3-23.9-111.4 9.5c-24.8 29.4-24.8 72.4 0 101.8h2.1c-12.3-14.1-19.1-32.1-19.1-50.8" fill="#0aae86"/><path d="M3.822 80.125c0-41.8 33.8-75.7 75.6-75.7s75.7 33.8 75.7 75.6c0 18.8-7 37-19.7 51h1.1c28.1-31.5 25.3-79.9-6.2-108s-79.8-25.4-107.9 6.1c-25.9 29-25.9 72.8 0 101.8h1.1c-12.7-13.9-19.7-32-19.7-50.8" fill="#0aae86"/><path d="M20.522 138.025l-2.5.9v3.2h-2.8v2.1h2.7v6.9c0 3.3 1.1 4.6 3.9 4.6.7 0 1.3-.1 2-.3h.1v-2.2l-.2.1c-.4.2-.8.3-1.3.3-1.3 0-1.8-.7-1.8-2.7v-6.7h3.1v-2.1h-3.1v-4.1h-.1zM38.722 142.125h-2.6v13.4h2.7v-13.4zM35.822 138.125c0 .9.7 1.6 1.6 1.6.9 0 1.6-.7 1.6-1.6 0-.9-.7-1.6-1.6-1.6-.9 0-1.6.7-1.6 1.6M29.022 144.225v-2.2h-2.5v13.4h2.7v-6.8c0-2.8 1.2-4.4 3.3-4.4.3 0 .7.1 1 .1l.2.1.1-2.7-1.2-.1c-1.5.2-3 1.2-3.6 2.6M48.422 141.825c-1.8 0-3.5.9-4.5 2.5v-2.2h-2.4v18.9h2.7v-7.3c1 1.3 2.5 2.1 4.2 2.1 3.5 0 5.7-2.8 5.7-7.2 0-4.1-2.3-6.8-5.7-6.8m-.7 11.7c-2.2 0-3.5-1.9-3.5-4.8s1.4-4.7 3.6-4.7 3.4 1.8 3.4 4.7-1.3 4.8-3.5 4.8" fill="#091016"/><path d="M62.022 141.825c-1.5 0-3.1.3-4.5 1h-.1v2.3l.2-.1c1.1-.7 2.3-1 3.6-1.1 1.6-.2 3 .9 3.1 2.5v.7h-1.6c-4.5 0-7 1.6-7 4.6 0 2.2 1.8 4 4 4h.4c1.7.1 3.4-.7 4.4-2.1v1.9h2.5v-8.1c0-3.8-1.7-5.7-5-5.6m2.4 8c0 2.3-1.4 3.8-3.6 3.8-1.1.1-2.1-.8-2.2-1.9v-.2c0-1.6 1.6-2.5 4.4-2.5h1.4v.8zM78.622 135.625v8.2c-.9-1.4-2.5-2.2-4.2-2.1-3.3 0-5.6 2.8-5.6 6.8s2.3 7.1 5.5 7.1c1.8 0 3.6-.9 4.5-2.5v2.3h2.5v-19.9h-2.7v.1zm-3.5 17.9c-2.1 0-3.4-1.8-3.4-4.7s1.3-4.8 3.3-4.8c2.3 0 3.6 1.8 3.6 4.8s-1.4 4.7-3.5 4.7M93.522 142.125l-3.8 7.7-3.6-7.7h-3.1l6.6 13.4 6.8-13.4zM100.322 142.125h-2.5v13.4h2.7v-13.4zM97.522 138.125c0 .9.7 1.6 1.6 1.6s1.6-.7 1.6-1.6c0-.9-.7-1.6-1.6-1.6s-1.6.7-1.6 1.6M103.722 145.525c0 1.9 1.3 2.9 3.7 4.1 1.5.7 2.3 1.2 2.3 2.2s-1 1.8-2.5 1.8c-1.2 0-2.4-.3-3.4-.9l-.2-.1-.1 2.4h.1c1.1.4 2.3.7 3.5.7 3.3 0 5.5-1.6 5.5-4.1 0-2.1-1.4-3.1-3.7-4.2-1.7-.8-2.5-1.3-2.5-2.1s.8-1.4 2.1-1.4c1.1 0 2.3.3 3.3.8l.2.1.1-2.3h-.1c-1.1-.3-2.2-.5-3.3-.5-3.1-.1-5.1 1.4-5 3.5M121.122 141.825c-4.1 0-6.6 2.7-6.6 7s2.5 7 6.6 7 6.7-2.7 6.7-7-2.6-7-6.7-7m0 11.8c-2.3 0-3.8-2-3.8-4.8s1.5-4.9 3.8-4.9 3.8 1.9 3.8 4.9-1.5 4.8-3.8 4.8M132.822 144.225v-2.2h-2.5v13.4h2.7v-6.8c0-2.8 1.2-4.4 3.3-4.4.3 0 .7.1 1 .1l.2.1.1-2.7-1.2-.1c-1.5.2-2.9 1.2-3.6 2.6M144.122 141.525c.4.5.7 1.1.7 1.7 0 .7-.3 1.3-.7 1.7-.5.4-1.1.7-1.7.7-.7 0-1.3-.3-1.7-.7s-.7-1.1-.7-1.7c0-.7.3-1.3.7-1.8.4-.4 1.1-.7 1.7-.7.7 0 1.3.3 1.7.8m-3.1.2c-.4.4-.6.9-.6 1.4s.2 1 .6 1.4c.4.4.9.6 1.4.6s1-.2 1.4-.6c.4-.4.6-.9.6-1.4s-.2-1-.6-1.4c-.8-.7-2-.7-2.8 0m1.4.1c.8 0 1.2.3 1.2.8 0 .3-.2.6-.6.7l.6 1.2h-.8l-.5-1.1h-.2v1.1h-.7v-2.7h1zm-.3 1.2h.3c.3 0 .5-.1.5-.3s-.2-.4-.5-.4h-.2v.7h-.1z" fill="#0aae86"/><path d="M105.622 120.125c-8.4 3.1-17.8-1.1-21-9.6v-.1c-3.1-8.5 1.2-17.8 9.7-20.9 8.5-3.1 17.8 1.2 20.9 9.7 3.1 8.4-1.2 17.8-9.6 20.9m-26-16.8c-.8-10.5-9.4-18.7-20-18.9 6.3-2.6 13-3.9 19.8-3.9 6.8-.1 13.6 1.3 19.8 4-7.7.2-14.7 4.8-17.9 11.8-.9 2.2-1.5 4.5-1.7 7m-20.3 17.8c-9 0-16.3-7.3-16.3-16.3s7.3-16.3 16.3-16.3 16.3 7.3 16.3 16.3c-.1 8.9-7.4 16.2-16.3 16.3m59.8-23.3c-.7-1.8-1.6-3.5-2.8-5.1.8-2.9 2.2-5.7 4-8.2h-13.6c-8.2-5.1-17.6-7.7-27.2-7.6-10.7 0-20.3 2.7-27.9 7.7h-12.8c1.8 2.4 3.1 5.2 4 8.1-6.7 9.1-4.7 21.9 4.4 28.5 8.8 6.5 21.2 4.8 28-3.7l4.3 6.5 4.4-6.6c7 8.9 19.8 10.4 28.7 3.4 6.9-5.4 9.6-14.8 6.5-23M35.822 138.125c0 .9.7 1.6 1.6 1.6.9 0 1.6-.7 1.6-1.6 0-.9-.7-1.6-1.6-1.6-.9 0-1.6.7-1.6 1.6" fill="#091016"/><path d="M92.922 85.725c2.1-.8 4.2-1.2 6.4-1.2-6.2-2.7-13-4.1-19.8-4-6.8-.1-13.6 1.3-19.9 3.9 10.6.2 19.2 8.4 19.9 19 .2-2.4.8-4.8 1.8-7 2.4-5.1 6.5-8.9 11.6-10.7" fill="#f9c416"/><path d="M99.922 114.725c-5.6 0-10.1-4.5-10.1-10.1s4.5-10.1 10.1-10.1 10.1 4.5 10.1 10.1c0 5.5-4.5 10-10.1 10.1m-5.6-25.2c-8.4 3.1-12.8 12.5-9.7 20.9 3.1 8.5 12.5 12.8 20.9 9.7 8.5-3.1 12.8-12.5 9.7-20.9-3-8.5-12.4-12.8-20.9-9.7" fill="#fff"/><path d="M99.922 108.025c-1.9 0-3.4-1.5-3.4-3.4s1.5-3.4 3.4-3.4 3.4 1.5 3.4 3.4-1.5 3.4-3.4 3.4m0-10c-3.7 0-6.6 3-6.6 6.6 0 3.6 3 6.6 6.6 6.6s6.6-3 6.6-6.6c0-3.6-2.9-6.6-6.6-6.6M59.022 108.025c-1.9 0-3.4-1.5-3.4-3.4s1.5-3.4 3.4-3.4 3.4 1.5 3.4 3.4-1.5 3.4-3.4 3.4m0-10c-3.7 0-6.6 2.9-6.6 6.6s2.9 6.6 6.6 6.6c3.7 0 6.6-2.9 6.6-6.6 0-3.6-3-6.6-6.6-6.6" fill="#fff"/><path d="M59.022 114.725c-5.6 0-10.1-4.5-10.1-10.1s4.5-10.1 10.1-10.1 10.1 4.5 10.1 10.1c0 5.5-4.5 10-10.1 10.1m.3-26.3c-9 0-16.3 7.3-16.3 16.3s7.3 16.3 16.3 16.3 16.3-7.3 16.3-16.3c-.1-8.9-7.4-16.2-16.3-16.3" fill="#fff"/><path d="M59.022 101.225c-1.9 0-3.4 1.5-3.4 3.4s1.5 3.4 3.4 3.4 3.4-1.5 3.4-3.4-1.5-3.4-3.4-3.4" fill="#ef6a45"/><path d="M99.922 101.225c-1.9 0-3.4 1.5-3.4 3.4s1.5 3.4 3.4 3.4 3.4-1.5 3.4-3.4-1.5-3.4-3.4-3.4" fill="#0cae86"/><path d="M59.022 111.225c-3.7 0-6.6-2.9-6.6-6.6s2.9-6.6 6.6-6.6c3.7 0 6.6 2.9 6.6 6.6 0 3.6-3 6.6-6.6 6.6m0-16.7c-5.6 0-10.1 4.5-10.1 10.1s4.5 10.1 10.1 10.1 10.1-4.5 10.1-10.1-4.5-10.1-10.1-10.1M99.922 111.225c-3.7 0-6.6-3-6.6-6.6 0-3.6 3-6.6 6.6-6.6s6.6 3 6.6 6.6c0 3.6-2.9 6.6-6.6 6.6m0-16.7c-5.6 0-10.1 4.5-10.1 10.1s4.5 10.1 10.1 10.1 10.1-4.5 10.1-10.1-4.5-10.1-10.1-10.1M128.022 84.525c.9.9.9 2.4 0 3.3-.5.4-1.1.7-1.7.7s-1.2-.3-1.7-.7c-.4-.4-.7-1-.7-1.7 0-.6.3-1.3.7-1.7.4-.4 1-.7 1.6-.7.8 0 1.4.3 1.8.8m-3 .2c-.4.4-.6.9-.6 1.4 0 1.1.9 2 1.9 2 .5 0 1-.2 1.4-.6.4-.4.6-.9.6-1.4s-.2-1-.6-1.4c-.7-.6-2-.6-2.7 0m1.4.2c.8 0 1.1.3 1.1.8 0 .3-.2.6-.6.7l.6 1.2h-.8l-.5-1h-.2v1h-.7v-2.7h1.1zm-.4 1.1h.2c.3 0 .5-.1.5-.3 0-.2-.2-.4-.5-.4h-.2v.7z" fill="#091016"/><path d="M36.622 48.025c-.9 0-1.7-.2-2.5-.6-.7-.4-1.3-.9-1.7-1.6-.8-1.5-.8-3.4 0-4.9.4-.7 1-1.3 1.8-1.7s1.7-.6 2.6-.6c.5 0 1 .1 1.5.2s.9.3 1.3.5l-.3 1.6c-.8-.4-1.6-.6-2.5-.7-.6 0-1.1.1-1.6.4-.5.2-.8.6-1.1 1.1s-.4 1.1-.4 1.6c0 .8.3 1.6.8 2.2.6.6 1.4.9 2.3.8.5 0 .9-.1 1.3-.2.5-.1.9-.3 1.3-.5l.2 1.6c-.4.2-.9.4-1.4.5-.5.2-1.1.3-1.6.3M41.122 38.725h6.1v1.6h-4.3v2.2h3.8v1.5h-3.8v2.3h4.5v1.6h-6.3zM50.822 43.125h.9c1.3 0 1.9-.5 1.9-1.5 0-.4-.1-.8-.5-1.1s-.9-.4-1.4-.4h-1l.1 3zm-1.8-4.4h3c.9-.1 1.8.2 2.5.8.6.5 1 1.3.9 2.2 0 .5-.1 1-.4 1.5-.3.4-.7.8-1.1 1l2.5 3.8h-2.1l-2-3.3H50.922v3.3h-1.8v-9.3h-.1zM59.122 40.225h-2.9v-1.5h7.7v1.5h-2.9v7.7h-1.9zM65.222 38.725h1.8v9.2h-1.8zM69.022 38.725h5.9v1.6h-4.1v2.4h3.5v1.5h-3.5v3.7h-1.8zM76.322 38.725h1.8v9.2h-1.8zM84.522 48.025c-.9 0-1.7-.2-2.5-.6-.7-.4-1.3-.9-1.7-1.6-.4-.8-.6-1.6-.6-2.5 0-.8.2-1.7.6-2.4s1-1.3 1.7-1.7c.8-.4 1.7-.6 2.6-.6.5 0 1 .1 1.5.2s.9.3 1.3.5l-.3 1.6c-.8-.4-1.7-.6-2.5-.7-.6 0-1.1.1-1.6.4-.5.2-.8.6-1.1 1.1-.3.5-.4 1.1-.4 1.6 0 .8.3 1.6.8 2.2.6.6 1.4.9 2.3.8.5 0 .9-.1 1.3-.2.5-.1.9-.3 1.3-.5l.2 1.6c-.4.2-.9.4-1.4.5-.4.2-1 .3-1.5.3M94.222 44.025l-1.3-3.7-1.4 3.7h2.7zm-2.2-5.3h2l3.7 9.2h-2l-.9-2.4h-3.7l-.9 2.4h-1.8l3.6-9.2zM99.922 40.225h-3v-1.5h7.8v1.5h-3v7.7h-1.8zM105.922 38.725h6.1v1.6h-4.3v2.2h3.8v1.5h-3.8v2.3h4.5v1.6h-6.3zM118.622 46.825c.4 0 .7-.1 1-.3s.6-.5.8-.8c.2-.4.3-.8.3-1.2s-.1-.9-.4-1.2-.7-.5-1.1-.4c-.4 0-.7.1-1 .3s-.6.5-.8.8c-.2.4-.3.8-.3 1.2s.1.9.4 1.2c.3.3.7.5 1.1.4m-.1 1.3c-.5 0-1-.1-1.4-.3s-.8-.6-1-1c-.3-.4-.4-1-.4-1.5 0-.6.2-1.2.4-1.8.3-.6.7-1 1.3-1.4.5-.3 1.2-.5 1.8-.5.5 0 1 .1 1.4.3s.8.6 1 1 .4 1 .4 1.5c0 .6-.2 1.2-.4 1.8-.3.6-.7 1-1.3 1.4-.5.3-1.2.5-1.8.5M124.222 43.025h-1.1l.2-1.2h1.1l.2-1c.1-.8.5-1.5 1-2s1.2-.7 1.9-.7c.2 0 .5 0 .7.1.2 0 .4.1.6.2l-.3 1.1c-.3-.2-.7-.3-1-.2-.4 0-.7.1-1 .4-.3.4-.5.8-.6 1.3l-.2.8h1.7l-.2 1.1h-1.7l-.9 4.9h-1.4l1-4.8zM22.622 51.925h8.5v2.2h-6v3.1h5.3v2.1h-5.3v3.3h6.2v2.2h-8.7zM37.222 58.125l-4.3-6.2h3l2.9 4.5 2.8-4.5h3l-4.3 6.2 4.6 6.7h-3.1l-3.2-4.9-3.1 4.9h-3zM52.022 65.025c-1.2 0-2.4-.2-3.5-.8-1-.5-1.9-1.3-2.4-2.3-.6-1.1-.9-2.3-.9-3.5s.3-2.4.9-3.4c.6-1 1.4-1.8 2.4-2.4 1.1-.6 2.4-.9 3.7-.9.7 0 1.4.1 2.1.3.7.2 1.3.4 1.9.8l-.5 2.2c-1.1-.6-2.3-.9-3.5-.9-.8 0-1.5.2-2.2.5s-1.2.9-1.5 1.5c-.4.7-.6 1.5-.6 2.3-.1 1.2.4 2.3 1.2 3.1.9.8 2 1.2 3.2 1.2.6 0 1.3-.1 1.9-.3.7-.2 1.3-.4 1.9-.7l.3 2.2c-.6.3-1.3.6-2 .8-.9.2-1.7.3-2.4.3M58.322 51.925h8.5v2.2h-5.9v3.1h5.3v2.1h-5.3v3.3h6.2v2.2h-8.8zM69.422 51.925h2.6v10.8h5.8v2.1h-8.4zM79.622 51.925h2.6v10.8h5.8v2.1h-8.4zM89.722 51.925h8.5v2.2h-5.9v3.1h5.3v2.1h-5.3v3.3h6.2v2.2h-8.8zM100.822 51.925h2.3l6.7 9v-9h2.5v12.9h-2.4l-6.7-8.9v8.9h-2.4zM121.122 65.025c-1.2 0-2.4-.2-3.5-.8-1-.5-1.9-1.3-2.4-2.3-.6-1.1-.9-2.3-.9-3.5s.3-2.4.9-3.4 1.4-1.8 2.4-2.4c1.1-.6 2.4-.9 3.7-.9.7 0 1.4.1 2.1.3s1.3.4 1.9.8l-.4 2.2c-1.1-.6-2.3-.9-3.6-.9-.8 0-1.5.2-2.2.5s-1.2.8-1.6 1.5-.6 1.5-.6 2.3c-.1 1.2.4 2.3 1.2 3.1.9.8 2 1.2 3.2 1.2.6 0 1.3-.1 1.9-.3s1.3-.4 1.9-.7l.3 2.2c-.6.3-1.3.6-2 .8-.8.2-1.6.3-2.3.3M127.522 51.925h8.5v2.2h-6v3.1h5.3v2.1h-5.3v3.3h6.3v2.2h-8.8zM67.522 29.525v-1.1c.7-.6 1.4-1.3 2-2 .4-.4.7-.9 1-1.3.2-.3.3-.6.3-1 0-.3-.1-.6-.3-.8-.2-.2-.5-.3-.8-.3s-.7.1-1 .2c-.3.2-.6.4-.9.7l-.3-1.4c.3-.3.6-.5 1-.7s.8-.2 1.3-.2c.6 0 1.3.2 1.8.6.4.4.7 1 .7 1.6 0 .5-.1 1-.4 1.5-.3.6-.7 1.2-1.1 1.7-.2.3-.6.7-1.2 1.2h3v1.3h-5.1zM76.422 28.325c.8 0 1.2-.9 1.2-2.7s-.4-2.6-1.2-2.6-1.2.9-1.2 2.7.4 2.7 1.2 2.6m0 1.4c-.8 0-1.6-.4-2.1-1.1-.5-.9-.8-1.9-.8-2.9-.1-1 .2-2.1.8-2.9.5-.7 1.2-1.1 2.1-1.1.8 0 1.6.3 2.1 1 .5.9.8 1.9.8 2.9.1 1-.2 2.1-.8 2.9-.5.8-1.2 1.2-2.1 1.2M82.622 23.325l-2 .9-.3-1.3 2.6-1.1h1.1v7.7h-1.4zM88.522 24.925c.3 0 .6-.1.9-.3.4-.4.4-1.1 0-1.5-.5-.4-1.2-.4-1.8 0-.2.2-.3.5-.3.8s.1.6.3.8c.3.2.6.3.9.2m0 3.5c.4 0 .7-.1 1-.3.5-.5.5-1.2 0-1.7-.6-.4-1.3-.4-1.9 0-.2.2-.4.5-.4.9 0 .3.1.6.3.9.4.2.7.3 1 .2m.1 1.2c-.5 0-1-.1-1.4-.3-.4-.2-.7-.4-1-.8-.2-.4-.4-.8-.4-1.2 0-.4.1-.8.3-1.2.2-.3.5-.6.9-.7-.3-.1-.6-.4-.8-.7-.2-.3-.3-.6-.3-1s.1-.8.3-1.1c.2-.3.5-.6.9-.8.4-.2.8-.3 1.3-.3s.9.1 1.3.3c.4.2.7.4.9.7.2.3.3.7.3 1.1s-.1.7-.3 1c-.2.3-.5.5-.8.7.4.1.7.4.9.7.2.4.3.8.3 1.2 0 .4-.1.8-.3 1.2-.2.4-.6.6-1 .8-.5.2-1 .3-1.5.3" fill="#0e1318"/></svg>