<svg xmlns="http://www.w3.org/2000/svg" width="159" height="160"><path d="M1.8 78.847a77.524 77.524 0 1 1 135.94 50.994h2.112a79.173 79.173 0 1 0-121.055 0h2.112A77.4 77.4 0 0 1 1.8 78.847m1.762 0a75.762 75.762 0 1 1 131.815 50.994h1.1a76.633 76.633 0 1 0-114.329 0h1.121A75.666 75.666 0 0 1 3.563 78.847m16.706 58.091l-2.462.852v3.218h-2.763v2.155H17.7v6.927c0 3.288 1.121 4.631 3.864 4.631a7.732 7.732 0 0 0 2-.261h.1v-2.235l-.19.07a4.006 4.006 0 0 1-1.291.281c-1.291 0-1.762-.732-1.762-2.7v-6.686h3.153v-2.155h-3.145v-4.1h-.16zm18.177 4.08h-2.592V154.5h2.733v-13.482h-.14zm-2.853-3.95a1.632 1.632 0 1 0 1.632-1.634h-.01a1.634 1.634 0 0 0-1.622 1.634m-6.846 6.132v-2.185h-2.473V154.5h2.7v-6.766c0-2.837 1.191-4.4 3.353-4.4a3.649 3.649 0 0 1 1 .151l.18.05.09-2.667-1.171-.09a4 4 0 0 0-3.664 2.426m19.463-2.504a5.233 5.233 0 0 0-4.494 2.506v-2.185h-2.442v18.976h2.733v-7.358a4.942 4.942 0 0 0 4.154 2.075c3.453 0 5.685-2.837 5.685-7.218 0-4.059-2.242-6.8-5.585-6.8m-.751 11.809c-2.172 0-3.5-1.855-3.5-4.832s1.411-4.712 3.6-4.712S51 144.717 51 147.654s-1.331 4.852-3.473 4.852M61.788 140.7a10.145 10.145 0 0 0-4.474 1h-.08v2.336l.21-.12a7.436 7.436 0 0 1 3.6-1.083 2.836 2.836 0 0 1 3.143 3.128v.11h-1.558c-4.5 0-7.007 1.634-7.007 4.591a4.006 4.006 0 0 0 3.989 4.024c.118 0 .237 0 .355-.014a5.192 5.192 0 0 0 4.374-2.125v1.944h2.46v-8.159c0-3.739-1.692-5.644-5-5.644m2.4 8.12c0 2.315-1.4 3.819-3.563 3.819a2.083 2.083 0 0 1-2.236-1.918 2.204 2.204 0 0 1-.006-.2c0-1.634 1.562-2.536 4.394-2.536H64.2v.832zm14.233-14.225v8.27a4.893 4.893 0 0 0-4.213-2.153c-3.333 0-5.575 2.757-5.575 6.847s2.272 7.167 5.525 7.167a5 5 0 0 0 4.474-2.516v2.302h2.522v-19.918h-2.732zm-3.553 17.864c-2.082 0-3.373-1.815-3.373-4.742s1.3-4.822 3.323-4.822c2.262 0 3.6 1.805 3.6 4.822s-1.391 4.742-3.553 4.742m18.487-11.428l-3.869 7.781-3.584-7.779h-3.073l6.6 13.482 6.787-13.482h-2.857zm6.827 0h-2.579V154.5h2.733v-13.482h-.145zm-2.853-3.95a1.632 1.632 0 1 0 1.632-1.634 1.632 1.632 0 0 0-1.632 1.634m6.2 7.408c0 1.9 1.3 2.9 3.7 4.07 1.522.742 2.313 1.183 2.313 2.235s-1 1.775-2.483 1.775a7.829 7.829 0 0 1-3.423-.882l-.2-.091-.1 2.4h.09a9.573 9.573 0 0 0 3.523.672c3.333 0 5.5-1.594 5.5-4.06 0-2.065-1.371-3.108-3.733-4.21-1.742-.812-2.462-1.293-2.462-2.155s.81-1.354 2.061-1.354a7.532 7.532 0 0 1 3.274.752l.19.09.13-2.325h-.118a11.811 11.811 0 0 0-3.313-.5c-3 0-5.005 1.454-5.005 3.619m17.5-3.809c-4.1 0-6.647 2.707-6.647 7.017s2.543 7.017 6.647 7.017 6.686-2.7 6.686-7.017-2.563-7.017-6.686-7.017m0 11.889c-2.263 0-3.784-2.005-3.784-4.852s1.521-4.872 3.784-4.872 3.793 1.905 3.793 4.872-1.481 4.852-3.793 4.852M132.7 143.2v-2.185h-2.5V154.5h2.733v-6.766c0-2.837 1.191-4.4 3.343-4.4a3.612 3.612 0 0 1 1 .151l.18.05.09-2.667-1.171-.09a4 4 0 0 0-3.663 2.426m11.32-2.787a2.4 2.4 0 0 1 .681 1.715 2.368 2.368 0 0 1-.731 1.734 2.45 2.45 0 0 1-1.711.7 2.368 2.368 0 0 1-1.732-.741 2.423 2.423 0 0 1-.7-1.694 2.464 2.464 0 0 1 .741-1.755 2.349 2.349 0 0 1 1.692-.691 2.416 2.416 0 0 1 1.761.731m-3.143.271a2.007 2.007 0 0 0-.6 1.444 1.944 1.944 0 0 0 .56 1.383 2 2 0 0 0 1.422.611 2.052 2.052 0 0 0 1.411-.581 1.939 1.939 0 0 0 .591-1.413 1.978 1.978 0 0 0-3.384-1.4m1.432 0c.761 0 1.161.281 1.161.782a.733.733 0 0 1-.581.722l.6 1.183h-.802l-.5-1.063h-.221v1.063h-.73v-2.687h1.081zm-.351 1.183h.271c.32 0 .48-.11.48-.341s-.17-.371-.53-.371h-.221v.712zm-36.5-22.895a16.319 16.319 0 0 1-21-9.614l-.022-.06a16.328 16.328 0 1 1 21.02 9.674m-26.025-16.9a20.442 20.442 0 0 0-19.978-18.971 50.43 50.43 0 0 1 19.859-3.879 47.984 47.984 0 0 1 19.819 4.01 20.338 20.338 0 0 0-17.917 11.828 20.938 20.938 0 0 0-1.8 7.017m-20.371 17.823a16.35 16.35 0 1 1 16.316-16.36v.02a16.348 16.348 0 0 1-16.315 16.34M119 96.59a20.17 20.17 0 0 0-2.783-5.112 26.4 26.4 0 0 1 4-8.19H106.6A49.67 49.67 0 0 0 79.325 75.7c-10.69 0-20.339 2.7-27.947 7.678H38.586a26.4 26.4 0 0 1 4 8.11A20.44 20.44 0 0 0 75 116.388l4.324 6.516 4.394-6.586a20.455 20.455 0 0 0 35.255-19.758m-83.38 40.508a1.632 1.632 0 1 0 1.632-1.634h-.01a1.634 1.634 0 0 0-1.622 1.634m23.2-37.049a3.408 3.408 0 1 0 3.393 3.418v-.01a3.4 3.4 0 0 0-3.393-3.408m40.979 0a3.408 3.408 0 1 0 3.394 3.418v-.01a3.4 3.4 0 0 0-3.384-3.408h-.01m-40.967 10.034a6.626 6.626 0 1 1 6.606-6.636v.01a6.641 6.641 0 0 1-6.606 6.626m0-16.741a10.114 10.114 0 1 0 10.08 10.135v-.02a10.117 10.117 0 0 0-10.08-10.115m40.969 16.741a6.626 6.626 0 1 1 6.617-6.626 6.621 6.621 0 0 1-6.617 6.626m0-16.741a10.114 10.114 0 1 0 10.09 10.125v-.01a10.127 10.127 0 0 0-10.09-10.115m28.1-10.044a2.388 2.388 0 0 1 0 3.358 2.451 2.451 0 0 1-1.682.682 2.309 2.309 0 0 1-1.681-.722 2.35 2.35 0 0 1 .04-3.368 2.271 2.271 0 0 1 1.641-.672 2.329 2.329 0 0 1 1.722.722m-3.063.251a1.97 1.97 0 1 0 2.723 2.847 1.925 1.925 0 0 0 .58-1.393 1.947 1.947 0 0 0-.56-1.363 2 2 0 0 0-2.743 0m1.391.05c.751 0 1.132.27 1.132.762a.713.713 0 0 1-.551.7l.571 1.153h-.784l-.491-1h-.21v1h-.721v-2.706zm-.33 1.153h.25c.321 0 .471-.11.471-.341s-.16-.361-.5-.361h-.22v.7zM36.354 46.72a5.374 5.374 0 0 1-2.522-.561 4.166 4.166 0 0 1-1.732-1.625 5.21 5.21 0 0 1 0-4.932 4.436 4.436 0 0 1 1.752-1.714 5.248 5.248 0 0 1 2.612-.632 6.3 6.3 0 0 1 1.532.2 4.8 4.8 0 0 1 1.341.544l-.31 1.564a5.608 5.608 0 0 0-2.532-.661 3.278 3.278 0 0 0-1.592.381 2.705 2.705 0 0 0-1.1 1.073A3.251 3.251 0 0 0 33.4 42a3.01 3.01 0 0 0 .841 2.245 3.16 3.16 0 0 0 2.292.832 5.572 5.572 0 0 0 1.341-.181 6.177 6.177 0 0 0 1.341-.511l.19 1.6a5.59 5.59 0 0 1-1.405.544 6.829 6.829 0 0 1-1.622.19m4.554-9.3h6.066v1.544H42.72v2.206h3.78V42.7h-3.78v2.356h4.444v1.554h-6.236v-9.193zm9.649 4.421h.9c1.261 0 1.9-.491 1.9-1.484a1.284 1.284 0 0 0-.47-1.083 2.13 2.13 0 0 0-1.371-.371h-1zm-1.772-4.431h3a3.67 3.67 0 0 1 2.482.782 2.688 2.688 0 0 1 .911 2.155 2.761 2.761 0 0 1-.4 1.453 2.885 2.885 0 0 1-1.141 1l2.462 3.769h-2.092l-2-3.308h-1.453v3.278h-1.772v-9.131zm10.13 1.534h-2.956v-1.526h7.747v1.524h-2.943v7.668h-1.851v-7.668zm6.076-1.534h1.852V46.6h-1.856v-9.193zm3.8.01h5.916v1.544h-4.084v2.456h3.523v1.534h-3.523v3.659h-1.832v-9.195zm7.327-.01h1.852V46.6h-1.852v-9.193zm8.188 9.311a5.375 5.375 0 0 1-2.522-.561 4.226 4.226 0 0 1-1.732-1.624 4.907 4.907 0 0 1-.621-2.5 4.838 4.838 0 0 1 .611-2.436 4.345 4.345 0 0 1 1.742-1.714 5.318 5.318 0 0 1 2.623-.632 6.3 6.3 0 0 1 1.531.2 4.614 4.614 0 0 1 1.33.547l-.3 1.564a5.65 5.65 0 0 0-2.542-.664 3.336 3.336 0 0 0-1.591.381 2.764 2.764 0 0 0-1.1 1.073 3.362 3.362 0 0 0-.4 1.644 3.009 3.009 0 0 0 .851 2.245 3.12 3.12 0 0 0 2.282.832 5.43 5.43 0 0 0 1.341-.181 6 6 0 0 0 1.341-.511l.19 1.6a5.593 5.593 0 0 1-1.411.542 6.766 6.766 0 0 1-1.621.19m9.739-3.96l-1.351-3.7-1.381 3.7h2.733zM91.8 37.407h2l3.654 9.2h-2l-.871-2.426h-3.697L90 46.609h-1.847zm7.927 1.534h-2.945v-1.524h7.738v1.524h-2.943v7.668h-1.853v-7.668zm6.076-1.524h6.066v1.544h-4.274v2.206h3.783V42.7h-3.783v2.356h4.444v1.554H105.8v-9.193zm12.7 8.14a1.8 1.8 0 0 0 1-.3 2.2 2.2 0 0 0 .751-.842 2.542 2.542 0 0 0 .29-1.2 1.757 1.757 0 0 0-.41-1.223 1.471 1.471 0 0 0-1.121-.441 1.765 1.765 0 0 0-1 .311 2.228 2.228 0 0 0-.751.832 2.543 2.543 0 0 0-.28 1.213 1.745 1.745 0 0 0 .38 1.213 1.47 1.47 0 0 0 1.121.441m-.12 1.243a2.927 2.927 0 0 1-1.431-.341 2.6 2.6 0 0 1-1-1 2.827 2.827 0 0 1-.371-1.474 3.762 3.762 0 0 1 .451-1.8 3.5 3.5 0 0 1 1.261-1.363 3.269 3.269 0 0 1 1.812-.521 3 3 0 0 1 1.441.341 2.564 2.564 0 0 1 1 1 2.941 2.941 0 0 1 .37 1.473 3.749 3.749 0 0 1-.45 1.8 3.625 3.625 0 0 1-1.271 1.363 3.281 3.281 0 0 1-1.822.521m5.685-5.092h-1.111l.22-1.173h1.122l.2-1a3.72 3.72 0 0 1 1-2 2.65 2.65 0 0 1 1.892-.692 3.068 3.068 0 0 1 .74.09 1.67 1.67 0 0 1 .6.251l-.28 1.133a2 2 0 0 0-1-.251 1.359 1.359 0 0 0-1 .421 2.462 2.462 0 0 0-.561 1.293l-.16.812h1.672l-.231 1.123h-1.711l-.941 4.942h-1.4zM22.351 50.679h8.488v2.165h-5.986v3.078h5.295v2.155h-5.295v3.308h6.226v2.165h-8.728V50.679zm14.634 6.175L32.7 50.679h3.013l2.893 4.421 2.8-4.421h2.963l-4.324 6.215 4.614 6.656H41.6l-3.183-4.892-3.144 4.892H32.31zm14.764 6.907a7.679 7.679 0 0 1-3.533-.792 5.83 5.83 0 0 1-2.422-2.276 6.724 6.724 0 0 1-.881-3.5 6.814 6.814 0 0 1 .861-3.408 6.009 6.009 0 0 1 2.442-2.4 7.4 7.4 0 0 1 3.663-.882 8.377 8.377 0 0 1 2.142.281 6.519 6.519 0 0 1 1.872.752l-.42 2.2a8 8 0 0 0-3.553-.912 4.618 4.618 0 0 0-2.232.521 3.736 3.736 0 0 0-1.541 1.514 4.557 4.557 0 0 0-.561 2.3 4.2 4.2 0 0 0 1.19 3.141 4.36 4.36 0 0 0 3.193 1.163 7.569 7.569 0 0 0 1.872-.261 8.472 8.472 0 0 0 1.882-.712l.27 2.235a7.359 7.359 0 0 1-2 .762 9.532 9.532 0 0 1-2.262.281m6.426-13.092h8.5v2.165h-5.99v3.078h5.3v2.155h-5.3v3.308h6.226v2.168h-8.738V50.679zm11.03 0h2.593v10.739h5.816v2.135h-8.411V50.679zm10.2 0h2.592v10.739h5.816v2.135h-8.41V50.679zm10.2 0h8.5v2.165h-6v3.078h5.3v2.155h-5.3v3.308h6.226v2.168h-8.728V50.679zm11.03 0h2.3l6.737 8.942v-8.939h2.452V63.55h-2.3l-6.737-8.912v8.912h-2.452V50.679zm20.369 13.082a7.68 7.68 0 0 1-3.533-.792 5.829 5.829 0 0 1-2.422-2.276 6.717 6.717 0 0 1-.881-3.5 6.816 6.816 0 0 1 .861-3.408 6.114 6.114 0 0 1 2.442-2.4 7.412 7.412 0 0 1 3.674-.882 8.365 8.365 0 0 1 2.132.281 6.512 6.512 0 0 1 1.871.752l-.42 2.2a8 8 0 0 0-3.553-.912 4.653 4.653 0 0 0-2.233.521 3.738 3.738 0 0 0-1.561 1.483 4.553 4.553 0 0 0-.56 2.3 4.2 4.2 0 0 0 1.191 3.148 4.359 4.359 0 0 0 3.193 1.163 7.729 7.729 0 0 0 1.882-.261 8.379 8.379 0 0 0 1.871-.712l.27 2.236a7.421 7.421 0 0 1-2 .762 9.655 9.655 0 0 1-2.273.281m6.463-13.063h8.488v2.165H129.9v3.078h5.3v2.155h-5.3v3.308h6.226v2.165H127.4V50.679zM67.313 28.145v-1.133a22.942 22.942 0 0 0 2-2 8.014 8.014 0 0 0 1-1.343 2.067 2.067 0 0 0 .28-1 1.053 1.053 0 0 0-.31-.8 1.16 1.16 0 0 0-.821-.291 2.261 2.261 0 0 0-1 .23 3.182 3.182 0 0 0-.871.662l-.278-1.27a3 3 0 0 1 1-.662 3.515 3.515 0 0 1 1.291-.241 2.539 2.539 0 0 1 1.752.591 2.006 2.006 0 0 1 .661 1.584 3.413 3.413 0 0 1-.38 1.5 8.122 8.122 0 0 1-1.131 1.694c-.23.261-.631.662-1.181 1.183h3v1.3zM76.232 27c.831 0 1.251-.9 1.251-2.7s-.42-2.646-1.251-2.646-1.251.9-1.251 2.7.421 2.7 1.251 2.7m0 1.313A2.371 2.371 0 0 1 74.16 27.3a5.018 5.018 0 0 1-.751-2.947 5.018 5.018 0 0 1 .751-2.947 2.608 2.608 0 0 1 4.164-.05 5.017 5.017 0 0 1 .751 2.947 5.017 5.017 0 0 1-.751 2.947 2.41 2.41 0 0 1-2.072 1.063M82.4 21.96l-1.992.892-.24-1.273 2.522-1.113h1.161v7.678H82.4V21.96zm5.934 1.64a1.28 1.28 0 0 0 .881-.291 1.084 1.084 0 0 0 .023-1.531l-.023-.023a1.43 1.43 0 0 0-1.752 0 1.09 1.09 0 0 0-.01 1.554 1.3 1.3 0 0 0 .881.291m0 3.509a1.42 1.42 0 0 0 1-.321 1.2 1.2 0 0 0 0-1.7 1.589 1.589 0 0 0-1.912 0 1.083 1.083 0 0 0-.36.852 1 1 0 0 0 .35.852 1.411 1.411 0 0 0 1 .321m0 1.2a3.635 3.635 0 0 1-1.451-.271 2.222 2.222 0 0 1-1-.782 2.008 2.008 0 0 1-.36-1.2 2.1 2.1 0 0 1 .34-1.183 1.872 1.872 0 0 1 .9-.742 1.661 1.661 0 0 1-.771-.681 2.008 2.008 0 0 1-.27-1 1.858 1.858 0 0 1 .32-1.083 2.133 2.133 0 0 1 .911-.752 3.254 3.254 0 0 1 1.3-.311 3.373 3.373 0 0 1 1.341.261 2.276 2.276 0 0 1 .931.732 1.856 1.856 0 0 1 .34 1.113 2.006 2.006 0 0 1-.27 1 1.731 1.731 0 0 1-.781.682 1.894 1.894 0 0 1 .911.742 2.127 2.127 0 0 1 .34 1.183 2.156 2.156 0 0 1-.34 1.183 2.193 2.193 0 0 1-1 .792 3.682 3.682 0 0 1-1.5.281" fill="#fff" fill-rule="evenodd"/></svg>