<svg class="text-logo" xmlns="http://www.w3.org/2000/svg" viewBox="0 0 133.312 13.938"><path fill="#333" fill-rule="evenodd" d="M465,68.4L469.952,81h2.934l5.006-12.6h-2.935L471.5,77.9,468.061,68.4H465Zm15.787-1.224a1.387,1.387,0,1,0,1.35,1.387A1.315,1.315,0,0,0,480.787,67.172ZM479.4,71.313V81h2.773V71.313H479.4Zm10.136,7.634a2.422,2.422,0,0,1-2.305-1.495l6.7-1.764a4.393,4.393,0,0,0-4.771-4.465,4.692,4.692,0,0,0-4.97,4.951c0,2.953,2.071,4.933,5.15,4.933a5.487,5.487,0,0,0,4.357-1.98l-1.584-1.441A3.447,3.447,0,0,1,489.536,78.948ZM489.3,73.275a1.841,1.841,0,0,1,1.908,1.369L486.961,75.8C487.051,74.158,487.933,73.275,489.3,73.275Zm11.286,5.15a2.643,2.643,0,0,1-1.243.36c-0.612,0-.99-0.414-0.99-1.332V73.672H501V71.745h-2.647V69.08H495.6v8.84a2.941,2.941,0,0,0,3.1,3.205,5.113,5.113,0,0,0,2.467-.666Zm8.55-7.22a3.616,3.616,0,0,0-3.349,1.8V71.313h-2.773V81h2.773V76.229A2.243,2.243,0,0,1,508,73.744a1.8,1.8,0,0,1,1.908,1.98V81h2.773V74.914A3.391,3.391,0,0,0,509.138,71.205Zm12.906,0.108v1.4a3.675,3.675,0,0,0-3.132-1.513c-2.7.018-4.484,1.98-4.484,4.916,0,2.989,1.819,4.987,4.574,4.987a3.584,3.584,0,0,0,3.042-1.494V81H524.8V71.313h-2.755Zm-2.394,7.562a2.694,2.694,0,0,1,0-5.366,2.407,2.407,0,0,1,2.394,2.359v0.648A2.407,2.407,0,0,1,519.65,78.875Zm20.828-7.67a3.541,3.541,0,0,0-3.493,2.233,3.219,3.219,0,0,0-3.277-2.233,3.578,3.578,0,0,0-3.277,1.783V71.313h-2.773V81h2.773V76.211a2.218,2.218,0,0,1,2.161-2.467,1.776,1.776,0,0,1,1.854,1.98V81H537.2V76.211a2.215,2.215,0,0,1,2.143-2.467,1.781,1.781,0,0,1,1.872,1.98V81h2.755V74.914C543.971,72.646,542.621,71.205,540.478,71.205Zm7.214-2.809v2.412h3.835V81h2.845V70.809h3.853V68.4H547.692Zm16.562,2.827c-3.115,0-5.2,1.962-5.2,4.934,0,2.952,2.089,4.951,5.2,4.951,3.1,0,5.185-2,5.185-4.951C569.439,73.185,567.351,71.223,564.254,71.223Zm0,2.3a2.676,2.676,0,1,1-2.431,2.665A2.428,2.428,0,0,1,564.254,73.528ZM577.9,71.313V76.1a2.215,2.215,0,0,1-2.142,2.467,1.753,1.753,0,0,1-1.819-1.963V71.313h-2.773V77.4c0,2.287,1.351,3.709,3.493,3.709A3.434,3.434,0,0,0,577.9,79.29V81h2.755V71.313H577.9Zm8.387,1.746V71.313h-2.773V81h2.773V76.337c0-1.639,1.225-2.7,3.205-2.521V71.205A3.525,3.525,0,0,0,586.285,73.06Zm11,1.1,0.954-1.89a7.221,7.221,0,0,0-3.781-1.081c-2.106,0-3.817,1.027-3.817,3.025,0,3.4,5.024,2.575,5.024,4.123,0,0.522-.522.756-1.225,0.756a5.842,5.842,0,0,1-3.367-1.207l-0.9,1.873a6.764,6.764,0,0,0,4.195,1.35c2.2,0,3.944-1.044,3.944-3.025,0.017-3.421-5.1-2.683-5.1-4.141,0-.5.468-0.72,1.116-0.72A6.544,6.544,0,0,1,597.284,74.158Z" transform="translate(-465 -67.188)"></path></svg>